<svg width="120" height="70" viewBox="0 0 120 70" fill="none" xmlns="http://www.w3.org/2000/svg">
<path fill-rule="evenodd" clip-rule="evenodd" d="M46.5611 42.8653H49.2553L42.235 25.4143H40.1108L33.0905 42.8653H35.6551L37.4166 38.339H44.7996L46.5611 42.8653ZM41.0953 28.4754L44.1262 36.2983H38.0644L41.0953 28.4754Z" fill="#021A32"/>
<path fill-rule="evenodd" clip-rule="evenodd" d="M61.5378 37.3596C61.5378 37.2546 61.5378 37.1497 61.5641 37.0184C61.5904 36.8347 61.6166 36.546 61.6166 36.2836C61.6166 32.9504 59.2532 30.5358 55.9182 30.5358C52.5831 30.5358 49.8258 32.9766 49.8258 36.756C49.8258 40.6141 52.2943 43.0549 55.8394 43.0549C59.2769 43.0549 60.8873 41.4016 61.1016 41.1816C61.1083 41.1747 61.1137 41.1692 61.1177 41.1652L60.0935 39.7742C60.0884 39.7782 60.0828 39.7826 60.0765 39.7875C59.7923 40.0094 58.3123 41.1652 56.1282 41.1652C53.9224 41.1652 52.3993 39.7742 52.268 37.3596H61.5378ZM55.8394 32.3205C58.2816 32.3205 59.3057 34.4464 59.3057 35.7586H52.2943C52.3731 34.3151 53.4235 32.3205 55.8394 32.3205Z" fill="#021A32"/>
<path d="M70.3735 33.0175H70.2699C70.0368 32.9119 69.6483 32.7535 68.9749 32.7535C67.9131 32.7535 67.2915 33.4399 67.0325 33.7831C66.7994 34.1264 66.3073 35.024 66.3073 36.8457V42.8652H63.8987V30.7734H66.3073L66.2814 32.6215H66.3591C66.9289 31.2222 68.0167 30.5358 69.2857 30.5358C69.6742 30.5358 69.985 30.5622 70.2181 30.6414C70.3476 30.6678 70.4512 30.7206 70.5548 30.747L70.3735 33.0175Z" fill="#021A32"/>
<path fill-rule="evenodd" clip-rule="evenodd" d="M71.1255 36.8085C71.1255 40.5616 73.8946 43.0549 77.4142 43.0549C80.9338 43.0549 83.677 40.5353 83.677 36.8085C83.677 33.0816 80.9338 30.5358 77.4142 30.5358C73.8946 30.5358 71.1255 33.0816 71.1255 36.8085ZM73.558 36.7297C73.558 34.3676 75.0331 32.5042 77.414 32.5042C79.8208 32.5042 81.27 34.3676 81.2442 36.7297C81.2442 39.1181 79.8208 40.9815 77.414 40.9815C75.0331 40.9815 73.558 39.1181 73.558 36.7297Z" fill="#021A32"/>
<path d="M91.4742 42.6379L90.851 42.8464C90.4616 42.9507 89.9163 43.0549 89.2932 43.0549C88.0209 43.0549 87.2679 42.6118 86.7746 41.8298C86.2812 41.1 86.1774 40.1356 86.1774 38.2588V32.8111H84.4377V30.8822H86.1774V27.3112H88.5921V30.8822H91.4482V32.8111H88.5921V38.2067C88.5921 39.2233 88.6181 39.901 88.9037 40.3962C89.1374 40.7611 89.4489 40.9957 90.124 40.9957C90.4616 40.9957 90.7472 40.9436 91.0068 40.8654L91.3444 40.709L91.4742 42.6379Z" fill="#021A32"/>
<path fill-rule="evenodd" clip-rule="evenodd" d="M103.947 37.3596C103.947 37.2546 103.947 37.1497 103.973 37.0184C103.999 36.8347 104.025 36.546 104.025 36.2836C104.025 32.9504 101.662 30.5358 98.327 30.5358C94.9919 30.5358 92.2346 32.9766 92.2346 36.756C92.2346 40.6141 94.7031 43.0549 98.2482 43.0549C101.686 43.0549 103.296 41.4016 103.51 41.1816C103.517 41.1747 103.522 41.1692 103.526 41.1652L102.502 39.7742C102.497 39.7782 102.492 39.7826 102.485 39.7875C102.201 40.0094 100.721 41.1652 98.5371 41.1652C96.3312 41.1652 94.8081 39.7742 94.6768 37.3596H103.947ZM98.2744 32.3205C100.717 32.3205 101.741 34.4464 101.741 35.7586H94.7293C94.8081 34.3151 95.8585 32.3205 98.2744 32.3205Z" fill="#021A32"/>
<path d="M117.148 42.8653H114.342L110.264 37.0483L108.888 38.3584V42.8391H106.498V25.4143H108.888V35.6333L113.745 30.8382H116.55L111.901 35.3451L117.148 42.8653Z" fill="#021A32"/>
<path fill-rule="evenodd" clip-rule="evenodd" d="M118.642 30.7255C118.914 30.7255 119.158 30.8798 119.158 31.1627C119.158 31.3942 118.968 31.5228 118.805 31.5999L119.24 32.2429H118.914L118.533 31.6257H118.37V32.2429H118.099V30.7255H118.642ZM118.56 30.9312H118.37V31.3942H118.56C118.696 31.3942 118.859 31.3427 118.859 31.1627C118.859 31.0084 118.778 30.9312 118.56 30.9312Z" fill="#021A32"/>
<path fill-rule="evenodd" clip-rule="evenodd" d="M117.338 31.4842C117.338 30.7406 117.923 30.1564 118.669 30.1564C119.414 30.1564 120 30.7406 120 31.4842C120 32.2277 119.414 32.812 118.669 32.812C117.923 32.812 117.338 32.2277 117.338 31.4842ZM117.524 31.4576C117.524 32.095 118.03 32.5995 118.669 32.5995C119.281 32.5995 119.787 32.095 119.814 31.4576C119.814 30.8203 119.281 30.3157 118.669 30.3157C118.03 30.3157 117.524 30.8203 117.524 31.4576Z" fill="#021A32"/>
<path opacity="0.57" d="M28.336 47.0384C28.336 47.7696 21.9895 48.3661 14.168 48.3661C6.34648 48.3661 0 47.7696 0 47.0384C0 46.3071 6.34648 45.7106 14.168 45.7106C21.9895 45.7106 28.336 46.3071 28.336 47.0384Z" fill="url(#paint0_linear)"/>
<path d="M1.71155 46.6589L11.0103 22H17.496L1.71155 46.6589Z" fill="url(#paint1_linear)"/>
<path d="M26.8146 46.6589L17.5078 22H11.0302L26.8146 46.6589Z" fill="#F8971D"/>
<defs>
<linearGradient id="paint0_linear" x1="1.35463" y1="48.3062" x2="28.3809" y2="48.3062" gradientUnits="userSpaceOnUse">
<stop stop-color="#D9DBDC"/>
<stop offset="0.9995" stop-color="#F2F3F3" stop-opacity="0.3"/>
</linearGradient>
<linearGradient id="paint1_linear" x1="1.7018" y1="46.6672" x2="17.4972" y2="46.6672" gradientUnits="userSpaceOnUse">
<stop offset="0.0447104" stop-color="#035797"/>
<stop offset="0.55" stop-color="#1B3146"/>
<stop offset="0.6342" stop-color="#021A32"/>
<stop offset="1" stop-color="#021A32"/>
</linearGradient>
</defs>
</svg>
