<svg width="112" height="70" viewBox="0 0 112 70" fill="none" xmlns="http://www.w3.org/2000/svg">
<path d="M0 41.192V11H29.886V41.243C29.886 42.518 29.121 43.691 27.948 44.252L14.943 50.423L1.938 44.201C0.765001 43.64 0 42.467 0 41.192Z" fill="white"/>
<path d="M9.43501 19.2617V28.6967H0V38.3867H9.43501V50.4228H14.943H20.451V38.3867H29.886V28.6967H20.451V19.2617H9.43501Z" fill="#D94827"/>
<path d="M24.786 47.1085L14.943 51.8005L5.10001 47.1085C4.131 46.6495 3.009 46.6495 2.04 47.1085L0.0510001 48.0265C0.0510001 48.1285 0 48.1795 0 48.2305V53.6875C0 54.2485 0.612001 54.6055 1.122 54.3505L2.091 53.8915C3.06 53.4325 4.182 53.4325 5.15101 53.8915L14.127 58.1755C14.637 58.4305 15.3 58.4305 15.81 58.1755L24.786 53.8915C25.755 53.4325 26.877 53.4325 27.846 53.8915L28.815 54.3505C29.325 54.6055 29.937 54.2485 29.937 53.6875V48.2305C29.937 48.1795 29.886 48.0775 29.835 48.0775L27.846 47.1595C26.877 46.6495 25.755 46.6495 24.786 47.1085Z" fill="#EAF6FD"/>
<path d="M26.316 47.056C26.775 47.056 27.285 47.158 27.693 47.362L29.631 48.28V53.686C29.631 53.992 29.376 54.145 29.172 54.145C29.121 54.145 29.019 54.145 28.968 54.094L27.999 53.635C27.489 53.38 26.928 53.278 26.367 53.278C25.806 53.278 25.245 53.431 24.735 53.635L15.657 57.919C15.453 58.021 15.198 58.072 14.943 58.072C14.688 58.072 14.433 58.021 14.229 57.919L5.25301 53.635C4.743 53.38 4.182 53.278 3.621 53.278C3.06 53.278 2.499 53.431 1.989 53.635L1.02 54.094C0.969001 54.145 0.867001 54.145 0.816001 54.145C0.561001 54.145 0.357 53.992 0.357 53.686V48.28L2.295 47.362C2.703 47.158 3.213 47.056 3.672 47.056C4.131 47.056 4.641 47.158 5.04901 47.362L14.892 52.003L14.994 52.054L15.096 52.003L24.939 47.362C25.347 47.158 25.806 47.056 26.316 47.056ZM26.316 46.801C25.806 46.801 25.296 46.903 24.786 47.158L14.943 51.799L5.10001 47.107C4.64101 46.903 4.08 46.75 3.57 46.75C3.06 46.75 2.55 46.852 2.04 47.107L0.0510001 48.025C0.0510001 48.127 0 48.178 0 48.229V53.686C0 54.094 0.357 54.451 0.765001 54.451C0.867001 54.451 0.969001 54.451 1.122 54.349L2.091 53.89C2.55 53.635 3.111 53.533 3.621 53.533C4.131 53.533 4.64101 53.635 5.15101 53.89L14.127 58.174C14.382 58.276 14.688 58.378 14.994 58.378C15.3 58.378 15.555 58.327 15.861 58.174L24.837 53.89C25.296 53.686 25.857 53.533 26.367 53.533C26.877 53.533 27.387 53.635 27.897 53.89L28.866 54.349C28.968 54.4 29.07 54.451 29.223 54.451C29.631 54.451 29.988 54.145 29.988 53.686V48.229C29.988 48.178 29.937 48.076 29.886 48.076L27.897 47.158C27.336 46.903 26.826 46.801 26.316 46.801Z" fill="#1D1D1B"/>
<path d="M26.3161 47.6686C26.7241 47.6686 27.0811 47.7706 27.4381 47.9236L29.0191 48.6886V53.5336L28.2541 53.1766C27.6421 52.8706 26.9791 52.7176 26.3161 52.7176C25.6531 52.7176 24.9901 52.8706 24.3781 53.1256L15.4021 57.4096C15.2491 57.4606 15.0961 57.5116 14.9431 57.5116C14.7901 57.5116 14.6371 57.4606 14.4841 57.4096L5.50804 53.1256C4.89604 52.8196 4.23304 52.7176 3.57004 52.7176C2.90704 52.7176 2.24404 52.8706 1.63204 53.1766L0.86704 53.5336V48.6886L2.44804 47.9236C2.80504 47.7706 3.16204 47.6686 3.57004 47.6686C3.97804 47.6686 4.33504 47.7706 4.69204 47.9236L14.8411 52.7686L14.8921 52.8196L14.9431 52.7686L25.0921 47.9236C25.5001 47.7196 25.9081 47.6686 26.3161 47.6686ZM26.3161 47.5156C25.9081 47.5156 25.5001 47.6176 25.1431 47.7706L14.9941 52.6156L4.79404 47.7706C4.43704 47.6176 4.02904 47.5156 3.62104 47.5156C3.21304 47.5156 2.80504 47.6176 2.44804 47.7706L0.81604 48.5356V53.6356L1.78504 53.1766C2.29504 52.9726 2.95804 52.8196 3.62104 52.8196C4.28404 52.8196 4.89604 52.9726 5.45704 53.2276L14.4331 57.5116C14.5861 57.5626 14.7901 57.6136 14.9431 57.6136C15.0961 57.6136 15.3001 57.5626 15.4531 57.5116L24.4291 53.2276C24.9901 52.9726 25.6531 52.8196 26.2651 52.8196C26.9281 52.8196 27.5401 52.9726 28.1521 53.2276L29.1211 53.6866V48.5866L27.4891 47.8216C27.1321 47.6176 26.7241 47.5156 26.3161 47.5156Z" fill="#1D1D1B"/>
<path d="M29.886 11H0V19.262H29.886V11Z" fill="#1D1D1B"/>
<path fill-rule="evenodd" clip-rule="evenodd" d="M7.8032 39.0506L7.8542 38.9996L7.9052 38.9486C7.9562 38.8976 7.9562 38.8976 7.9562 38.8466L8.0072 38.7956L8.0582 38.7446V38.6936L8.1092 38.4386C8.1092 38.3876 8.1092 38.3876 8.1092 38.3876C8.1092 38.3366 8.1602 38.2346 8.2112 38.1836L8.2622 38.1326L8.3132 38.0816L8.3642 38.0306C8.3642 38.0306 8.3642 38.0306 8.4152 38.0306C8.4152 38.0306 8.4152 38.0306 8.4662 38.0306C8.5682 38.0306 8.7212 38.0306 8.8232 38.1326C8.9762 38.1836 9.1292 38.2856 9.4352 38.2856C9.5882 38.2856 9.7412 38.2856 9.8942 38.2346C9.8432 38.1836 9.8432 38.0306 9.9452 37.9796L10.0982 37.9286C10.2512 37.8776 10.4042 37.8266 10.5572 37.7756C10.6592 37.6736 10.8122 37.6226 10.9652 37.6226C11.0162 37.6226 11.0672 37.6226 11.1182 37.5716C11.0672 37.5206 11.0672 37.4696 11.0672 37.4186V37.3676L11.1182 37.3166C11.1692 37.2656 11.2202 37.2656 11.3222 37.2146C11.3222 37.2146 11.3222 37.2146 11.3732 37.2146C11.3222 37.2146 11.3222 37.1636 11.3222 37.1126C11.3222 37.0106 11.4242 36.9086 11.8322 36.7046C11.9342 36.6536 12.1382 36.5516 12.1892 36.5006C12.0872 36.3986 11.9852 36.2456 11.9342 36.1436C11.8832 36.0416 11.9852 35.9396 12.0362 35.9396H12.0872C12.2402 35.8886 12.4952 35.8376 12.5972 35.6846V35.6336H12.6482C12.6992 35.6336 12.8012 35.5826 13.0052 35.5316C13.5152 35.3786 14.3312 35.1236 14.6882 35.0216L14.8412 34.9706V35.2256V35.3786V35.4296V35.4806V35.5316C14.8412 35.6336 14.8922 35.7356 14.9432 35.7866L14.9942 35.8376C15.0962 35.9396 15.2492 35.9906 15.4532 36.0416C15.5042 36.0416 15.6062 36.0416 15.6572 36.0416C15.7592 36.0416 15.8612 36.0416 16.0142 36.0416C16.2182 36.0416 16.4732 35.9906 16.6772 36.0416C16.8812 36.0416 17.0342 36.1946 17.0852 36.3986C17.1362 36.6026 16.9832 36.9086 16.6262 37.0106C16.3202 37.0616 16.0652 37.0616 15.8102 37.0616C15.3512 37.0106 15.1982 36.8576 15.0452 36.6536L14.9942 36.6026C14.9432 36.5516 14.9432 36.5516 14.8412 36.5006C14.7902 36.4496 14.6882 36.4496 14.6372 36.3986C14.5352 36.3476 14.4332 36.3476 14.3312 36.2456C14.2802 36.2456 14.2802 36.1946 14.2292 36.1436C14.1782 36.0926 14.1782 36.0926 14.1782 36.0416C14.0762 35.9396 14.0252 35.8376 13.9232 35.8376C13.8212 35.8376 13.7192 35.8886 13.6682 35.9396L13.7702 35.8886L13.6682 35.8376C13.4642 35.7356 13.1582 35.8376 13.0052 36.0416C12.9542 36.0926 12.9032 36.1436 12.9032 36.1946H12.9542H13.0052H13.0562H13.1072H13.1582H13.2092H13.2602C13.2602 36.1946 13.3112 36.1946 13.3112 36.2456C13.3112 36.2456 13.3622 36.2456 13.3622 36.2966C13.3622 36.2966 13.3622 36.2966 13.4132 36.3476L13.4642 36.3986C13.4642 36.3986 13.4642 36.4496 13.5152 36.4496C13.5152 36.5006 13.5662 36.5516 13.5152 36.6026C13.5152 36.6536 13.4132 36.8066 13.3112 36.8066C13.2602 36.8066 13.2602 36.8066 13.2092 36.7556C13.1582 36.7046 13.0562 36.7046 13.0052 36.7046C12.8012 36.7046 12.5972 36.9086 12.5462 37.0616C12.5462 37.1126 12.4952 37.1636 12.4952 37.1636C12.7502 37.0616 13.0052 37.0616 13.2092 37.2656C13.4132 37.3676 13.4132 37.5716 13.4132 37.6736V37.7756L13.3112 37.8266C13.0052 37.9286 12.8012 38.0306 12.6992 38.4386C13.0052 38.2856 13.3112 38.2856 13.5662 38.2856H13.6172L13.6682 38.3366C13.8212 38.4896 14.0252 38.5406 14.1782 38.4386C14.3312 38.3366 14.4332 38.1836 14.5862 38.0816C14.7392 37.9286 14.7902 37.8266 14.8922 37.8266C14.9432 37.8266 14.9432 37.7756 14.9942 37.7756C15.0452 37.7756 15.0962 37.7756 15.1472 37.8776C15.1982 37.9796 15.1982 38.1326 15.1472 38.1836C15.0962 38.3366 14.9942 38.4386 14.8922 38.4896C14.9432 38.4896 14.9942 38.4896 15.0452 38.4896C15.2492 38.4896 15.3512 38.4896 15.4532 38.4386H15.5042C15.5552 38.4386 15.5552 38.3876 15.6062 38.3876C15.6572 38.3876 15.7082 38.3366 15.7082 38.3366H15.7592C15.8102 38.3366 15.8102 38.3876 15.8612 38.3876C15.9122 38.4386 15.9122 38.4896 15.8612 38.5406C15.8612 38.5916 15.8102 38.6426 15.8102 38.6426C16.0652 38.6426 16.1672 38.5916 16.2692 38.4386L16.3712 38.2856L16.4732 38.3876C16.5242 38.4386 16.5752 38.4896 16.5752 38.5406C16.6262 38.5916 16.6262 38.5916 16.6772 38.6426C16.7282 38.4896 16.7792 38.2856 16.9832 38.1836L17.1872 38.0816V38.2856C17.1872 38.3366 17.2382 38.5406 17.2892 38.6426C17.3402 38.5406 17.3402 38.4896 17.3912 38.4386C17.3912 38.4386 17.4932 38.2856 17.5952 38.2856C17.6972 38.2856 17.7482 38.3876 17.7992 38.4896C17.7992 38.5406 17.8502 38.5916 17.9012 38.6426C18.0032 38.4386 18.1562 38.2346 18.2072 38.1326L18.2582 38.0816H18.3092C18.3602 38.0816 18.4112 38.0816 18.4622 38.1326C18.6152 38.1836 18.8192 38.2346 18.9722 38.2346C18.8192 38.0306 18.7682 37.8776 18.7682 37.5716V37.5206V37.4696C18.8192 37.3166 18.9212 37.2146 19.0742 37.1636L19.1252 37.1126C19.1762 37.0616 19.2272 37.0106 19.2782 36.9596C19.4312 36.8066 19.4312 36.7556 19.4312 36.6026C19.3802 36.5006 19.2272 36.3986 19.1252 36.2966C19.0232 36.2456 18.9722 36.1946 18.9212 36.1436C18.6152 35.7866 18.8702 35.3276 18.8702 35.3276C18.8702 35.2766 18.9212 35.2766 18.9722 35.2256L19.0742 35.1746L19.1762 35.2256C19.4822 35.4806 19.7372 35.6336 20.0432 35.8376C20.2472 35.9906 20.5532 36.0926 20.8592 36.0926C20.9612 36.0926 21.0632 36.0926 21.1142 36.0926C21.2162 36.0926 21.3182 36.0926 21.4712 36.0926C22.0322 36.0926 22.6442 36.2456 22.6442 36.7556C22.6442 37.0616 22.2872 37.4696 21.9812 37.4696C21.9302 37.4696 21.9302 37.4696 21.8792 37.4696C21.7772 37.4186 21.7262 37.2656 21.6242 37.1636C21.5732 37.0106 21.5222 36.9596 21.4202 36.9086C21.3692 36.8576 21.2162 36.9596 21.1142 37.0616L21.0632 37.1126L21.0122 37.0616C20.5532 36.8576 20.2472 37.0106 19.9922 37.4186C20.0432 37.4186 20.1452 37.4186 20.1962 37.4186C20.4512 37.4186 20.7062 37.5206 20.8592 37.6736L20.9102 37.7246V37.7756C20.9102 37.8776 20.8592 37.8776 20.8082 37.9286C20.7572 37.9286 20.7062 37.9796 20.6042 38.1836H20.4002H20.3492C20.1452 38.2346 19.8392 38.5916 19.7882 38.9486C20.0432 38.7956 20.4002 38.6936 20.7572 38.6936H20.8082L20.8592 38.7446C20.9612 38.8466 20.9612 38.9996 20.9612 39.1016V39.1526L20.9102 39.2036C20.6552 39.3056 20.4512 39.3566 20.2472 39.4076C20.4002 39.5096 20.6552 39.6116 20.9102 39.6116C21.1142 39.6116 21.3182 39.5606 21.4202 39.4586L21.4712 39.4076H21.5222C21.7772 39.4586 21.9812 39.3566 22.0322 39.2036C22.0832 39.1016 22.0832 38.9486 22.0322 38.7956C21.9812 38.7446 21.9812 38.6936 22.0322 38.5916C22.0832 38.5406 22.1342 38.4896 22.1852 38.4896C22.1852 38.4896 22.2362 38.4896 22.2872 38.4896C22.3892 38.4896 22.4912 38.5406 22.5932 38.6426C22.6952 38.7956 22.7462 38.9996 22.7462 39.2036C22.8482 39.2036 22.9502 39.1016 23.0522 38.9486C23.0522 38.8976 23.1032 38.8976 23.1032 38.8466C23.1542 38.7446 23.1542 38.6936 23.1542 38.6426V38.5406H23.2562C23.5622 38.5406 23.7662 38.4896 24.1232 38.2856C24.0722 38.2856 24.0212 38.2346 23.9702 38.1836C23.9192 38.1326 23.8172 38.0816 23.9192 37.9286C23.9702 37.8776 24.0722 37.8266 24.2252 37.7246C24.2762 37.6736 24.3272 37.6736 24.3782 37.6226C24.3272 37.5716 24.2762 37.5206 24.2762 37.4696V37.4186C24.3272 37.3166 24.4292 37.2656 24.4802 37.2146L24.5312 37.1636C24.4292 37.1636 24.3782 37.1126 24.3782 37.0106H24.4802C24.4802 37.0106 24.5312 36.9596 24.6332 36.9086C24.7352 36.8576 24.8882 36.7046 24.9902 36.6026C24.8372 36.6026 24.7352 36.5516 24.6332 36.5006L24.5822 36.4496L24.6332 36.3986C24.6842 36.2966 24.7862 36.1946 24.8372 36.1436C24.7862 36.1436 24.7352 36.0926 24.6842 36.0926C24.6332 35.9906 24.6842 35.8886 24.7352 35.7356C24.7862 35.6336 24.8372 35.5826 24.8372 35.4806H24.7862C24.6842 35.5316 24.6332 35.4806 24.5822 35.4296C24.5312 35.3276 24.5822 35.2766 24.6332 35.1746C24.6332 35.1236 24.6842 35.0726 24.7352 35.0216C24.6332 35.0726 24.5312 35.1236 24.4292 35.1746C24.1742 35.2766 23.9192 35.3786 23.6132 35.3786C23.5622 35.3786 23.5112 35.3786 23.4602 35.3786H23.4092L23.3582 35.3276C23.3582 35.3276 23.3072 35.2766 23.3072 35.2256C23.2562 35.1236 23.1542 34.9196 22.8482 34.9196C22.7972 34.9196 22.7972 34.9196 22.7972 34.9706C22.5422 35.1236 22.1852 35.3276 21.8792 35.3276C21.7772 35.3276 21.7262 35.3276 21.6752 35.2766H21.6242H21.5732C21.5732 35.2766 21.5732 35.2766 21.5222 35.2256C21.3182 35.0726 21.2672 34.8176 21.2162 34.5626C21.2162 34.5116 21.2162 34.5116 21.1652 34.4606C21.1142 34.3586 21.0632 34.0526 21.0632 34.0016C20.9612 33.8486 20.8082 33.7466 20.6552 33.6446C20.4002 33.4406 20.0942 33.2366 19.9412 32.8796V32.8286L19.8902 32.4716L20.9612 32.6246H21.1142L21.8282 32.5736L22.2872 32.4716L22.6952 32.2676L22.9502 32.0636L23.1542 31.7576V31.7066C23.1542 31.7066 23.1542 31.7066 23.1542 31.6556V31.6046V31.5536L23.2052 31.4006C23.2052 31.4006 23.2052 31.4006 23.2052 31.3496C23.2052 31.3496 23.2052 31.3496 23.2052 31.2986V31.2476V31.1966L23.2562 30.8396V30.6356V30.5846C23.2562 30.5336 23.2562 30.4316 23.3582 30.4316L23.4602 30.3806C23.5112 30.3806 23.5112 30.3296 23.5622 30.3296L23.6642 30.2786L23.7152 30.2276C23.7152 30.2276 23.7662 30.2276 23.7662 30.1766L23.8172 30.1256C23.8172 30.1256 23.8172 30.1256 23.8682 30.0746L23.9192 30.0236C23.9192 30.0236 23.9192 30.0236 23.9192 29.9726L24.0212 30.0236L23.9702 30.1766C23.9702 30.1766 23.9702 30.1766 23.9702 30.1256C23.9702 30.1256 23.9702 30.1256 23.9702 30.0746C23.9702 30.0236 24.0212 30.0236 24.0212 29.9726V29.9216C24.0212 29.9216 24.0212 29.9216 24.0212 29.8706V29.8196C24.0212 29.7686 24.0212 29.7686 24.0212 29.7686V29.7176V29.6666V29.6156V29.5646C24.0212 29.5136 24.0212 29.4626 24.0212 29.4116V29.3606V29.3096C24.0212 29.2586 24.0212 29.2586 24.0212 29.2586V29.2076V29.1566C24.0212 29.1566 24.0212 29.1566 23.9702 29.2076C23.8172 29.3096 23.6642 29.4626 23.5112 29.4626C23.2562 29.4626 23.1032 29.2586 22.9502 28.7486C22.8992 28.8506 22.7972 28.9526 22.6442 28.9526C22.6442 28.9526 22.6442 28.9526 22.5932 28.9526C22.3892 28.9016 22.2362 28.6466 22.1342 28.4426C22.0832 28.3916 22.0322 28.2896 21.9812 28.2386V28.3406C21.9812 28.3406 21.9812 28.3406 21.9812 28.3916V28.4426C21.9812 28.4426 21.9812 28.4426 21.9812 28.4936C21.9812 28.4936 21.9812 28.4936 21.9302 28.4936C21.9302 28.4936 21.9302 28.4936 21.8792 28.4936C21.8792 28.4936 21.8792 28.4936 21.8282 28.4936C21.7772 28.4936 21.7772 28.4936 21.7772 28.4936H21.7262C21.7262 28.4936 21.7262 28.4936 21.6752 28.4936L21.4202 28.3406H21.3692L21.4202 28.2386V28.3406L21.2162 28.2386C21.2162 28.3406 21.2162 28.4426 21.1142 28.5446L21.0632 28.5956H21.0122C20.9612 28.5956 20.8592 28.5956 20.8082 28.5956C20.5532 28.5956 20.3492 28.5446 20.1962 28.4426V28.4936C20.1962 28.5446 20.1962 28.5956 20.1452 28.6466C20.0942 28.6976 19.9922 28.6976 19.9412 28.6976C19.9922 28.7996 20.0432 28.9526 19.9922 29.1056C19.9922 29.1566 19.9922 29.1566 19.9412 29.2076C19.9412 29.2076 19.9412 29.2076 19.8902 29.2586L19.7372 29.3606L19.6352 29.4116C19.6352 29.4116 19.6352 29.4116 19.5842 29.4116C19.5842 29.4116 19.5842 29.4116 19.5332 29.4116H19.4822H19.4312H19.2782C19.2782 29.4116 19.2782 29.4116 19.2272 29.4116H19.1762H19.1252C19.1252 29.4116 19.1252 29.4116 19.0742 29.4116L19.0232 29.3606C19.0232 29.3606 19.0232 29.3606 19.0232 29.3096C19.0232 29.2586 18.9722 29.2076 19.0232 29.1566C19.0742 29.0546 19.2272 29.0036 19.3802 29.0036C19.3292 28.9016 19.2272 28.7486 19.3292 28.4936C19.3802 28.3406 19.5842 28.1876 19.8392 28.0856C20.1962 27.8816 20.5532 27.6776 20.6042 27.4226C20.5532 27.4226 20.4512 27.4736 20.4002 27.4736C20.2472 27.5246 20.0942 27.5756 19.9412 27.5756C19.8392 27.5756 19.7372 27.5246 19.6352 27.4736C19.5842 27.4226 19.5332 27.3206 19.5332 27.2696C19.1252 27.5756 18.6662 27.6776 18.3092 27.6266C18.1052 27.5756 17.9522 27.4226 17.7992 27.2186C17.5952 27.0146 17.3402 26.8106 17.0342 26.7086V27.1166H16.8302C16.6262 27.1166 16.3712 27.1166 16.2182 27.1676C16.4732 27.2186 16.6772 27.2696 16.7792 27.6266C16.8812 27.9326 16.5752 28.1366 16.2182 28.3406C15.9632 28.4936 15.6572 28.6466 15.4532 28.9016L15.4022 29.0036L15.3002 28.6976C15.1982 28.6466 15.0962 28.5446 14.9942 28.4426C14.9432 28.3916 14.8922 28.3406 14.8412 28.2896H14.5862L14.7392 28.0856C14.8922 27.9326 14.9432 27.7796 14.9432 27.6266C14.9432 27.4736 14.8922 27.3206 14.8412 27.2696C14.8412 27.2186 14.7902 27.2186 14.7902 27.1676C14.6882 27.2186 14.5352 27.2696 14.3822 27.2696C14.1272 27.2696 13.9742 27.2186 13.9232 27.0656C13.9232 27.0146 13.9232 26.9636 13.9232 26.9126C13.8722 26.9126 13.8722 26.9126 13.8212 26.9126H13.7702C13.4132 26.9126 12.9542 26.9126 12.6482 27.1166L12.5462 27.1676L12.4952 27.0656C12.2402 26.7596 11.8832 26.5046 11.5262 26.4536H11.4752L11.4242 26.4026C11.4242 26.4026 11.4242 26.4026 11.3732 26.3516C11.2712 26.5556 11.1182 26.6576 10.8632 26.6576V26.7086C10.8632 26.7596 10.9142 26.8106 10.9142 26.8616V27.0146L10.7612 26.9636C10.7612 26.9636 10.6082 26.9126 10.4552 26.9126C10.3532 26.9126 10.2512 26.9126 10.1492 26.9636C10.0982 26.9636 10.0472 26.9636 9.9962 26.9636C9.9962 26.9636 9.9962 27.0146 9.9962 27.0656C9.9452 27.3206 9.6902 27.4736 9.5372 27.5756C9.5372 27.5756 9.5372 27.5756 9.4862 27.5756C9.5372 27.6266 9.5882 27.6776 9.6392 27.7796C9.6902 27.8816 9.5882 28.0346 9.2822 28.2896C9.3332 28.2896 9.3842 28.3406 9.4352 28.3406C9.5882 28.4426 9.5882 28.5446 9.5882 28.5446C9.5372 28.6466 9.4352 28.7486 9.3842 28.8506C9.2822 28.9526 9.2312 29.0036 9.1802 29.1056C9.2312 29.1056 9.2822 29.1056 9.3332 29.1566L9.4862 29.2076L9.3842 29.3096L9.3332 29.3606C9.1802 29.5646 9.0782 29.8196 8.9762 30.1256H9.0782V30.2276C9.0782 30.4316 9.0272 30.5846 8.9252 30.7376C8.8742 30.7886 8.8742 30.7886 8.8232 30.7886C8.6192 30.7886 8.4152 30.4316 8.3132 30.2276C8.2112 30.0746 8.0582 29.6666 8.0582 29.2586C8.0582 28.2896 8.2112 28.0856 8.3132 27.9836C8.3642 27.9326 8.3642 27.9326 8.3642 27.8816C8.3642 27.7796 8.3132 27.7286 8.2112 27.6776C8.1092 27.6266 8.0072 27.5756 7.9562 27.4736C7.8032 27.2186 7.5482 27.1166 7.2422 27.1166C7.1912 27.1166 7.0892 27.1166 7.0382 27.1676C7.1402 27.2186 7.2422 27.2696 7.3442 27.4736C7.3952 27.6266 7.3442 27.7286 7.2932 27.7286V27.7796V27.8816H7.1912C7.1402 27.8816 7.1402 27.8816 7.0892 27.8816C6.9872 27.8816 6.9362 27.8816 6.8342 27.8306C6.6302 27.9836 6.3752 27.8306 6.1202 27.8306C6.0182 27.8306 5.9162 27.8816 5.8142 27.9326L5.9162 27.9836C5.9162 27.9836 5.9162 27.9836 5.9672 27.9836C5.9672 27.9836 5.9672 27.9836 6.0182 27.9836H6.0692L6.1712 28.0346C6.1712 28.0346 6.1712 28.0346 6.2222 28.0346C6.2222 28.0346 6.2222 28.0346 6.2732 28.0856C6.2732 28.0856 6.2732 28.0856 6.2732 28.1366V28.1876C6.2732 28.1876 6.2732 28.1876 6.2732 28.2386C6.2732 28.2386 6.2732 28.2386 6.2732 28.2896C6.2732 28.2896 6.2732 28.2896 6.2732 28.3406C6.2732 28.3406 6.2732 28.3406 6.2732 28.3916C6.2732 28.3916 6.2732 28.3916 6.2732 28.4426V28.4936V28.5446V28.5956C6.2732 28.6466 6.2732 28.6466 6.2732 28.6976V28.8506H6.2222H6.1202H6.0692L5.9672 28.7996H5.9162L5.8652 28.7486L5.9162 28.6466L5.8142 28.7486L5.8652 28.6466L5.7632 28.7486C5.7632 28.7996 5.7632 28.7996 5.7632 28.8506V28.9016C5.7632 29.1056 5.8142 29.3606 6.0182 29.4116C6.0182 29.4116 6.0182 29.4116 6.0692 29.4116C6.0692 29.4116 6.0692 29.4116 6.1202 29.4116C6.2732 29.4116 6.3242 29.5646 6.3242 29.6156C6.3242 29.6666 6.3242 29.6666 6.3752 29.6666C6.3752 29.6666 6.3752 29.6666 6.4262 29.6666C6.4772 29.6666 6.4772 29.6666 6.4772 29.6666C6.4772 29.6666 6.4772 29.6666 6.5282 29.6666H6.6812H6.7322C6.7832 29.6666 6.8342 29.6666 6.8852 29.7176C6.8852 29.7176 6.8852 29.7686 6.9362 29.7686C6.9362 29.7686 6.9362 29.7686 6.9362 29.8196C6.9362 29.8196 6.9362 29.8196 6.9362 29.8706C6.9362 29.8706 6.9362 29.8706 6.9362 29.9216C6.9362 29.9216 6.9362 29.9216 6.9362 29.9726C6.9362 29.9726 6.9362 29.9726 6.9362 30.0236L6.8852 30.0746H6.8342H6.7832H6.7322H6.6812H6.6302C6.6302 30.0746 6.6302 30.0746 6.5792 30.0746H6.5282V29.9726L6.4772 30.0746C6.4772 30.1256 6.4772 30.1766 6.5282 30.2276C6.6302 30.3296 6.7322 30.3806 6.8852 30.3806H6.9362C7.0382 30.3806 7.0892 30.4316 7.1402 30.5336C7.1912 30.6356 7.1402 30.7886 7.0892 30.8396C6.9872 30.8906 6.8852 30.9416 6.7832 30.9926C6.5792 31.0946 6.4262 31.1966 6.3242 31.2986C6.5282 31.2986 6.5792 31.4006 6.5792 31.5026C6.5792 31.6556 6.5282 31.7576 6.4262 31.8596C6.5282 31.8596 6.5792 31.9106 6.6302 31.9616C6.7322 32.1146 6.5792 32.2676 6.4772 32.3696C6.4262 32.4206 6.3752 32.4716 6.3242 32.5736C6.3752 32.5736 6.4262 32.5736 6.4772 32.5736C6.7322 32.5736 6.8852 32.6756 6.9362 32.9306C6.9362 33.0326 6.8852 33.1856 6.8342 33.2876C6.8852 33.2876 6.9362 33.2876 6.9872 33.2876C7.1402 33.2876 7.1912 33.3386 7.1912 33.3896C7.2932 33.4916 7.1402 33.5936 7.0382 33.6956C6.9872 33.7466 6.9362 33.7976 6.8852 33.8486C6.9872 33.8486 7.0892 33.8486 7.2422 33.8486H7.2932V33.8996C7.3442 34.0016 7.3442 34.1036 7.2932 34.1546C7.2422 34.2566 7.0892 34.3586 6.9362 34.4096C7.0382 34.4606 7.1912 34.4606 7.3442 34.4606C7.5992 34.4606 7.9052 34.4096 8.0582 34.3076L8.2112 34.2566L8.2622 34.4096C8.3642 34.7666 8.6702 34.8686 8.9252 34.9196C9.0272 34.9706 9.1292 34.9706 9.1292 35.0726V35.1236L9.0782 35.1746C8.8742 35.3276 8.7212 35.6846 8.7722 35.8376C8.8232 36.1946 8.7212 36.5006 8.5172 36.7556C8.3132 36.9596 8.0582 37.0616 7.7522 37.0616C7.3442 37.0616 6.8852 37.0106 6.7322 36.5516C6.6302 36.2966 6.4772 36.2456 6.2732 36.3986L6.1202 36.5006L6.0692 36.4496C6.0182 36.3986 5.9672 36.3986 5.8652 36.3986C5.6612 36.3986 5.40619 36.5516 5.25319 36.7046C5.5082 36.7556 5.7632 36.8576 5.8652 37.0616C5.9162 37.1636 5.9162 37.3166 5.7122 37.5206L5.6612 37.5716H5.6102C5.30419 37.5716 5.10019 37.7246 5.04919 38.0306C5.20219 37.9796 5.35519 37.9796 5.5082 37.9796C5.9672 37.9796 6.0692 38.1836 6.0692 38.2856C6.1202 38.5406 5.8142 38.8466 5.4062 38.9996C5.5592 39.1016 5.7122 39.1526 5.8652 39.1526C6.0182 39.1526 6.1712 39.1016 6.3752 38.9996C6.4262 38.9996 6.4772 38.9486 6.5282 38.9486C6.6302 38.8976 6.7322 38.8976 6.7832 38.9486H6.8342C6.9872 38.9996 7.0382 38.9486 7.0892 38.7446C7.1402 38.6426 7.1402 38.5916 7.2422 38.5406C7.2932 38.4896 7.3442 38.4896 7.3952 38.4896C7.4462 38.4896 7.4972 38.4896 7.5482 38.5406C7.5992 38.5916 7.6502 38.6426 7.6502 38.6426V38.6936C7.6502 38.7446 7.6502 38.7446 7.6502 38.7446V38.7956V38.8466V38.8976V38.9486L7.7012 39.0506V38.9486L7.7522 39.0506V38.9486L7.8032 39.0506L7.6502 39.1016H7.7012L7.7522 39.2036L7.7012 39.0506H7.8032ZM16.1672 28.9526C16.3712 28.6976 16.6772 28.5446 16.9832 28.5446C17.0852 28.5446 17.1872 28.5446 17.2892 28.5956C17.4932 28.6976 17.6462 28.9016 17.7992 29.0546C18.0032 29.2586 18.1562 29.4116 18.4112 29.5646L18.4622 29.6156V29.6666C18.4622 29.7176 18.4622 29.8196 17.8502 30.0236C17.6972 30.0746 17.2382 30.1766 16.9832 30.1766C16.3202 30.1766 16.0142 29.9216 16.0142 29.4116C15.9632 29.3096 16.0142 29.1056 16.1672 28.9526ZM15.0452 30.3296L15.2492 30.0746L15.3002 30.2276C15.5042 30.6356 15.9122 30.8396 16.4732 30.8396C16.6262 30.8396 16.8302 30.8396 17.0342 30.7886C17.5952 30.6866 18.2582 30.5336 18.8702 30.3806C19.7372 30.1256 20.6042 29.9216 21.2672 29.9216C21.7262 29.9216 22.6952 30.1256 22.6952 30.7886C22.6952 31.1966 22.5422 31.4516 22.2362 31.7066C21.7262 32.0636 20.4002 32.0636 20.4002 32.0636C20.0942 32.0636 19.2782 32.0636 18.9212 31.7576C18.7172 31.6046 18.6662 31.6046 18.6662 31.6046C18.4622 31.5536 18.3092 31.5026 18.1052 31.5026C17.6462 31.5026 17.1362 31.6556 16.6262 31.7576C16.1672 31.8596 15.7082 32.0126 15.3002 32.0126C15.2492 32.0126 15.1982 32.0126 15.1982 31.9616C15.0962 31.7066 14.9942 30.6356 15.0452 30.3296Z" fill="#D1C253"/>
<path fill-rule="evenodd" clip-rule="evenodd" d="M25.2452 36.45C25.0922 36.45 24.8372 36.501 24.7352 36.399C24.8882 36.144 25.0412 36.195 25.0412 36.093C24.9902 35.991 24.8372 35.991 24.7862 35.94C24.7352 35.838 24.9902 35.583 24.9392 35.328C24.8882 35.277 24.8372 35.328 24.7352 35.328C24.5312 35.379 24.9902 34.971 24.7862 34.818C24.3272 34.971 24.0212 35.277 23.4602 35.226C23.4092 35.175 23.3582 34.818 22.8992 34.767C22.8482 34.767 22.7972 34.767 22.7462 34.818C22.4402 35.022 21.9302 35.277 21.7262 35.073C21.5732 34.971 21.4712 34.665 21.4202 34.41C21.3692 34.257 21.3182 33.9 21.2672 33.798C21.0122 33.39 20.2982 33.237 20.0942 32.625C21.2672 32.88 23.5622 32.88 23.5112 30.738C23.5112 30.687 23.5112 30.687 23.5622 30.636C23.7662 30.534 24.4292 30.228 24.2762 29.463C24.2762 29.463 24.2762 29.361 24.2762 29.31C24.2762 29.157 24.2762 29.004 24.3782 28.851C24.4292 28.8 24.4802 28.749 24.4802 28.749C24.1742 28.494 23.6132 29.973 23.2562 28.392C23.2562 28.341 23.2052 28.239 23.1032 28.29C23.1032 28.443 22.9502 28.647 22.8482 28.596C22.5422 28.494 22.2362 27.729 21.9812 27.78C22.0322 28.086 22.1342 28.341 21.9302 28.341H21.8792C21.6242 28.29 21.4202 28.035 21.1652 27.984C21.1142 28.137 21.2162 28.239 21.1142 28.341C20.6552 28.392 20.4002 28.239 20.1452 28.137C20.1452 28.188 20.1962 28.239 20.1962 28.341C20.1962 28.392 20.1962 28.392 20.1962 28.392C20.0942 28.494 19.8902 28.392 19.8392 28.392C19.8392 28.494 20.0942 28.596 19.9922 28.902C19.9412 29.004 19.9412 29.004 19.9412 29.055C19.7882 29.208 19.2782 29.361 19.1252 29.004C19.0742 28.851 19.5332 28.851 19.5842 28.8C19.5332 28.698 19.3292 28.596 19.4312 28.29C19.4822 27.984 20.8082 27.729 20.7572 27.015C20.5022 26.964 19.6352 27.525 19.6862 26.76C19.6352 26.76 19.5842 26.76 19.5842 26.811C19.2782 27.066 18.8192 27.27 18.3602 27.219C17.9522 27.117 17.6462 26.403 16.9322 26.25V26.811C16.4732 26.811 16.0652 26.811 16.0142 27.066C16.4222 27.066 16.6772 27.066 16.8302 27.423C16.9322 27.831 16.0142 27.984 15.5042 28.596C15.3512 28.494 15.0962 28.137 15.0452 28.137C15.1982 27.984 15.3002 27.78 15.3002 27.627C15.3002 27.474 15.2492 27.321 15.1982 27.168C15.1472 27.066 15.1472 27.015 15.0452 26.964C14.7392 27.168 13.9742 27.066 14.3312 26.76C14.2802 26.76 14.1782 26.709 14.0252 26.76C13.6172 26.76 13.1582 26.76 12.8522 27.015C12.5972 26.709 12.1892 26.454 11.7812 26.403C11.7302 26.352 11.6282 26.301 11.5772 26.301C11.5262 26.607 11.3222 26.658 10.9651 26.607C10.9651 26.709 11.0161 26.862 11.0161 26.913C11.0161 26.913 10.7101 26.76 10.3021 26.913C10.0981 26.913 9.89415 26.862 9.84315 26.862C9.84315 26.913 10.0471 27.066 10.0471 27.117C9.99615 27.423 9.58815 27.525 9.43515 27.627C9.58815 27.729 9.63915 27.729 9.69015 27.882C9.74115 27.933 9.28215 28.341 9.23115 28.392C9.38415 28.443 9.63915 28.494 9.63915 28.596C9.48615 28.851 9.18015 29.055 9.18015 29.361C9.23115 29.361 9.33315 29.31 9.43515 29.361C9.23115 29.616 9.12915 29.871 9.02715 30.228C8.97615 30.279 9.02715 30.33 9.07815 30.33C9.12915 30.33 9.12915 30.33 9.12915 30.33C9.12915 30.534 9.07815 30.636 9.02715 30.789C8.87415 30.891 8.36415 30.024 8.36415 29.412C8.36415 28.086 8.61915 28.341 8.61915 28.086C8.61915 27.78 8.31315 27.831 8.16015 27.627C7.90515 27.168 7.19115 27.066 6.83415 27.372C7.03815 27.423 7.14015 27.423 7.29315 27.678C7.34415 27.831 7.24215 27.831 7.24215 27.933C7.14015 27.933 7.03815 27.984 6.98715 27.933C6.73215 27.729 6.12014 27.474 5.71214 27.933C6.01814 27.984 6.32415 28.188 6.42615 28.494C6.42615 28.545 6.42615 28.545 6.42615 28.596C6.27315 28.902 5.86514 28.392 5.86514 28.392C5.66114 28.647 5.66114 29.208 6.06914 29.412H6.17115C6.32415 29.412 6.22214 29.565 6.32414 29.616L6.42615 29.667C6.52815 29.667 6.68115 29.667 6.78315 29.667C6.83415 29.667 6.88515 29.667 6.88515 29.718C6.93615 29.769 6.93615 29.82 6.88515 29.871C6.88515 29.871 6.83415 29.922 6.78315 29.922C6.68115 29.973 6.52815 29.922 6.42615 29.922C6.42615 29.922 6.37515 30.177 6.52815 30.279C6.63015 30.432 6.83415 30.483 7.03815 30.483C7.19115 30.483 7.19115 30.687 7.08915 30.738C6.68115 30.993 6.37515 31.044 6.17115 31.503C6.37515 31.452 6.57915 31.452 6.57915 31.554C6.57915 31.758 6.42614 31.809 6.32414 31.962C6.32414 31.962 6.27315 31.962 6.27315 32.013C6.42615 32.064 6.57915 31.962 6.68115 32.064C6.78315 32.166 6.22215 32.523 6.27315 32.778C6.52815 32.727 6.88515 32.676 6.93615 32.982C6.93615 33.186 6.78315 33.339 6.63015 33.492C6.88515 33.492 7.14015 33.39 7.24215 33.492C7.29315 33.543 6.83415 33.798 6.83415 34.053C7.03815 34.002 7.14015 33.951 7.34415 34.002C7.49715 34.257 6.88515 34.461 6.83415 34.461C7.03815 34.767 7.90515 34.716 8.26215 34.512C8.41515 35.073 9.12915 35.073 9.12915 35.124C8.92515 35.328 8.72115 35.685 8.82315 35.889C8.67015 36.501 8.36415 37.011 7.70115 37.011C7.29315 37.011 6.93615 36.96 6.78315 36.552C6.63015 36.195 6.37515 36.195 6.12014 36.348C5.71214 36.144 5.20214 36.501 5.04914 36.858C5.30414 36.807 6.12015 37.062 5.66114 37.47C5.35514 37.47 4.99814 37.674 4.94714 38.235C6.37514 37.878 6.22214 38.745 5.20214 39C5.76314 39.51 6.06914 39.306 6.57915 39.102C6.68115 39.051 6.73215 39.102 6.78315 39.102C7.19115 39.255 7.19115 38.745 7.29315 38.694C7.34415 38.643 7.44615 38.643 7.44615 38.694L7.49715 38.745C7.59915 39 7.34415 39.153 7.49715 39.204C7.90515 39.255 8.26215 38.694 8.26215 38.286C8.26215 38.235 8.31315 38.184 8.31315 38.133C8.36415 38.031 8.46615 37.929 8.56815 37.929C8.82315 37.878 9.07815 38.388 10.1491 38.082C10.1491 38.031 9.99615 37.878 10.0981 37.827C10.3021 37.776 10.5061 37.725 10.6591 37.623C10.8631 37.419 11.1691 37.521 11.3731 37.317C11.3221 37.317 11.1691 37.266 11.1691 37.215C11.2201 37.164 11.6282 37.164 11.5772 37.011C11.5772 37.011 11.5262 37.011 11.4241 36.96C11.2712 36.909 12.3422 36.45 12.3422 36.348C12.2912 36.348 11.9342 35.991 12.0872 35.889C12.2912 35.838 12.5462 35.736 12.6992 35.583C12.9032 35.532 14.2292 35.124 14.7392 34.971C14.7392 35.43 14.7902 35.634 14.9942 35.787C15.1472 35.889 15.3002 35.991 15.5552 36.042C15.9632 36.093 16.3712 35.991 16.8302 36.042C17.2382 36.042 17.2382 36.603 16.7792 36.756C16.5242 36.807 16.2692 36.807 15.9632 36.807C15.5042 36.756 15.4022 36.603 15.2492 36.399C15.1982 36.348 15.1982 36.348 15.0452 36.246C14.8412 36.144 14.7392 36.144 14.5352 36.042C14.3822 35.94 14.3312 35.634 14.0762 35.634C13.9232 35.634 13.8212 35.685 13.7702 35.736C13.3622 35.481 12.6992 35.94 12.8012 36.348C12.9542 36.246 13.2602 36.246 13.4132 36.552C13.4132 36.552 13.4132 36.603 13.4132 36.654C13.4132 36.705 13.3622 36.807 13.3112 36.756C12.6992 36.45 12.2402 37.266 12.4442 37.47C12.6482 37.317 12.9032 37.266 13.1582 37.47C13.2602 37.521 13.2602 37.623 13.2602 37.776C12.8522 37.878 12.6482 38.031 12.5462 38.694C12.5462 38.796 12.5972 38.745 12.5972 38.745C12.9032 38.49 13.2602 38.49 13.5662 38.49C13.7702 38.694 14.0252 38.745 14.2292 38.592C14.4842 38.388 14.7392 38.031 14.8922 37.98C14.9432 37.98 14.9942 37.929 15.0452 37.98C15.0962 38.031 15.0452 38.184 15.0452 38.184C14.9942 38.337 14.8412 38.439 14.7392 38.541C14.7392 38.592 14.8412 38.694 15.0452 38.694C15.3002 38.694 15.4532 38.694 15.6572 38.541C15.7082 38.49 15.7082 38.541 15.7082 38.541C15.7082 38.541 15.7592 38.541 15.7082 38.592C15.7082 38.694 15.5552 38.847 15.6062 38.847C15.9122 38.898 16.2182 38.847 16.3202 38.592C16.4732 38.745 16.5242 38.898 16.7282 39C16.7282 38.796 16.7792 38.541 16.9832 38.439C16.9832 38.541 17.1872 39.051 17.2892 38.949C17.2892 38.898 17.3402 38.745 17.4422 38.643C17.4422 38.592 17.4932 38.592 17.5442 38.592C17.5952 38.592 17.7482 39.051 17.9012 39C17.9522 38.796 18.1562 38.49 18.2072 38.439C18.4622 38.49 18.8702 38.643 19.1252 38.541C18.9212 38.133 18.8702 38.031 18.8702 37.725C18.8702 37.47 19.1762 37.419 19.3292 37.215C19.4822 37.011 19.5332 36.96 19.5332 36.756C19.4822 36.501 19.1252 36.348 18.9212 36.195C18.6662 35.94 18.8702 35.532 18.8702 35.481C18.8702 35.43 18.8702 35.43 18.9212 35.43C19.2272 35.685 19.5332 35.889 19.7882 36.042C20.0942 36.297 20.5532 36.348 20.9612 36.297C21.4202 36.246 22.3382 36.297 22.3382 36.807C22.3382 37.062 22.0322 37.419 21.7262 37.368C21.5222 37.215 21.5222 36.858 21.2672 36.807C21.1142 36.756 20.9612 36.858 20.8082 37.011C20.3492 36.807 19.8902 36.909 19.5332 37.521C19.5332 37.623 19.6862 37.572 19.7372 37.572C19.9922 37.521 20.3492 37.572 20.5022 37.776C20.5022 37.827 20.4512 37.776 20.2472 38.082C19.9412 38.133 19.5842 38.643 19.5842 39.102C19.5842 39.153 19.5842 39.153 19.6352 39.153C19.9412 38.949 20.2982 38.847 20.7062 38.847C20.7572 38.898 20.7572 39.051 20.7572 39.102C20.5022 39.204 20.2472 39.306 19.9922 39.306C19.9412 39.306 19.9412 39.408 19.9922 39.408C20.4002 39.765 21.1652 39.765 21.4202 39.51C22.0322 39.561 22.2872 39.153 22.0832 38.745C22.0322 38.694 22.0832 38.643 22.1342 38.643C22.4402 38.592 22.5932 39 22.5422 39.357C22.8992 39.459 23.2052 39 23.2562 38.745C23.6642 38.745 23.9192 38.694 24.3782 38.286C24.2762 38.286 24.1232 38.235 24.0212 38.184C23.9702 38.133 23.9192 38.133 23.9702 38.082C24.0212 37.98 24.3782 37.827 24.5312 37.725C24.5312 37.674 24.3782 37.572 24.3782 37.521C24.4292 37.419 24.7862 37.317 24.7862 37.164C24.7862 37.164 24.5312 37.164 24.5312 37.113C24.6842 37.011 25.1432 36.705 25.2452 36.45ZM6.12014 29.208C6.12014 29.259 6.06914 29.259 6.12014 29.208C5.91614 29.259 5.71214 28.8 5.76314 28.749C5.81414 28.749 5.81414 28.953 6.17115 29.004C6.17115 29.055 6.12014 29.157 6.12014 29.208ZM5.71214 37.929C5.71214 37.929 5.66114 37.929 5.71214 37.929C5.50814 37.878 5.40614 37.929 5.20214 38.031C5.25314 37.776 5.66114 37.623 5.71214 37.725V37.929ZM13.2092 37.215C13.2092 37.266 13.1582 37.266 13.1072 37.215L13.0052 37.164C12.8522 37.113 12.6992 37.113 12.5972 37.164C12.6482 36.96 13.0052 36.858 13.2092 36.909C13.2602 36.96 13.1582 36.96 13.2092 37.215ZM13.3622 38.286C13.0562 38.286 12.9542 38.337 12.8012 38.439C12.8012 38.337 13.1582 38.031 13.3622 38.031C13.4132 38.031 13.4132 38.031 13.4132 38.082C13.4132 38.184 13.4132 38.184 13.4642 38.286H13.3622ZM19.9412 38.796C19.9412 38.694 20.1452 38.286 20.3492 38.286C20.3492 38.439 20.4002 38.541 20.5022 38.694C20.5022 38.745 20.0432 38.745 19.9412 38.796ZM15.7592 28.545C16.1672 28.188 16.8812 27.984 16.8812 27.576C16.9322 27.066 16.4222 27.015 16.3712 27.015C16.5752 26.913 17.0342 27.066 17.1362 27.321C17.1872 27.372 17.1872 26.862 17.0852 26.607C17.0852 26.607 17.1362 26.607 17.2382 26.658C17.7482 27.015 17.7482 27.525 17.5442 27.882C17.5442 27.933 17.6462 28.035 17.6972 27.933C17.9522 27.423 18.5642 27.474 19.0232 27.321H19.0742C19.1252 27.321 19.1252 27.372 19.1252 27.372C19.0232 27.423 18.9212 27.525 18.8702 27.627C18.8702 27.627 18.8702 27.627 18.8702 27.678C18.8702 27.729 18.9212 27.729 19.0232 27.729C19.8902 27.729 20.3492 27.372 20.4002 27.423C20.4002 27.474 20.2472 27.78 19.0232 28.137C18.7682 28.545 19.2272 28.851 19.1762 28.902C18.8702 28.953 18.6662 28.749 18.6662 28.443C18.6662 28.392 18.6662 28.392 18.6152 28.392C18.6152 28.392 18.5642 28.392 18.5642 28.443C18.2582 28.902 18.8702 29.514 19.3292 29.616C19.3292 29.616 19.3292 29.616 19.3292 29.667C19.3292 29.667 19.2272 29.667 19.1252 29.667C17.7992 29.412 18.0542 28.392 16.9322 28.443C16.8812 28.443 16.8302 28.443 16.7282 28.494C16.4222 28.596 15.9122 28.953 15.8102 29.361C15.7592 29.718 16.0142 30.177 16.3202 30.33C17.2382 30.585 17.9522 30.126 18.7682 29.82C19.1762 29.922 19.5332 29.871 19.7372 29.667C19.7372 29.667 19.4822 29.616 19.4312 29.463H19.5332C19.9412 29.412 20.1452 29.259 20.0942 28.749C20.4002 28.749 20.7572 29.157 20.8082 29.259C21.0122 29.259 20.7062 28.698 20.6042 28.545C21.0122 28.647 21.3182 28.749 21.5222 29.157C21.7262 29.157 21.3692 28.341 21.4712 28.392C22.1342 28.698 22.0832 29.31 22.1342 29.208C22.3382 28.953 22.1852 28.698 22.2872 28.494C22.6952 28.698 23.0012 28.902 22.8482 29.31C22.8482 29.361 22.8482 29.361 22.8482 29.361C22.8482 29.412 22.8992 29.412 22.8992 29.412C23.0522 29.412 23.2052 29.004 23.2052 28.953C23.4092 29.208 23.5112 29.514 23.4092 29.769C23.4092 29.82 23.3582 29.82 23.3582 29.871V29.922C23.4092 29.973 23.4602 29.922 23.5112 29.922C23.8172 29.718 23.7662 29.361 23.9702 29.208C24.1742 29.871 24.0212 30.279 23.4092 30.432C23.3072 30.483 23.2562 30.534 23.2562 30.534C23.3072 30.84 23.2562 31.146 23.1032 31.452C22.8992 31.962 22.4912 32.166 22.0322 32.319C21.3692 32.574 20.0432 32.523 19.5332 32.115C19.4312 32.064 19.4312 32.013 19.3292 31.911C20.1962 32.166 22.4402 32.268 22.7972 31.095C23.1032 30.279 22.3382 29.718 21.6752 29.616C20.2982 29.514 19.1252 30.075 17.4422 30.585C16.6772 30.789 15.2492 30.738 15.2492 29.616C15.2492 29.259 15.4022 28.851 15.7592 28.545ZM18.3602 29.667C18.3602 29.718 17.3912 30.075 16.9832 30.075C16.2692 30.075 16.1162 29.769 16.1162 29.463C16.0652 29.055 16.7792 28.494 17.2382 28.749C17.5952 29.004 17.9012 29.463 18.3602 29.667ZM15.1982 30.33L15.2492 30.279C15.5552 30.993 16.3712 31.044 17.0852 30.891C18.4112 30.687 20.1962 30.024 21.3182 30.024C21.7262 30.024 22.6442 30.228 22.6442 30.789C22.6442 31.146 22.4912 31.35 22.2362 31.605C21.8282 31.86 20.8592 31.911 20.4512 31.911C20.1452 31.911 19.3802 31.911 19.0232 31.656C18.9722 31.605 18.8192 31.503 18.7682 31.452C18.5642 31.401 18.4112 31.35 18.1562 31.35C17.2382 31.35 16.1672 31.86 15.4022 31.86C15.2492 31.86 15.1472 30.738 15.1982 30.33ZM15.1472 29.82C15.1472 29.871 15.1472 29.871 15.0962 29.871C15.0452 29.871 14.8922 29.82 14.8412 29.565C14.7902 29.31 14.5352 29.106 14.2292 29.055C14.2802 28.953 14.2292 28.8 14.2292 28.698C14.4332 28.647 14.6372 28.647 14.7392 28.749C14.9432 28.902 14.7902 29.208 15.0452 29.718C15.0452 29.769 15.1472 29.769 15.1472 29.82ZM12.6992 33.441C12.3932 33.186 12.2912 33.084 12.1892 32.727C12.1382 32.166 12.3932 31.605 12.1382 30.993C12.1382 30.942 11.9852 30.789 12.1382 30.789C12.2912 30.738 12.3932 30.687 12.4442 30.585C12.6992 30.84 12.6992 31.656 12.6992 31.911C12.5972 32.574 12.4952 32.829 12.6992 33.441ZM11.8322 34.461C11.3732 34.41 11.2201 33.747 11.3731 32.982C11.4241 32.421 11.7812 32.013 11.6792 31.35C11.7302 31.35 11.8832 31.146 11.8832 31.044C12.3422 32.013 11.4241 33.186 12.1892 33.951C11.7302 34.053 11.5772 33.492 11.5772 33.645C11.5772 33.9 11.6792 34.206 11.8322 34.461ZM11.1691 34.716C10.7611 34.359 10.7101 33.441 10.7101 32.931C10.7611 32.625 10.9141 31.911 11.1181 31.605C11.1181 31.605 11.1181 31.656 11.1691 31.656C11.3731 31.656 11.3732 31.605 11.5772 31.452C11.5772 32.676 10.8631 32.472 11.1691 34.716ZM10.5061 33.135C10.4551 33.441 9.69015 34.206 8.92515 34.104C10.8121 32.982 10.0471 32.013 10.5061 31.299C10.6591 31.248 10.7101 31.044 10.9141 31.044C10.9141 31.299 11.1182 31.401 11.0161 31.554C10.8632 31.911 10.5571 32.676 10.5061 33.135ZM10.6591 34.155C10.5061 34.308 10.4551 34.308 10.3531 34.563C10.3531 34.563 10.1491 34.053 10.3021 33.798C10.3531 33.747 10.5061 33.594 10.5571 33.492C10.5571 33.645 10.5571 33.951 10.6591 34.155ZM8.72115 33.39C9.43515 32.88 9.63915 32.37 10.1491 31.809C10.1491 32.064 10.1491 32.523 9.89415 32.88C9.63915 33.237 8.97615 33.339 8.72115 33.39ZM12.4952 29.871C12.4442 29.871 12.4442 29.871 12.3422 29.922C12.3422 30.126 11.8322 29.973 11.7812 29.922V29.667C11.8322 29.616 11.9342 29.871 12.0362 29.871C12.1892 29.922 12.1892 29.871 12.2912 29.769C12.3422 29.769 12.2912 29.718 12.2912 29.718C12.1892 29.514 12.0872 29.208 12.2402 28.953C12.2912 28.953 12.3932 28.953 12.3932 28.953C12.5462 29.055 12.3932 29.31 12.5462 29.412C12.5972 29.463 12.6992 29.565 12.7502 29.565C12.9542 29.514 12.8012 29.31 12.9032 29.106C12.9542 29.055 13.1072 28.902 13.3112 28.902C13.3112 28.953 13.3112 29.004 13.3622 29.106C13.3622 29.157 13.5662 29.259 13.4132 29.31C13.3112 29.514 13.2092 29.769 13.1582 30.024C13.0052 30.228 12.4952 30.381 12.0872 30.636C12.0362 30.585 12.0872 30.432 12.0362 30.279C12.1892 30.279 12.2912 30.279 12.4442 30.228C12.4952 30.228 12.6992 30.279 12.7502 30.177C12.6992 29.922 12.5972 29.82 12.4952 29.871ZM11.4241 30.891C11.5262 30.687 11.6792 30.075 11.7302 30.177C11.9852 30.687 11.4242 31.35 11.2712 31.248C11.1182 31.248 11.0161 30.483 11.4241 30.126C11.4241 30.075 11.4752 30.126 11.4752 30.126C11.4242 30.381 11.3222 30.636 11.3222 30.891H11.4241ZM12.0872 29.514C12.1382 29.616 12.2402 29.718 12.0872 29.769C12.0872 29.769 12.0362 29.82 12.0362 29.769L11.8322 29.565C11.6792 29.463 11.5772 29.565 11.4241 29.565C11.4241 29.514 11.4241 29.514 11.4241 29.463C11.7302 29.412 11.8832 29.157 11.9852 28.902H12.0362C12.1382 28.953 11.8832 29.259 12.0872 29.514ZM13.2602 28.749C13.0562 28.698 12.4952 28.953 12.1892 28.749C12.2402 28.545 12.4442 28.239 12.6992 28.239C12.9032 28.188 13.2092 28.443 13.2602 28.596C13.2602 28.596 13.3112 28.596 13.4132 28.545C13.5662 28.545 13.6682 28.545 13.8212 28.647C13.8722 28.698 13.8722 28.8 13.8212 28.902C13.7702 28.953 13.5152 29.208 13.3622 28.953C13.3622 28.953 13.4132 28.8 13.2602 28.749ZM12.0872 28.698C11.8832 28.647 11.2712 28.086 11.2201 28.086C11.2201 28.086 11.1691 28.29 10.9141 28.341C10.8631 28.341 10.8122 28.341 10.7611 28.341C10.6081 28.239 10.5571 27.933 10.7101 27.78C10.7101 27.729 10.8631 27.729 10.9141 27.729C11.0161 27.729 11.1181 27.78 11.1691 27.933C11.4241 27.933 11.7812 27.984 11.9342 28.137C12.0872 28.137 12.1382 28.29 12.1382 28.392C12.1382 28.392 12.1382 28.596 12.0872 28.698ZM10.9141 28.749C10.9141 28.698 10.8632 28.494 11.0161 28.443C11.0672 28.443 11.1691 28.392 11.2201 28.341C11.2712 28.341 11.3731 28.443 11.4241 28.545C11.3731 28.749 11.1691 28.851 11.2201 29.055C11.2201 29.055 11.2711 29.106 11.3731 29.106C11.5262 29.055 11.6282 29.004 11.6792 28.8H11.7302C11.7302 28.8 11.7812 28.8 11.7812 28.851C11.7812 28.902 11.7302 29.055 11.7302 29.106C11.6792 29.259 11.4752 29.31 11.4241 29.361C11.3731 29.361 11.2201 29.361 11.2201 29.463C11.2712 29.565 11.3731 29.667 11.4241 29.718C11.4752 29.769 11.5262 29.718 11.6281 29.718C11.6281 29.769 11.5772 29.871 11.5772 29.973C11.5262 29.973 11.3732 29.922 11.3222 29.922C11.2712 29.871 11.1691 29.82 11.1691 29.718C11.1691 29.667 11.1691 29.514 11.1181 29.463H10.9141C10.8631 29.514 10.8631 29.514 10.8631 29.565C10.8631 29.616 10.8631 29.667 10.9141 29.667C11.0161 29.667 11.0161 29.82 11.1181 29.871C11.1691 29.973 11.3732 29.973 11.2201 30.126C11.1691 30.126 11.1691 30.177 11.1181 30.228C11.0671 30.228 11.0672 30.177 11.0672 30.126C10.9652 29.922 10.8121 29.769 10.6591 29.514C10.7101 29.259 10.8631 29.004 10.9141 28.749ZM12.5972 30.585C12.5462 30.585 12.8522 30.483 12.9032 30.381C13.1072 30.687 13.2092 31.146 13.2092 31.503C13.3622 31.86 13.2092 32.319 13.1582 32.676C12.6992 32.319 12.9032 31.656 12.7502 31.146C12.7502 30.942 12.6992 30.789 12.5972 30.585ZM13.1072 30.279C13.1582 30.279 13.1582 30.279 13.2602 30.228C13.3112 30.177 13.3622 29.973 13.3622 30.024C13.6172 30.279 13.8212 30.789 13.8212 31.299C13.9232 31.86 14.2292 32.064 14.1272 32.064C13.9232 32.013 13.7192 31.86 13.6172 31.758C13.4642 31.452 13.4642 31.044 13.1072 30.279ZM13.4642 29.769C13.4132 29.769 13.5152 29.514 13.5152 29.514C13.5662 29.463 13.6682 29.514 13.7192 29.565C14.3822 30.126 14.0252 31.197 14.6882 31.809C14.7392 31.911 14.2802 31.809 14.1782 31.605C13.8212 31.044 13.9742 30.585 13.4642 29.769ZM14.2802 30.126C14.1272 29.82 13.9232 29.565 13.6682 29.361C14.0762 29.31 14.0762 29.259 14.0762 29.259C14.2802 29.259 14.5352 29.361 14.6372 29.616C14.8412 30.33 14.6882 30.687 14.9432 31.707C14.5862 31.656 14.4842 30.585 14.2802 30.126ZM14.9942 28.392C14.9942 28.443 14.9432 28.443 14.9432 28.443C14.6882 28.545 14.4842 28.392 14.2292 28.494C14.1782 28.545 14.1782 28.443 14.0762 28.341C14.0252 28.341 13.8722 28.29 13.8722 28.29C14.2802 28.188 14.5862 28.086 14.9942 28.392ZM14.9942 27.576C14.9432 27.729 14.8412 27.984 14.6372 28.035H14.5352C14.2292 28.086 13.9742 28.035 13.6682 28.29C13.6172 28.29 13.6172 28.239 13.5152 28.29C13.4642 28.341 13.2602 28.188 13.3112 28.188C13.9742 27.576 14.2802 27.678 14.8922 27.576C14.9432 27.525 14.9432 27.576 14.9942 27.576ZM13.6172 27.423C13.7192 27.372 14.1272 27.27 14.1782 27.27C14.3822 27.27 14.6372 27.372 14.8412 27.321C14.8922 27.321 14.8922 27.321 14.8922 27.321C14.7902 27.525 14.5862 27.423 14.2292 27.525C13.7192 27.576 13.5662 27.729 13.2602 28.086C13.1072 28.086 13.1072 28.035 13.0562 28.035C13.2092 27.678 13.3622 27.525 13.6172 27.423ZM13.4132 26.964C13.4132 26.964 13.5152 26.964 13.5662 26.964C13.6172 26.964 13.7192 26.964 13.7192 26.964C13.7192 27.015 13.6682 27.066 13.6682 27.066C13.3622 27.321 13.0052 27.627 12.8012 27.984H12.4952C12.5462 27.576 12.7502 27.015 13.4132 26.964ZM12.4952 27.321C12.4442 27.525 12.3422 27.627 12.2912 27.831C12.2912 27.882 12.2402 27.78 12.0362 27.678C11.8322 27.321 11.7812 27.066 11.7302 26.607C12.0872 26.913 12.2912 27.066 12.4952 27.321ZM11.8322 27.678H11.4241C11.2712 27.423 11.1182 27.168 11.0161 26.862C11.5772 26.964 11.8322 27.423 11.8322 27.678ZM11.1691 27.474C11.1181 27.525 11.0161 27.372 10.7101 27.474C10.6591 27.474 10.5571 27.474 10.4551 27.372C10.3531 27.27 10.3021 27.321 10.2001 27.117C10.5571 27.066 10.9141 27.066 11.1691 27.474ZM10.5061 27.525C10.4551 27.576 10.3531 27.729 10.3021 27.78C10.0981 27.78 9.89415 27.729 9.69015 27.576C10.2511 27.219 10.5571 27.474 10.5061 27.525ZM9.63915 28.239C9.84315 28.086 10.0471 28.035 10.3021 27.984V28.239C10.0981 28.239 9.84315 28.29 9.58815 28.341C9.48615 28.392 9.58815 28.239 9.63915 28.239ZM9.53715 28.902C9.74115 28.647 10.1491 28.494 10.3531 28.443C10.4041 28.443 10.4551 28.392 10.4551 28.392C10.5571 28.392 10.5571 28.443 10.6081 28.545C10.6591 28.596 10.6591 28.647 10.6081 28.647C10.6081 28.698 10.5571 28.749 10.5571 28.749C10.3531 28.851 10.0471 28.8 9.58815 28.902C9.53715 28.953 9.48615 28.953 9.53715 28.902ZM10.5061 28.851C10.4551 29.055 10.4551 29.106 10.3021 29.361C9.79215 29.514 9.89415 30.075 9.23115 30.177C9.18015 30.177 9.12915 30.177 9.07815 30.177C9.28215 29.463 9.99615 29.004 10.5061 28.851ZM10.5061 29.922C9.89415 30.279 9.89415 30.891 9.23115 30.738C9.23115 30.738 9.18015 30.738 9.23115 30.687C9.94515 30.075 9.89415 29.718 10.3531 29.514C10.4041 29.667 10.4551 29.82 10.5061 29.922ZM10.5571 30.075C10.7611 30.177 10.8121 30.381 10.8631 30.534V30.789C10.8631 30.84 10.7101 30.84 10.6591 30.84C9.89415 31.146 10.1491 31.962 9.12915 32.472H9.07815C9.79215 31.911 9.74115 30.738 10.5571 30.075ZM7.34415 27.627C7.29315 27.525 7.24215 27.474 7.08915 27.423C7.34415 27.372 7.59915 27.423 7.75215 27.678C7.65015 27.678 7.54815 27.729 7.44615 27.729C7.39515 27.678 7.34415 27.627 7.34415 27.627ZM6.01814 27.933C6.22215 27.882 6.52815 27.984 6.63015 28.035C6.63015 28.035 6.57915 28.086 6.57915 28.137C6.52815 28.239 6.47715 28.341 6.47715 28.29C6.22214 27.933 5.91614 27.984 6.01814 27.933ZM8.31315 34.257C8.31315 34.257 8.31315 34.206 8.26215 34.155C8.21115 34.155 8.21115 34.104 8.16015 34.155C7.54815 34.614 7.14015 34.461 7.08915 34.461C7.75215 34.104 7.59915 34.002 7.95615 33.492C7.80315 33.288 7.44615 33.747 7.19115 33.696C7.29315 33.645 7.39515 33.543 7.49715 33.339C7.49715 33.339 7.54815 33.237 7.54815 33.186C7.70115 32.88 7.90515 32.829 7.90515 32.829C7.75215 32.727 7.03815 33.186 7.03815 33.186C7.24215 32.574 7.54815 32.421 7.65015 32.115V32.064C7.65015 32.064 7.59915 32.064 7.54815 32.115C7.08915 32.574 6.78315 32.676 6.47715 32.676C6.52815 32.37 7.54815 32.166 7.65015 31.605V31.554C7.59915 31.554 7.44615 31.758 7.19115 31.809C6.98715 31.86 6.73215 31.86 6.68115 31.86C6.93615 31.554 7.08915 31.503 7.34415 31.248C7.08915 31.248 6.73215 31.401 6.47715 31.401C6.42615 31.401 6.42615 31.35 6.47715 31.35L6.52815 31.299C6.93615 30.993 7.34415 31.044 7.34415 30.687C7.34415 30.585 7.29315 30.483 7.19115 30.381C7.19115 30.381 7.14015 30.33 7.08915 30.33C6.88515 30.33 6.47715 30.33 6.57915 30.075C6.98715 30.177 7.29315 30.024 7.14015 29.616C7.03815 29.361 6.78315 29.412 6.57915 29.463C6.47715 29.463 6.47715 29.463 6.47715 29.463C6.32414 29.31 6.42614 29.055 6.57915 29.004C6.63015 29.004 6.63015 28.953 6.68115 28.953C6.83415 28.902 6.93615 29.106 7.08915 28.953L7.14015 28.851C7.14015 28.494 6.73215 28.647 6.73215 28.443C6.78315 28.188 7.14015 28.035 7.34415 28.035C7.54815 28.035 7.24215 28.392 7.59915 28.443C7.65015 28.443 7.75215 28.392 7.80315 28.341C8.00715 28.086 7.65015 28.086 7.70115 27.984C7.70115 27.729 8.21115 27.78 8.31315 27.882C8.36415 27.933 8.46615 28.035 8.36415 28.137C8.26215 28.239 8.16015 28.341 8.10915 28.545C8.05815 28.647 7.90515 30.075 8.10915 30.687C8.16015 30.789 8.16015 30.789 8.16015 30.789C8.26215 30.891 8.46615 30.891 8.56815 30.993C8.77215 31.197 9.28215 32.064 9.23115 32.115C9.12915 32.319 8.92515 32.421 8.77215 32.574C8.77215 32.676 8.97615 32.676 9.07815 32.778C9.12915 32.778 8.67015 33.237 8.41515 33.339C8.41515 33.339 8.41515 33.339 8.41515 33.39C8.61915 33.594 8.87415 33.441 9.07815 33.594C8.97615 33.9 8.87415 33.9 8.67015 34.206C8.72115 34.308 9.38415 34.155 9.53715 34.206C9.48615 34.767 8.41515 34.818 8.31315 34.257ZM5.81414 36.756C5.76314 36.756 5.55914 36.705 5.40614 36.756C5.55914 36.501 5.76314 36.501 5.96714 36.501C5.96714 36.552 5.91614 36.603 5.86514 36.705C5.86514 36.705 5.86514 36.756 5.81414 36.756ZM6.06914 38.745C6.17114 38.745 6.27315 38.949 6.27315 39L6.22214 39.051C6.12014 39.153 5.71214 39.153 5.55914 39.102C5.76314 39.051 5.91614 38.898 6.06914 38.745C6.06914 38.745 6.01814 38.745 6.06914 38.745ZM13.0052 36.093C13.1582 35.889 13.4642 35.787 13.6172 35.94C13.5662 35.991 13.5662 36.093 13.5152 36.195C13.5152 36.246 13.4642 36.246 13.4642 36.195C13.2602 36.195 13.1582 36.093 13.0052 36.093ZM15.0452 38.541C15.2492 38.337 15.3002 38.235 15.3512 38.031C15.4022 37.929 15.5042 38.031 15.6062 38.082C15.8612 38.235 15.2492 38.592 15.0452 38.541ZM18.8702 36.501C19.0232 36.552 19.1762 36.756 19.1762 36.807C19.2272 36.909 19.2272 37.062 19.1252 37.113C18.8702 37.266 18.3602 37.776 18.8702 38.337C18.1562 38.184 18.3602 37.725 18.5642 37.266C18.6152 37.215 18.5642 37.164 18.5132 37.215C18.0542 37.674 18.2072 38.082 18.0032 38.49C17.7482 38.184 17.8502 37.674 18.0542 37.419C18.0542 37.419 18.0542 37.368 18.0032 37.419C17.6972 37.623 17.4932 38.184 17.3402 38.49C17.0852 38.235 17.2892 37.623 17.3402 37.572C17.3402 37.572 17.3402 37.521 17.2892 37.572C16.9832 37.827 16.8302 38.184 16.6772 38.592C16.4222 38.388 16.4732 38.082 16.4732 37.827C16.2692 37.929 16.4732 38.541 16.0142 38.694C16.0142 38.694 15.9632 38.694 15.9122 38.694C15.8102 38.643 15.9122 38.592 15.9632 38.541C16.0652 38.388 16.1162 38.235 16.0142 38.133C15.9632 38.082 15.8612 37.98 15.8102 37.98C15.5552 37.776 15.3512 37.725 15.0962 37.725C14.8412 37.776 14.4842 37.98 14.2802 38.286C14.2292 38.388 14.0762 38.388 13.9232 38.337C13.6682 38.286 13.4132 37.827 13.6682 37.623C13.8212 37.572 13.8722 37.776 14.0762 37.674C14.1782 37.623 14.1782 37.266 13.9742 37.215C13.9232 37.215 13.8722 37.215 13.7702 37.215C13.6682 37.266 13.5662 37.368 13.5152 37.317C13.5152 37.317 13.4642 37.266 13.4642 37.215C13.4132 37.011 13.4642 36.603 13.7192 36.603C13.7702 36.603 13.8212 36.654 13.8212 36.654C13.8722 36.756 13.9232 36.807 13.9742 36.807C14.2802 36.807 14.2292 36.603 14.1782 36.45C14.1782 36.399 14.1272 36.348 14.0762 36.348C13.9232 36.348 13.7702 36.399 13.6682 36.297C13.5152 36.093 13.7702 35.787 13.9742 35.787C14.2292 35.787 14.1782 36.093 14.4332 36.144C14.5862 36.195 14.7902 36.246 14.9432 36.348C14.9942 36.399 15.0452 36.399 15.0962 36.45C15.2492 37.011 16.0652 36.96 16.5242 36.909C17.4422 36.807 17.9522 36.144 17.3402 35.685C16.9322 35.43 16.3712 35.634 15.9122 35.532C15.1982 35.43 15.0452 35.073 15.2492 34.563C15.3002 34.41 15.6062 34.359 15.7082 34.308C15.8102 34.257 16.1672 34.002 16.1672 34.104C16.0652 34.257 15.9632 34.563 15.8612 34.818C15.8612 34.818 15.8102 34.869 15.8612 34.92C15.9122 34.971 15.9632 34.971 15.9632 34.971C16.3712 34.614 16.3712 34.461 16.8812 34.155C17.0852 34.614 17.5952 34.614 17.7482 34.155C18.1052 34.461 18.5132 34.869 18.4622 34.971C18.4112 35.226 18.2582 35.583 18.2582 35.94C18.3602 36.297 18.6662 36.399 18.8702 36.501ZM19.9412 37.368C19.9922 37.215 20.4512 36.909 20.7572 37.113C20.7062 37.164 20.6042 37.419 20.6042 37.419C20.2982 37.317 20.1962 37.317 19.9412 37.368ZM20.4002 39.408C20.6042 39.408 20.8082 39.408 20.9102 39.306C20.9612 39.357 21.0632 39.408 21.1142 39.51C20.9612 39.612 20.4512 39.612 20.4002 39.408ZM23.0012 38.694C23.0012 38.796 23.0012 39 22.7972 39.102C22.7972 38.796 22.7972 38.745 22.5422 38.541C22.4912 38.49 22.7972 38.541 22.9502 38.643C23.0012 38.643 23.0012 38.694 23.0012 38.694ZM24.3782 36.96C24.2762 37.011 24.1232 37.062 23.9192 37.062C23.6642 37.062 23.4092 37.011 23.3072 37.062C23.3582 37.317 24.0212 37.266 24.4292 37.266C24.1232 37.572 23.7152 37.572 23.2562 37.521C23.2562 37.521 23.2562 37.572 23.3582 37.623C23.6132 37.725 23.9192 37.776 24.1232 37.827C23.9192 37.878 23.7152 38.031 23.0522 37.878C23.1032 38.082 23.6642 38.235 23.9192 38.337C23.7152 38.439 23.4602 38.541 23.3072 38.541C23.0012 38.541 22.0322 38.133 21.7262 38.745C21.7262 38.796 21.7262 38.847 21.7262 38.847C21.7262 38.898 21.7772 38.898 21.7772 38.949C21.8282 39 21.7772 39.102 21.7772 39.153C21.6752 39.357 21.3182 39.357 21.1652 39.204C21.1142 39.204 21.1142 39.153 21.0632 39.051C21.0122 38.949 21.0122 38.847 21.0632 38.745C21.0632 38.694 21.1652 38.745 21.1652 38.745C21.6242 38.796 21.4202 38.286 21.0122 38.388C20.9102 38.439 20.8082 38.541 20.7062 38.592C20.7062 38.592 20.6552 38.592 20.6042 38.541C20.4512 38.388 20.5022 37.98 20.6552 37.929C20.7062 37.929 20.7572 37.98 20.7572 37.98C20.9102 38.133 21.2672 37.98 21.1652 37.725C21.1652 37.674 21.1142 37.623 21.1142 37.623C21.0122 37.521 20.7062 37.572 20.8082 37.317C20.8592 37.164 21.0122 36.909 21.2162 36.909C21.3692 36.909 21.4202 37.113 21.4712 37.215C21.5222 37.266 21.6752 37.521 21.8792 37.521C22.3892 37.521 22.7972 36.756 22.5932 36.246C22.3382 35.532 21.4712 35.787 20.8082 35.685C19.1252 35.43 18.6662 34.461 17.6462 33.186L17.5442 33.135C17.4422 33.084 17.3912 33.084 17.2892 33.186C16.5242 33.543 15.9122 33.9 15.0452 34.257C14.8922 34.308 14.7902 34.359 14.5862 34.461C14.7392 34.257 14.9942 33.951 15.0962 33.747C14.5862 34.002 14.1782 34.359 13.4642 34.716C13.4132 34.716 13.3112 34.716 13.3112 34.665C13.3622 34.461 13.5152 34.41 13.6172 34.053C13.5662 34.002 13.5152 34.053 13.4132 34.104C12.6992 34.614 12.2912 35.073 11.6281 34.92C11.6281 35.022 11.8832 35.277 12.2912 35.43C12.0872 35.634 11.4241 35.532 11.1181 35.379C11.0671 35.685 11.6282 35.889 11.7812 35.94C11.4752 36.195 10.8121 35.94 10.4551 35.838C10.4041 35.838 10.4551 35.889 10.4551 35.889C10.6591 36.246 11.4242 36.348 11.7812 36.348C11.2712 36.603 10.7101 36.756 10.1491 36.399C9.99615 36.603 10.6592 36.96 10.8122 37.011C10.8122 37.113 10.0981 37.062 9.63915 36.705C9.58815 36.909 10.1491 37.266 10.2511 37.317C9.99615 37.572 9.43515 37.317 9.28215 37.266C9.23115 37.266 9.18015 37.215 9.18015 37.215C9.18015 37.215 9.18015 37.215 9.18015 37.266C9.23115 37.521 9.58815 37.674 9.84315 37.776C9.33315 38.031 8.92515 37.725 8.72115 37.521C8.61915 37.521 8.10915 37.98 8.10915 38.031C8.05815 38.133 8.10915 38.286 8.05815 38.49C8.00715 38.592 7.90515 38.847 7.80315 38.898H7.75215C7.70115 38.847 7.75215 38.541 7.65015 38.49C7.03815 38.235 7.14015 38.796 6.88515 39C6.63015 39.102 6.22214 38.694 6.22214 38.541C6.22214 38.49 6.27315 38.337 6.42615 38.439L6.47715 38.49C6.52815 38.49 6.52815 38.49 6.57915 38.49C6.68115 38.439 6.68115 38.388 6.68115 38.286C6.68115 38.082 6.63015 37.98 6.37515 38.031C6.32415 38.082 6.32414 38.133 6.22214 38.184C6.17114 38.184 6.17114 38.184 6.12014 38.184C5.91614 37.98 5.91614 37.572 6.06914 37.47C6.27314 37.419 6.32415 37.674 6.52815 37.572C6.68115 37.521 6.68115 37.113 6.52815 37.062C6.42615 37.011 6.22214 37.215 6.12014 37.113C6.12014 37.113 6.12014 37.062 6.12014 37.011C6.22214 36.756 6.37515 36.501 6.47715 36.501C6.63015 36.501 6.68115 36.807 6.88515 37.011C6.93615 37.062 7.14015 37.164 7.19115 37.164C7.59915 37.368 8.10915 37.317 8.41515 37.164C9.58815 36.654 9.07815 35.838 9.48615 35.634C10.3531 35.277 9.94515 34.869 10.3021 34.665C10.3531 34.716 10.3531 35.022 10.5571 35.124C10.6082 34.716 10.7101 34.512 11.0672 34.614C11.1692 34.818 11.3222 34.971 11.5262 35.124C11.5772 35.124 11.5772 34.665 11.5772 34.512C11.8832 34.767 12.4442 34.767 12.3422 34.614C12.2912 34.563 12.0362 34.257 12.0362 34.104C12.3422 34.308 12.9032 34.155 12.8012 34.053C12.7502 34.002 12.6482 33.951 12.6482 33.849C12.6992 33.696 12.9542 33.696 13.1072 33.696C13.1072 33.441 12.8522 33.135 13.1072 32.778C13.3112 32.931 13.3622 33.033 13.6172 33.033C13.6172 32.829 13.5662 32.574 13.6682 32.421C14.2802 32.421 14.7392 32.421 15.0962 32.37C15.9632 32.166 16.6262 31.86 17.5442 31.656C17.7992 31.605 18.0032 31.503 18.2582 31.452C18.6152 31.452 19.0232 31.758 19.2272 32.064C19.2782 32.166 19.4312 32.472 19.4822 32.523C19.7372 32.829 19.9922 33.084 20.2982 33.288C20.5532 33.492 20.8082 33.747 20.9612 34.053C21.1142 34.257 21.1652 34.512 21.2672 34.767C21.3182 34.92 21.4712 35.124 21.6242 35.175C22.2872 35.532 22.8992 34.665 23.2052 34.971C23.2052 35.022 23.2562 35.022 23.2562 35.073C23.2562 35.073 23.3072 35.124 23.3072 35.175C23.3582 35.226 23.4092 35.226 23.4092 35.226C23.8682 35.226 24.1742 35.175 24.5822 34.971C24.6332 34.971 24.0722 35.685 23.4092 35.736C23.5622 35.838 24.4802 35.685 24.6842 35.532C24.5312 35.889 24.0212 36.144 23.5112 36.093H23.4602C23.4602 36.093 23.4602 36.144 23.6132 36.195C23.8682 36.246 24.3272 36.297 24.5312 36.297C24.5312 36.45 23.5622 36.45 23.5622 36.603C24.3272 36.501 24.4292 36.756 24.7352 36.603C24.6842 36.756 24.5312 36.909 24.3782 36.96Z" fill="#1D1D1B"/>
<path d="M15.6569 38.0814C15.5549 38.0304 15.4529 37.9284 15.4019 38.0304C15.3509 38.2344 15.2489 38.3364 15.0959 38.5404C15.2489 38.5914 15.8609 38.2344 15.6569 38.0814Z" fill="#009EE2"/>
<path d="M7.34387 27.6261C7.34387 27.6771 7.39487 27.7281 7.44587 27.7281C7.54787 27.7791 7.64987 27.6771 7.75187 27.6771C7.59887 27.4221 7.34387 27.3711 7.08887 27.4221C7.19087 27.4731 7.29287 27.5241 7.34387 27.6261Z" fill="#009EE2"/>
<path d="M20.7059 37.113C20.4509 36.909 19.9919 37.215 19.8899 37.368C20.1449 37.317 20.2979 37.317 20.5529 37.419C20.5529 37.47 20.6549 37.215 20.7059 37.113Z" fill="#009EE2"/>
<path d="M6.42583 28.2883C6.42583 28.3393 6.47683 28.2373 6.52783 28.1353C6.57883 28.0843 6.62983 28.0333 6.57883 28.0333C6.52783 27.9823 6.17083 27.8293 5.96683 27.9313C5.91583 27.9823 6.22183 27.9313 6.42583 28.2883Z" fill="#009EE2"/>
<path d="M11.4239 30.1267C11.0159 30.4837 11.1689 31.2487 11.2709 31.2487C11.4239 31.2997 11.9849 30.6877 11.7299 30.1777C11.6789 30.0757 11.5259 30.6877 11.4239 30.8917H11.3729C11.3729 30.6367 11.4239 30.3817 11.5259 30.1267C11.5259 30.1267 11.4239 30.0757 11.4239 30.1267Z" fill="#009EE2"/>
<path d="M13.3109 38.0306C13.1069 37.9796 12.7499 38.2856 12.7499 38.4386C12.9539 38.3876 13.0049 38.2856 13.3109 38.2856H13.3619C13.3619 38.1836 13.3619 38.1326 13.3109 38.0306C13.3619 38.0306 13.3619 38.0306 13.3109 38.0306Z" fill="#009EE2"/>
<path d="M5.96688 36.4997C5.76288 36.4997 5.50788 36.4997 5.40588 36.7547C5.60988 36.7037 5.76288 36.7547 5.81388 36.7547C5.86488 36.7547 5.86488 36.7037 5.86488 36.7037C5.91588 36.6017 5.96688 36.5507 5.96688 36.4997Z" fill="#009EE2"/>
<path d="M6.06899 38.7449C6.06899 38.7449 6.01799 38.7449 6.06899 38.7449C5.91599 38.9489 5.76299 39.0509 5.60999 39.1019C5.71199 39.1529 6.17099 39.1529 6.27299 39.0509L6.32399 38.9999C6.27299 38.9489 6.17099 38.7449 6.06899 38.7449Z" fill="#009EE2"/>
<path d="M13.5149 36.2456C13.5659 36.1946 13.5659 36.0926 13.6169 35.9906C13.4639 35.7866 13.1579 35.9396 13.0049 36.1436C13.1579 36.1436 13.2599 36.1946 13.4129 36.2456C13.4639 36.2456 13.4639 36.2456 13.5149 36.2456Z" fill="#009EE2"/>
<path d="M5.2019 38.0302C5.4569 37.9282 5.5079 37.8772 5.66091 37.9282H5.7119V37.7242C5.6609 37.6222 5.2529 37.7752 5.2019 38.0302Z" fill="#009EE2"/>
<path d="M13.2089 36.9581C13.0049 36.9071 12.6989 37.0091 12.5969 37.2131C12.6989 37.1621 12.8519 37.1621 13.0049 37.2131L13.1069 37.2641C13.1579 37.2641 13.2089 37.3151 13.2089 37.2641C13.1579 36.9581 13.2599 36.9581 13.2089 36.9581Z" fill="#009EE2"/>
<path d="M5.76294 28.7478C5.71194 28.7988 5.86494 29.3088 6.06894 29.2578C6.06894 29.2578 6.06894 29.2578 6.06894 29.2068C6.06894 29.1558 6.11994 29.0538 6.11994 29.0028C5.86494 28.9518 5.86494 28.7478 5.76294 28.7478Z" fill="#009EE2"/>
<path d="M20.3999 39.4069C20.4509 39.6109 21.0119 39.6109 21.1139 39.4579C21.0629 39.4069 20.9609 39.3559 20.9099 39.2539C20.7569 39.4069 20.5529 39.4069 20.3999 39.4069Z" fill="#009EE2"/>
<path d="M20.2979 38.2849C20.0939 38.2849 19.8899 38.6929 19.8899 38.7949C20.0429 38.7439 20.5019 38.7439 20.3999 38.6929C20.3999 38.5399 20.2979 38.3869 20.2979 38.2849Z" fill="#009EE2"/>
<path d="M22.9499 38.6415C22.7969 38.5395 22.4909 38.4885 22.5419 38.5395C22.7969 38.7435 22.7969 38.7945 22.7969 39.1005C23.0519 38.9985 23.0009 38.7945 23.0009 38.6925C23.0009 38.6925 23.0009 38.6415 22.9499 38.6415Z" fill="#009EE2"/>
<path d="M19.482 13.091C18.309 13.142 17.748 12.377 16.728 12.377C16.32 12.377 15.708 12.479 14.943 13.091C14.178 12.479 13.5659 12.377 13.1579 12.377C12.1379 12.377 11.5769 13.142 10.4039 13.091C10.2509 13.091 10.0979 13.04 9.94495 13.04V17.018C10.0979 17.069 10.2509 17.069 10.4039 17.069C11.5769 17.12 12.1379 16.355 13.1579 16.355C13.5659 16.355 14.178 16.457 14.943 17.069C15.708 16.457 16.32 16.355 16.728 16.355C17.748 16.355 18.309 17.12 19.482 17.069C19.635 17.069 19.788 17.018 19.941 17.018V13.04C19.788 13.091 19.635 13.091 19.482 13.091Z" fill="#EAF6FD"/>
<path d="M9.12235 17.8755H15.3954V17.4165H9.12235V17.8755Z" fill="#B7A20C"/>
<path d="M9.15331 12.9668V17.8628H9.61231V12.9668H9.15331Z" fill="#B7A20C"/>
<path d="M20.7572 17.4243H14.4842V17.8833H20.7572V17.4243Z" fill="#B7A20C"/>
<path d="M20.3294 12.9755V17.8715H20.7884V12.9755H20.3294Z" fill="#B7A20C"/>
<path d="M8.36415 16.354L9.12915 15.895V16.762L8.36415 16.354Z" fill="#B7A20C"/>
<path d="M8.36414 14.5176L9.12914 14.1096V14.9766L8.36414 14.5176Z" fill="#B7A20C"/>
<path d="M21.5732 16.354L20.7572 15.895V16.762L21.5732 16.354Z" fill="#B7A20C"/>
<path d="M21.5731 14.5176L20.7571 14.1096V14.9766L21.5731 14.5176Z" fill="#B7A20C"/>
<path d="M19.941 12.6318H19.839C19.737 12.6828 19.584 12.6828 19.482 12.6828C18.972 12.7338 18.564 12.5298 18.156 12.3768C17.748 12.1728 17.34 12.0198 16.779 11.9688H16.728C16.167 11.9688 15.555 12.1728 14.994 12.5808C14.433 12.1728 13.821 11.9688 13.26 11.9688H13.209C12.648 11.9688 12.24 12.1728 11.832 12.3768C11.424 12.5808 11.016 12.7338 10.506 12.6828C10.404 12.6828 10.251 12.6828 10.149 12.6318H10.047V12.8358H10.098C10.251 12.8868 10.353 12.8868 10.506 12.8868C11.067 12.9378 11.475 12.7338 11.934 12.5298C12.342 12.3768 12.75 12.1728 13.26 12.1728H13.311C13.872 12.1728 14.433 12.3768 14.994 12.7848L15.045 12.8358L15.096 12.7848C15.657 12.3768 16.218 12.1728 16.779 12.1728H16.83C17.34 12.1728 17.748 12.3768 18.156 12.5298C18.564 12.7338 18.921 12.8868 19.431 12.8868C19.482 12.8868 19.533 12.8868 19.584 12.8868C19.737 12.8868 19.839 12.8358 19.992 12.8358H20.043V12.6318H19.941Z" fill="#D94827"/>
<path d="M29.223 11.663V41.294C29.223 42.314 28.611 43.283 27.693 43.691L14.943 49.709L2.193 43.64C1.224 43.181 0.663001 42.263 0.663001 41.243V11.663H29.223ZM29.886 11H0V41.192C0 42.467 0.765001 43.64 1.938 44.201L14.943 50.423L27.948 44.252C29.121 43.691 29.886 42.518 29.886 41.243V11Z" fill="#1D1D1B"/>
<path fill-rule="evenodd" clip-rule="evenodd" d="M14.484 55.575C14.229 55.575 13.821 55.524 13.566 55.575C13.515 55.575 13.515 55.524 13.515 55.524C13.617 55.422 13.668 55.32 13.668 55.218C13.668 54.912 13.668 54.657 13.668 54.402C13.668 54.3 13.566 54.249 13.464 54.147C13.464 54.096 13.515 54.096 13.515 54.096C13.821 54.096 14.178 54.147 14.433 54.096C14.535 54.096 14.586 54.096 14.637 54.147C14.637 54.249 14.688 54.351 14.688 54.453C14.535 54.504 14.535 54.351 14.484 54.3C14.331 54.198 14.127 54.198 13.923 54.198C13.872 54.198 13.872 54.249 13.872 54.249C13.872 54.351 13.872 54.504 13.872 54.606C14.025 54.606 14.229 54.657 14.331 54.504C14.382 54.504 14.382 54.504 14.433 54.504C14.484 54.606 14.433 54.606 14.433 54.657C14.433 54.759 14.433 54.81 14.382 54.861C14.331 54.81 14.28 54.657 14.127 54.708C14.025 54.708 13.974 54.708 13.872 54.708C13.872 54.861 13.821 55.065 13.872 55.218C13.974 55.32 14.331 55.32 14.484 55.218C14.535 55.167 14.586 55.014 14.637 55.014C14.688 55.014 14.688 55.116 14.688 55.116C14.739 55.32 14.688 55.524 14.484 55.575Z" fill="#1D1D1B"/>
<path fill-rule="evenodd" clip-rule="evenodd" d="M15.5552 55.5229C15.4532 55.5229 15.3512 55.5229 15.2492 55.4719C15.2492 55.4209 15.3002 55.4209 15.3512 55.3699C15.5042 55.1149 15.4022 54.5539 15.4022 54.1459C15.3002 54.0949 15.1472 54.1459 15.0962 54.2479C15.0452 54.2989 15.0452 54.4009 14.9432 54.4519C14.8412 54.4009 14.9432 54.2989 14.8922 54.2479C14.9432 54.1969 14.8922 54.1459 14.8922 54.0949C14.9432 54.0439 15.8102 54.0949 16.1672 54.0949C16.3202 54.0949 16.2182 54.2479 16.2692 54.2989C16.2692 54.4009 16.3202 54.5029 16.2182 54.5539C16.1162 54.5029 16.1162 54.4519 16.0652 54.4009C16.0142 54.2989 15.8612 54.2989 15.7592 54.2989C15.7082 54.2479 15.7082 54.3499 15.7082 54.3499C15.6572 54.6559 15.6572 55.1149 15.7082 55.4209C15.7082 55.5229 15.8102 55.5229 15.8612 55.6249C15.8102 55.5739 15.6572 55.5229 15.5552 55.5229Z" fill="#1D1D1B"/>
<path fill-rule="evenodd" clip-rule="evenodd" d="M12.6991 53.1763C12.5971 53.1763 12.4441 53.3293 12.4441 53.4313C12.2911 53.6353 12.2401 53.7883 12.0871 53.9923C11.9341 54.2473 11.8321 54.5533 11.5771 54.6553C11.4241 54.7063 11.3731 54.7573 11.2201 54.6553C10.8631 54.6043 10.2511 54.2983 10.2511 53.9413C10.2511 53.6863 10.4041 53.4313 10.5571 53.1763C10.7101 52.9213 10.9651 52.6663 10.8631 52.3603C10.8121 52.3093 10.7611 52.3093 10.8121 52.2583C10.8121 52.2073 10.9141 52.2073 10.9651 52.2583C11.0671 52.3093 11.2711 52.4113 11.3731 52.4623C11.4241 52.5133 11.5771 52.5133 11.5261 52.6153C11.4241 52.6663 11.2201 52.7173 11.1691 52.7683C10.9141 53.1253 10.7611 53.4823 10.6081 53.8393C10.5571 53.9923 10.6591 54.1453 10.7611 54.2983C10.8631 54.3493 11.0671 54.4513 11.2201 54.4513C11.6281 54.4513 11.8831 53.7883 12.0361 53.4823C12.0871 53.3293 12.1891 53.1253 12.0871 52.9213C12.0361 52.8703 12.0871 52.8703 12.0871 52.8703C12.2911 52.9213 12.4441 53.0233 12.6481 53.0743C12.7501 53.1763 12.7501 53.2273 12.6991 53.1763Z" fill="#1D1D1B"/>
<path fill-rule="evenodd" clip-rule="evenodd" d="M10.5061 52.1562C10.2001 52.3602 9.99605 52.7172 9.84305 53.0232C9.69005 53.2272 9.58805 53.4822 9.48605 53.6862C9.43505 53.7372 9.43505 53.7882 9.33305 53.8392C9.28205 53.8392 9.18005 53.8392 9.12905 53.7882C9.12905 53.7882 9.07805 53.7372 9.07805 53.6862C9.02705 53.5842 9.02705 53.1252 9.02705 52.7682C8.97605 52.5642 8.97605 52.2582 8.92505 52.0032C8.87405 51.9522 8.87405 51.7992 8.82305 51.8502C8.61905 52.1052 8.56805 52.2582 8.41505 52.5642C8.31305 52.7682 8.21105 53.0232 8.21105 53.1762C8.26205 53.2272 8.31305 53.2782 8.26205 53.3292C8.21105 53.3802 8.10905 53.3292 8.05805 53.2782C7.95605 53.2272 7.80305 53.1252 7.70105 53.1252C7.70105 53.0232 7.75205 53.0232 7.80305 52.9722C8.00705 52.9212 8.10905 52.5642 8.26205 52.4112C8.41505 52.1052 8.46605 52.0032 8.61905 51.7482C8.67005 51.6972 8.72105 51.5952 8.72105 51.5442C8.56805 51.4932 8.41505 51.5442 8.31305 51.5952C8.26205 51.5952 8.21105 51.5952 8.26205 51.5442C8.26205 51.4932 8.31305 51.4422 8.46605 51.3912C8.56805 51.3402 8.77205 51.2382 8.92505 51.3402C9.07805 51.3912 9.23105 51.4932 9.23105 51.5952C9.38405 52.0542 9.38405 52.5132 9.38405 53.0232C9.43505 53.1252 9.38405 53.1762 9.38405 53.2782C9.58805 53.0232 9.69005 52.7682 9.79205 52.5132C9.79205 52.3092 9.94505 52.0542 9.79205 51.8502C9.79205 51.7992 9.84305 51.7992 9.84305 51.7992C10.0981 51.9012 10.3021 52.0032 10.5061 52.1562C10.6081 52.1562 10.5571 52.1562 10.5061 52.1562Z" fill="#1D1D1B"/>
<path fill-rule="evenodd" clip-rule="evenodd" d="M7.44596 52.8692C7.29296 52.8182 7.03796 52.6652 6.83396 52.5632C6.78296 52.5632 6.73196 52.5122 6.78296 52.4612C6.83396 52.4102 6.88496 52.4612 6.88496 52.4612C7.13996 52.3082 7.08896 52.1042 7.13996 51.9002C6.93596 51.7982 6.68096 51.6452 6.52796 51.5432C6.32396 51.7472 6.17096 52.0022 6.22196 52.2062C6.17096 52.3082 6.06896 52.2062 6.01796 52.2062C5.91596 52.1552 5.81396 52.1042 5.71196 52.0022C5.66096 52.0022 5.60996 52.0022 5.55896 51.9512C5.60996 51.8492 5.71196 51.9512 5.86496 51.9002C6.37496 51.5432 6.73196 51.1352 7.13996 50.7272C7.19096 50.6762 6.98696 50.6762 6.88496 50.6252C6.78296 50.6252 6.68096 50.7272 6.68096 50.6762V50.6252C6.93596 50.4722 7.19096 50.3702 7.49696 50.4722C7.75196 50.6252 7.75196 50.9312 7.75196 51.1862C7.75196 51.3392 7.64996 52.2062 7.59896 52.4612C7.59896 52.5632 7.64996 52.6652 7.64996 52.8182C7.54796 52.8692 7.49696 52.9202 7.44596 52.8692ZM7.08896 51.6452C6.98696 51.6452 6.73196 51.5432 6.62996 51.4412C6.78296 51.2372 6.98696 51.0842 7.19096 50.9312C7.24196 50.9822 7.08896 51.5942 7.08896 51.6452Z" fill="#1D1D1B"/>
<path fill-rule="evenodd" clip-rule="evenodd" d="M6.27296 50.2698C6.17096 50.2188 6.11996 50.1168 6.01796 50.1678C5.86496 50.2698 5.76296 50.5758 5.66096 50.7288C5.50796 51.0348 5.35496 51.3408 5.20196 51.5958C5.20196 51.6468 5.30396 51.7488 5.25296 51.8508C5.20196 51.8508 5.15096 51.8508 5.15096 51.8508C4.99796 51.7488 4.84496 51.6468 4.69196 51.5958C4.64096 51.5448 4.58996 51.5448 4.64096 51.4938C4.74296 51.4428 4.99796 51.3918 5.04896 51.1368C5.20196 50.8818 5.40596 50.5758 5.55896 50.2698C5.50796 50.2698 5.50796 50.2698 5.50796 50.2698C5.04896 50.4738 4.58996 50.8308 4.18196 51.1368C4.13096 51.1878 4.07996 51.1368 4.07996 51.1368C4.07996 50.8818 4.07996 50.6778 4.13096 50.2188C4.07996 50.1678 4.13096 49.6068 4.07996 49.5558C3.87596 49.7598 3.72296 50.0658 3.67196 50.3208C3.56996 50.4738 3.41696 50.7288 3.51896 50.9328C3.51896 50.9328 3.51896 50.9838 3.46796 50.9838C3.26396 50.8308 3.05996 50.7798 2.85596 50.6268C2.85596 50.5758 2.85596 50.6268 2.85596 50.5758C3.16196 50.5758 3.36596 50.2188 3.51896 50.0148C3.67196 49.7598 3.87596 49.5048 3.97796 49.1988C3.97796 49.1478 3.82496 49.0458 3.77396 49.0458C3.67196 48.9948 3.56996 49.0968 3.41696 49.0968C3.36596 49.0458 3.36596 48.9948 3.41696 48.9948C3.51896 48.8418 3.77396 48.7398 3.97796 48.8418C4.18196 48.9438 4.38596 49.0968 4.43696 49.2498C4.43696 49.7088 4.38596 50.1168 4.38596 50.5248V50.5758C4.89596 50.2698 5.30396 49.8618 5.71196 49.7598C6.01796 49.7598 6.11996 49.8108 6.11996 49.8618C6.22196 49.9128 6.27296 49.9638 6.27296 50.0148C6.32396 50.2188 6.27296 50.2188 6.27296 50.2698Z" fill="#1D1D1B"/>
<path fill-rule="evenodd" clip-rule="evenodd" d="M26.9281 50.6782C26.6221 50.8312 26.1121 51.0352 25.8061 51.2392C25.7551 51.2392 25.7041 51.1882 25.7041 51.1882C25.7551 51.0352 25.7551 50.8822 25.7041 50.7292C25.5001 50.3722 25.3471 50.0662 25.1431 49.7092C25.0921 49.6072 24.8881 49.5562 24.7351 49.5052C24.7351 49.4542 24.7861 49.4542 24.7861 49.4542C25.1431 49.2502 25.6021 49.0972 25.9081 48.8932C26.0101 48.8422 26.1121 48.7402 26.2141 48.7912C26.3161 48.9442 26.4691 48.9952 26.4691 49.1482C26.3161 49.2502 26.2651 49.1482 26.1631 49.0972C25.9081 49.0972 25.6531 49.1992 25.4491 49.3522C25.3981 49.3522 25.3981 49.4032 25.4491 49.4542C25.5001 49.6072 25.6021 49.7602 25.6531 49.9132C25.8571 49.8112 26.1121 49.7602 26.1121 49.5562C26.1631 49.5052 26.1631 49.5052 26.2141 49.5052C26.3161 49.6072 26.2651 49.6582 26.3671 49.7092C26.4181 49.8112 26.5201 49.9132 26.4691 50.0152C26.3671 50.0152 26.2141 49.8622 26.0611 49.9642C25.9591 50.0152 25.8571 50.0152 25.7551 50.1682C25.8571 50.3722 25.9081 50.6272 26.1121 50.7802C26.3161 50.8312 26.7241 50.6272 26.8261 50.3722C26.8771 50.2702 26.7751 50.0662 26.8771 50.0152C26.9281 50.0152 26.9791 50.1172 26.9791 50.1172C27.0301 50.2702 27.0811 50.5762 26.9281 50.6782Z" fill="#1D1D1B"/>
<path fill-rule="evenodd" clip-rule="evenodd" d="M24.7861 51.6998C24.6841 51.7508 24.5311 51.8528 24.4291 51.8528C24.3781 51.8018 24.4291 51.7508 24.4801 51.6998C24.4801 51.3428 24.0211 50.6798 23.7151 50.1698C23.6131 50.1698 23.4091 50.3738 23.3581 50.4758C23.3071 50.5778 23.4091 50.6798 23.3071 50.7818C23.1541 50.7818 23.1541 50.5778 23.1031 50.5268C23.1031 50.4248 23.0521 50.3738 23.0011 50.3228C23.0011 50.2208 24.0721 49.7108 24.4801 49.5068C24.6331 49.4048 24.6841 49.6598 24.7351 49.6598C24.7861 49.7618 24.9391 49.8638 24.8371 49.9658C24.6841 49.9658 24.6841 49.8638 24.5311 49.8638C24.4291 49.7618 24.2251 49.8638 24.1231 49.9148C24.0211 49.9148 24.0721 50.0168 24.0721 50.0168C24.2251 50.4248 24.5311 50.9348 24.7861 51.2918C24.8371 51.3938 24.9901 51.3428 25.0921 51.4448C25.0921 51.5978 24.9391 51.6488 24.7861 51.6998Z" fill="#1D1D1B"/>
<path fill-rule="evenodd" clip-rule="evenodd" d="M23.4091 52.3098C22.8481 52.0038 22.2871 51.6978 21.7261 51.3918C21.9301 51.8508 22.0831 52.2588 22.4911 52.5648C22.4911 52.6668 22.6441 52.6158 22.5931 52.7178C22.5421 52.7688 22.3891 52.7688 22.3381 52.8708C22.1851 52.8708 22.0831 53.0748 22.0321 52.9218C22.1341 52.5138 21.8281 52.1058 21.6751 51.7488C21.6241 51.5958 21.5221 51.4428 21.4711 51.3408C21.2671 51.3918 21.2161 51.6468 21.1651 51.7998C21.1141 51.8508 21.0121 51.7488 20.9611 51.7488C20.9101 51.6468 20.7571 51.5958 20.6041 51.6468C20.4511 51.6978 20.2981 51.7998 20.1451 51.8508C20.2471 52.0548 20.2981 52.2588 20.4511 52.4118C20.4511 52.4628 20.5021 52.4118 20.5021 52.4118C20.7061 52.3608 20.8591 52.2588 20.9101 52.1058H20.9611C21.0631 52.2078 21.1651 52.3098 21.2161 52.4118C21.1141 52.4118 21.0631 52.3608 21.0121 52.4118C20.8591 52.4628 20.7061 52.5138 20.5531 52.6158C20.6551 52.8198 20.7571 53.0238 20.9101 53.2278C20.9611 53.3298 21.1141 53.2278 21.2671 53.2278C21.5731 53.0748 21.6751 52.7688 21.6241 52.4628C21.6751 52.4628 21.7261 52.4118 21.7261 52.4628C21.8281 52.6158 21.8791 52.7688 21.9301 52.8708C21.9301 52.9728 22.0321 53.0238 21.8791 53.0238C21.4711 53.2278 21.1651 53.3808 20.7571 53.5848C20.6551 53.5848 20.6041 53.6358 20.5021 53.7378C20.4511 53.6868 20.4511 53.7378 20.4511 53.6868C20.4001 53.6868 20.4511 53.6358 20.4511 53.5848C20.5021 53.2278 20.2981 52.9728 20.0941 52.5138C20.0431 52.4118 19.7881 52.0038 19.6351 52.0038C19.5841 52.0038 19.5841 52.0548 19.5841 52.1058V52.2078C19.5331 52.1568 19.4311 52.1568 19.3291 52.2588C19.3291 52.3098 19.3291 52.3098 19.3291 52.3098C19.3801 52.5138 19.4311 52.7178 19.5841 52.9218C19.7881 53.2278 19.8901 53.5848 20.2471 53.8398C20.2981 53.8908 20.2471 53.8908 20.1961 53.9418C20.0431 54.0438 19.8391 54.0438 19.6861 54.1458C19.5841 54.0438 19.6351 53.9418 19.6351 53.8398C19.5841 53.6358 19.5331 53.4828 19.3801 53.2788C19.2781 53.0238 19.2271 52.8708 19.0741 52.6668C19.0231 52.7688 19.0231 52.8708 19.0231 53.0238C19.0231 53.3808 19.0231 53.7378 19.0741 54.1458C19.0741 54.1458 19.0231 54.1458 19.0231 54.1968C18.9721 54.1968 18.9211 54.1458 18.9211 54.0948C18.5641 53.8908 18.0541 53.3808 17.6971 53.1768C17.6971 53.1768 17.6971 53.3298 17.7481 53.3298C17.9521 53.7378 18.0541 54.0438 18.3091 54.4008C18.3601 54.5028 18.5131 54.5538 18.6151 54.5538C18.5641 54.5538 18.6151 54.6048 18.5641 54.6048C18.4621 54.6558 18.4111 54.6558 18.3091 54.7578C18.2071 54.7578 18.0541 54.9618 18.0031 54.8598C18.1051 54.6048 17.9011 54.2478 17.8501 54.0438C17.6971 53.7378 17.5441 53.5338 17.4421 53.2278H17.3911C17.2891 53.2788 17.3401 53.4318 17.2891 53.5848C17.2381 53.6358 17.2381 53.6358 17.1871 53.6358C17.1871 53.5338 17.1361 53.3808 17.1871 53.2788C17.1871 53.1258 17.2381 52.9728 17.3911 52.8708C17.5441 52.8198 17.7991 52.7178 17.9011 52.8708C18.2581 53.1258 18.5131 53.4318 18.8701 53.6358L18.9211 53.5848C18.8701 53.2278 18.8701 52.8708 18.8701 52.5648C18.8701 52.4118 18.8701 52.2588 19.0741 52.1058C19.1251 52.0548 19.2781 52.0548 19.3801 52.0548C19.4311 52.0038 19.5331 51.9018 19.5841 51.8508C19.9921 51.6468 20.3491 51.4428 20.7571 51.2898H20.8081C20.8591 51.3918 20.9101 51.4938 21.0121 51.4938C21.0631 51.3918 21.0121 51.2898 21.1141 51.1878C21.2671 51.0348 21.5731 50.9328 21.7771 51.0348C22.1851 51.1368 22.8991 51.6468 23.1541 51.7488C23.0011 51.4428 22.8481 51.1878 22.7461 50.9838C22.6441 50.8818 22.4911 50.7288 22.3381 50.6778C22.2871 50.6778 22.2871 50.6268 22.2871 50.6268C22.4911 50.5758 22.6951 50.4228 22.8991 50.3208C23.0011 50.3718 22.8481 50.4738 22.8991 50.5758C23.0011 50.9838 23.2051 51.2898 23.3581 51.6468C23.5111 51.7998 23.5621 52.0038 23.6641 52.1058C23.7151 52.2078 23.4601 52.3608 23.4091 52.3098Z" fill="#1D1D1B"/>
<path d="M11.6281 14.8767C11.6281 15.0807 11.4241 15.2337 11.2201 15.2337C11.0671 15.2337 10.9141 15.1317 10.8121 15.0297C10.8121 15.0297 10.8121 15.0297 10.8121 14.9787L10.9141 14.8767C10.9141 14.8767 10.9141 14.8767 10.9651 14.8767C11.0671 14.9277 11.1181 14.9787 11.2201 14.9787C11.3221 14.9787 11.4241 14.9277 11.4241 14.8257C11.4241 14.6217 10.8631 14.6727 10.8631 14.3157C10.8631 14.1627 11.0161 14.0607 11.2201 14.0607C11.3731 14.0607 11.4751 14.1117 11.5771 14.2137C11.5771 14.2137 11.5771 14.2137 11.5771 14.2647L11.4751 14.3667C11.4751 14.3667 11.4751 14.3667 11.4241 14.3667C11.3221 14.3157 11.2711 14.2647 11.2201 14.2647C11.1181 14.2647 11.0671 14.3157 11.0671 14.3667C11.0671 14.5707 11.6281 14.5197 11.6281 14.8767Z" fill="#1D1D1B"/>
<path d="M12.9541 15.0298C12.9541 15.0298 12.9541 15.0808 12.9541 15.0298C12.8521 15.1828 12.6991 15.2338 12.5461 15.2338C12.1891 15.2338 11.9341 14.9788 11.9341 14.6218C11.9341 14.3158 12.1891 14.0098 12.5461 14.0098C12.6991 14.0098 12.8521 14.0608 12.9541 14.1628C12.9541 14.1628 12.9541 14.1628 12.9541 14.2138L12.8521 14.3158C12.8521 14.3158 12.8521 14.3158 12.8011 14.3158C12.7501 14.2648 12.6481 14.2138 12.5461 14.2138C12.3421 14.2138 12.1891 14.3668 12.1891 14.5708C12.1891 14.7748 12.3421 14.9278 12.5461 14.9278C12.6481 14.9278 12.7501 14.8768 12.8011 14.8258C12.8011 14.8258 12.8011 14.8258 12.8521 14.8258L12.9541 15.0298Z" fill="#1D1D1B"/>
<path d="M13.3621 14.0607H13.5661H13.6171V15.1827C13.6171 15.1827 13.6171 15.1827 13.5661 15.1827H13.3621V14.0607C13.3111 14.0607 13.3111 14.0607 13.3621 14.0607Z" fill="#1D1D1B"/>
<path d="M14.6371 15.0296V15.1826H14.0251V14.1116H14.6371V14.2646H14.2291V14.5196H14.6371H14.6881V14.6726C14.6881 14.6726 14.6881 14.6726 14.6371 14.6726H14.2291V14.9786L14.6371 15.0296Z" fill="#1D1D1B"/>
<path d="M16.0142 14.1116V15.2336H15.8102C15.8102 15.2336 15.8102 15.2336 15.7592 15.2336L15.3002 14.4176V15.1826C15.3002 15.1826 15.3002 15.1826 15.2492 15.1826H15.0452V14.1116H15.3002C15.3002 14.1116 15.3002 14.1116 15.3512 14.1116L15.8102 14.8766V14.1116H16.0142C16.0142 14.0606 16.0142 14.0606 16.0142 14.1116Z" fill="#1D1D1B"/>
<path d="M17.1361 14.1116V14.2646H16.8811V15.1826H16.6771V14.2646H16.4221V14.1116H17.1361C17.1361 14.0606 17.1361 14.0606 17.1361 14.1116Z" fill="#1D1D1B"/>
<path d="M17.4933 14.0607H17.6973V15.1827H17.4933V14.0607Z" fill="#1D1D1B"/>
<path d="M19.0741 15.2337H18.8701C18.8701 15.2337 18.8701 15.2337 18.8191 15.2337L18.7681 15.0297H18.3091L18.2581 15.2337C18.2581 15.2337 18.2581 15.2337 18.2071 15.2337H18.0031C18.0031 15.2337 17.9521 15.2337 18.0031 15.1827L18.4111 14.0607C18.4111 14.0607 18.4111 14.0607 18.4621 14.0607H18.6151H18.6661L19.0741 15.2337C19.0741 15.2337 19.0741 15.1827 19.0741 15.2337ZM18.7171 14.8257L18.5641 14.3667L18.4111 14.8257H18.7171Z" fill="#1D1D1B"/>
<path d="M14.9432 24.7688L14.5862 23.9018L13.6682 24.2588L14.0762 23.3918L13.1582 23.0348L14.0762 22.6778L13.6682 21.8108L14.5862 22.1678L14.9432 21.3008L15.3002 22.2188L16.2182 21.8618L15.8102 22.7288L16.7282 23.0858L15.8102 23.3918L16.2182 24.2588L15.3002 23.9018L14.9432 24.7688Z" fill="white"/>
<path d="M14.9432 45.0166L14.5862 44.1496L13.6682 44.5066L14.0762 43.6396L13.1582 43.2826L14.0762 42.9256L13.6682 42.1096L14.5862 42.4666L14.9432 41.5996L15.3002 42.4666L16.2182 42.1096L15.8102 42.9766L16.7282 43.3336L15.8102 43.6906L16.2182 44.5576L15.3002 44.1496L14.9432 45.0166Z" fill="white"/>
<path d="M26.214 35.2239L25.857 34.3569L24.939 34.7139L25.347 33.8469L24.429 33.4899L25.347 33.1329L24.939 32.2659L25.857 32.6229L26.214 31.7559L26.571 32.6229L27.489 32.2659L27.081 33.1329L27.999 33.4899L27.081 33.8469L27.489 34.7139L26.571 34.3569L26.214 35.2239Z" fill="white"/>
<path d="M3.77402 35.2239L3.41701 34.3569L2.49901 34.7139L2.90701 33.8469L1.98901 33.4899L2.90701 33.1329L2.49901 32.2659L3.41701 32.6229L3.77402 31.7559L4.13102 32.6229L5.04902 32.2659L4.64102 33.1329L5.55902 33.4899L4.64102 33.8469L5.04902 34.7139L4.13102 34.3569L3.77402 35.2239Z" fill="white"/>
<path d="M54.7231 30.023C54.6721 35.531 51.9691 38.285 46.9711 38.285C42.0241 38.285 39.1171 36.041 39.1171 30.941C39.1171 28.646 39.1171 27.371 39.1171 25.739C39.1171 22.832 38.8111 20.486 38.7091 19.262C39.3211 19.364 40.2391 19.415 40.8001 19.415C41.3611 19.415 41.9731 19.364 42.4831 19.262C42.2281 21.812 42.1261 25.229 42.1261 28.748C42.1261 33.848 43.0441 36.704 47.7871 36.704C52.8871 36.704 52.9891 31.655 52.9891 27.473C52.9891 23.699 52.9381 20.996 52.7851 19.262C53.1931 19.364 53.6011 19.415 54.0091 19.415C54.3661 19.415 54.7231 19.364 55.0801 19.262C54.9781 21.302 54.7741 25.79 54.7231 30.023Z" fill="#1D1D1B"/>
<path d="M72.2162 28.3417C72.1652 31.1977 72.1652 35.5837 72.2162 38.1337C72.0122 38.0827 71.7572 38.0317 71.5532 38.0317C71.3492 38.0317 71.0942 38.0827 70.9412 38.1337C67.0652 33.5437 62.6792 28.8007 58.2932 24.2107C58.2422 25.6897 58.1912 27.6277 58.1912 30.0247C58.1912 33.3397 58.2932 36.9097 58.3952 37.9297C58.0382 37.8277 57.6302 37.7767 57.3242 37.7767C56.9672 37.7767 56.5592 37.8277 56.2022 37.9297C56.4062 36.9097 56.7632 30.0247 56.7632 25.5367C56.7632 22.6297 56.7122 20.5387 56.6612 19.3147C56.8652 19.3657 57.1712 19.3657 57.3752 19.3657C57.5792 19.3657 57.8852 19.3147 58.0892 19.3147C62.1692 23.8027 67.0652 29.1067 70.6862 32.8807C70.6862 28.3417 70.6862 22.1197 70.4822 19.4677C70.8392 19.5697 71.1962 19.6207 71.5532 19.6207C71.9102 19.6207 72.2162 19.5697 72.5732 19.4677C72.4202 22.0687 72.2162 26.0467 72.2162 28.3417Z" fill="#1D1D1B"/>
<path d="M78.9992 38.3872C76.6532 38.3872 74.2562 37.2652 73.0832 36.4492C73.5422 36.0922 73.7462 35.9902 74.2562 35.2762C74.6132 34.7662 74.8682 33.9502 74.8682 33.9502C75.3272 35.3782 76.8062 36.7552 79.4072 36.7552C82.0082 36.7552 83.8442 34.8172 83.8442 32.9812C83.8442 28.4932 74.0012 30.5332 74.0012 24.3622C74.0012 20.9962 76.9592 19.1602 80.8862 19.1602C82.9773 19.1602 84.7113 19.8232 85.9353 20.6392C85.3743 21.0982 85.2723 21.0982 84.9663 21.6592C84.7113 22.0672 84.3542 22.9342 84.3542 22.9342C83.8442 21.6592 82.7223 20.5372 80.6312 20.5372C78.4892 20.5372 77.0102 21.8632 77.0102 23.4952C77.0102 27.9832 87.2613 26.1982 87.2103 32.0122C87.1593 36.5002 83.8952 38.3872 78.9992 38.3872Z" fill="#1D1D1B"/>
<path d="M105.978 37.9803C105.621 37.9293 105.213 37.8273 104.856 37.8273C104.499 37.8273 104.091 37.9293 103.734 37.9803C102.459 33.2883 100.98 28.5963 99.3482 23.7513H99.2972C98.3282 26.8113 95.9312 33.5943 94.6052 37.9803C94.2482 37.9293 93.8912 37.8273 93.4832 37.8273C93.1262 37.8273 92.7182 37.9293 92.3612 37.9803C91.5962 35.0733 90.5252 30.8403 89.0972 26.3013C88.6892 24.8733 87.1082 20.4873 86.6492 19.5183C87.2612 19.6203 88.1282 19.6713 88.6892 19.6713C89.2502 19.6713 89.8112 19.6203 90.3722 19.5183C91.5452 24.5163 92.7692 28.9533 94.2992 34.2063H94.3502C95.5742 30.4833 98.3282 22.1193 98.9912 19.5183C99.3482 19.6203 99.7052 19.6713 100.062 19.6713C100.419 19.6713 100.776 19.6203 101.133 19.5183C101.745 22.1703 104.703 31.0443 105.621 34.2063H105.672C106.743 30.7383 109.395 21.7113 109.854 19.5183C110.16 19.6203 110.517 19.6713 110.823 19.6713C111.18 19.6713 111.486 19.6203 111.843 19.5183C111.129 21.8133 107.202 33.5943 105.978 37.9803Z" fill="#1D1D1B"/>
<path d="M57.1711 43.1288C57.0181 43.0268 56.8141 42.9248 56.6611 42.8738C56.5081 42.8228 56.3551 42.7208 56.2021 42.6698C56.0491 42.6188 55.9471 42.5168 55.8451 42.4148C55.7431 42.3128 55.7431 42.2108 55.7431 42.0068C55.7431 41.9048 55.7431 41.8028 55.7941 41.7518C55.8451 41.6498 55.8961 41.5988 55.9471 41.5478C55.9981 41.4968 56.1001 41.4458 56.1511 41.3948C56.3041 41.3438 56.5591 41.3438 56.6611 41.3948C56.7121 41.4458 56.8141 41.4968 56.8651 41.5478C56.9161 41.5988 56.9671 41.6498 56.9671 41.7008C57.0181 41.7518 57.0181 41.8538 57.0691 41.9048L57.1201 42.0068H57.4261V41.9048C57.4261 41.8028 57.4771 41.7008 57.4771 41.5988C57.4771 41.5478 57.5281 41.4458 57.5791 41.3948L57.6301 41.2928L57.5281 41.1908C57.3751 41.0888 57.2221 40.9868 57.0691 40.9358C56.7121 40.8338 56.2021 40.8338 55.8451 40.9358C55.6411 40.9868 55.4881 41.0888 55.3351 41.2418C55.1821 41.3438 55.0801 41.5478 55.0291 41.7008C54.9781 41.8538 54.9271 42.0578 54.9271 42.2618C54.9271 42.5678 54.9781 42.8228 55.1311 42.9758C55.2331 43.1288 55.3861 43.2818 55.5391 43.4348C55.6921 43.5368 55.8961 43.6388 56.0491 43.6898C56.2021 43.7408 56.4061 43.8428 56.5081 43.8938C56.6611 43.9448 56.7631 44.0468 56.8651 44.1488C56.9671 44.2508 56.9671 44.3528 56.9671 44.5568C56.9671 44.6588 56.9671 44.7608 56.9161 44.8628C56.8651 44.9648 56.8141 45.0668 56.7631 45.1178C56.7121 45.1688 56.6101 45.2708 56.5081 45.2708C56.3041 45.3728 56.0491 45.3728 55.8451 45.2708C55.7431 45.2198 55.6411 45.1688 55.5901 45.1178C55.5391 45.0668 55.4371 45.0158 55.3861 44.9138C55.3351 44.8628 55.2841 44.7608 55.2841 44.7098L55.2331 44.6078H54.9271V44.7608C54.9271 44.8628 54.8761 44.9648 54.8761 45.0668C54.8761 45.1178 54.8251 45.2198 54.8251 45.3218L54.7741 45.4238L54.8761 45.4748C54.9781 45.5768 55.1311 45.6788 55.3351 45.7298C55.5391 45.8318 55.7431 45.8318 56.0491 45.8318C56.3041 45.8318 56.5591 45.7808 56.7631 45.7298C56.9671 45.6278 57.1711 45.5258 57.3241 45.3728C57.4771 45.2198 57.5791 45.0158 57.6811 44.8118C57.7831 44.6078 57.7831 44.4038 57.7831 44.1488C57.7831 43.8938 57.7321 43.6388 57.5791 43.4858C57.4771 43.3328 57.3751 43.2308 57.1711 43.1288Z" fill="#1D1D1B"/>
<path d="M64.6171 40.8339L64.5151 40.7829L64.4641 40.8849C64.3621 41.0889 64.2601 41.2929 64.2091 41.4969C64.1071 41.7009 64.0051 41.9049 63.9031 42.1089C63.8011 42.3129 63.699 42.5169 63.597 42.7209C63.546 42.8229 63.4951 42.9249 63.4441 43.0269C63.2401 42.7209 63.0871 42.3639 62.9341 42.0579C62.7301 41.7009 62.526 41.2929 62.322 40.8849L62.271 40.7829L61.965 40.8339C61.8631 40.8339 61.761 40.8339 61.659 40.8339L61.149 40.7829L61.302 41.0889C61.353 41.1399 61.404 41.2419 61.506 41.3949L62.7301 43.4859C62.7811 43.5879 62.8831 43.6899 62.8831 43.7919C62.8831 44.1489 62.8831 44.4549 62.8831 44.8119C62.8831 45.1179 62.883 45.4239 62.832 45.6279V45.8319H63.0361C63.2401 45.8319 63.4441 45.8319 63.6481 45.8319H63.8521V45.6279C63.8521 45.5259 63.8521 45.4239 63.8521 45.2709C63.8521 45.1179 63.8521 44.9649 63.8521 44.7609C63.8521 44.5569 63.8521 44.4039 63.8521 44.1999C63.8521 44.0469 63.8521 43.8429 63.8521 43.6899C63.9031 43.5369 64.0051 43.4349 64.107 43.2819C64.209 43.1289 64.3111 42.9249 64.4641 42.7209C64.5661 42.5169 64.7191 42.2619 64.9231 42.0069C65.0761 41.7519 65.2801 41.4459 65.4841 41.1399L65.6881 40.8339L65.3311 40.9359C64.8211 40.8849 64.8721 40.8849 64.6171 40.8339Z" fill="#1D1D1B"/>
<path d="M72.8791 41.4451C72.6751 41.2411 72.4201 41.0881 72.1651 40.9351C71.7571 40.7821 71.1961 40.7311 70.6351 40.7821C70.3291 40.7821 69.9721 40.7821 69.6661 40.7821C69.5131 40.7821 69.3601 40.7821 69.1561 40.7821H69.0031L69.0541 41.8531C69.0541 42.1591 69.0541 42.4141 69.0541 42.7201V43.8931C69.0541 44.1991 69.0541 44.5051 69.0541 44.7601C69.0541 45.0661 69.0541 45.3211 69.0031 45.6271V45.7801H69.1561C69.3091 45.7801 69.4621 45.7801 69.5641 45.7801H70.0231C70.1761 45.7801 70.3291 45.7801 70.4821 45.7801C70.8901 45.7801 71.2981 45.7801 71.7571 45.6781C72.0631 45.5761 72.3181 45.4741 72.5731 45.2701C72.8281 45.0661 73.0321 44.8111 73.1851 44.4541C73.3381 44.1481 73.4401 43.7401 73.4401 43.2301C73.4401 42.8731 73.3891 42.5161 73.2871 42.2611C73.2361 41.9041 73.0831 41.6491 72.8791 41.4451ZM72.3181 44.2501C72.2161 44.5051 72.0631 44.7091 71.9101 44.8621C71.7571 45.0151 71.5531 45.1171 71.3491 45.1681C70.9411 45.2701 70.5331 45.2701 70.1761 45.2191C70.0741 45.2191 70.0231 45.2191 69.9211 45.2191C69.9211 44.8111 69.8701 44.3521 69.8701 43.8931V42.7201C69.8701 42.4651 69.8701 42.2611 69.8701 42.0061C69.8701 41.8021 69.8701 41.6491 69.8701 41.4451C69.9721 41.4451 70.0741 41.4451 70.1761 41.3941C70.5841 41.3431 71.0431 41.3431 71.4511 41.4451C71.6551 41.4961 71.8081 41.5981 71.9611 41.7001C72.1141 41.8531 72.2161 42.0061 72.3181 42.2611C72.4201 42.5161 72.4711 42.8221 72.4711 43.1791C72.4711 43.6381 72.4201 43.9951 72.3181 44.2501Z" fill="#1D1D1B"/>
<path d="M81.243 40.8341C81.192 40.8341 81.141 40.8341 81.039 40.7831L80.835 40.7321V40.9361C80.835 41.3441 80.886 41.7521 80.886 42.2111C80.886 42.6701 80.886 43.1291 80.886 43.5881V44.0981C80.733 43.9451 80.631 43.7921 80.478 43.6391L79.611 42.7211C79.305 42.4151 78.999 42.0581 78.693 41.7011L77.775 40.6811H77.418V40.8341C77.418 40.9871 77.418 41.1911 77.418 41.5481C77.418 41.8541 77.418 42.2111 77.418 42.6701C77.418 42.8231 77.418 42.9761 77.418 43.1801V43.7411C77.418 43.9451 77.418 44.1491 77.367 44.3531L77.316 44.9141C77.316 45.0671 77.316 45.2201 77.265 45.3221C77.265 45.4241 77.265 45.5261 77.214 45.5771L77.163 45.7811L77.367 45.7301C77.52 45.7301 77.673 45.7301 77.775 45.7301L77.979 45.7811L77.928 45.5771C77.928 45.5261 77.928 45.4751 77.928 45.3731L77.877 44.5571C77.877 44.4041 77.877 44.2511 77.877 44.0981V43.6391C77.877 43.4861 77.877 43.3841 77.877 43.2821C77.877 42.9251 77.877 42.6191 77.877 42.4151C77.877 42.3641 77.877 42.3131 77.877 42.3131C78.336 42.8231 78.846 43.3841 79.305 43.8941C79.866 44.5061 80.427 45.1181 80.937 45.7301L80.988 45.7811H81.294V45.4241C81.294 45.3221 81.294 45.1691 81.294 45.0161V44.0471C81.294 43.8941 81.294 43.7411 81.294 43.5881V43.1801C81.294 43.0271 81.294 42.8741 81.294 42.6701C81.294 42.4661 81.294 42.2111 81.345 42.0071C81.345 41.8031 81.345 41.5481 81.396 41.3951C81.396 41.1911 81.396 41.0381 81.447 40.9361V40.7321L81.243 40.7831C81.345 40.8341 81.243 40.8341 81.243 40.8341Z" fill="#1D1D1B"/>
<path d="M88.4851 45.2709L88.5361 45.0159L88.2811 45.0669C88.1791 45.0669 88.0771 45.1179 87.9241 45.1179C87.7711 45.1179 87.6181 45.1179 87.4651 45.1689C87.3121 45.1689 87.1591 45.1689 87.0061 45.1689H86.7001C86.7001 45.1179 86.7001 45.0159 86.7001 44.9649C86.7001 44.8119 86.7001 44.6079 86.7001 44.3529V43.6389C86.7001 43.5879 86.7001 43.5369 86.7001 43.4859C86.7511 43.4859 86.8021 43.4859 86.8531 43.4859H87.2611C87.4141 43.4859 87.5671 43.4859 87.7201 43.4859C87.8731 43.4859 87.9751 43.4859 88.1281 43.5369L88.3321 43.5879L88.2811 43.3839C88.2811 43.3329 88.2811 43.2819 88.2811 43.2309C88.2811 43.1799 88.2811 43.1289 88.2811 43.0269L88.3321 42.8229H88.1281C88.0261 42.8229 87.9241 42.8229 87.8221 42.8229H87.4651C87.3631 42.8229 87.2101 42.8229 87.0571 42.8229C86.9551 42.8229 86.8531 42.8229 86.7001 42.8229C86.7001 42.7719 86.7001 42.6699 86.7001 42.6189C86.7001 42.4659 86.7001 42.2619 86.7001 42.1089C86.7001 41.9559 86.7001 41.8029 86.7001 41.6499C86.7001 41.5479 86.7001 41.4969 86.7001 41.3949C86.8531 41.3949 86.9551 41.3949 87.1081 41.3949C87.2611 41.3949 87.4141 41.3949 87.5161 41.3949L87.8731 41.4459C87.9751 41.4459 88.1281 41.4459 88.2811 41.4969H88.4851L88.4341 41.2929C88.4341 41.2419 88.4341 41.1909 88.4341 41.1399C88.4341 41.0889 88.4341 41.0379 88.4341 40.9869L88.4851 40.7829L87.7201 40.8339C87.3631 40.8339 86.9551 40.8339 86.5471 40.8339C86.3431 40.8339 86.1391 40.8339 85.9351 40.8339H85.7821V40.9869C85.7821 41.2929 85.7821 41.5479 85.8331 41.8539C85.8331 42.1599 85.8331 42.4149 85.8331 42.7209V43.8939C85.8331 44.1999 85.8331 44.4549 85.8331 44.7609C85.8331 45.0669 85.8331 45.3219 85.7821 45.6279V45.7809H85.9351C86.1391 45.7809 86.3431 45.7809 86.5471 45.7809H87.7201C87.9241 45.7809 88.1281 45.7809 88.2811 45.7809H88.4851L88.4341 45.5769C88.4341 45.5769 88.4341 45.5259 88.4341 45.4239C88.4341 45.3729 88.4341 45.3729 88.4341 45.3219C88.4341 45.3219 88.4341 45.2709 88.4851 45.2709Z" fill="#1D1D1B"/>
<path d="M95.778 40.8339C95.523 40.8849 95.574 40.8849 95.319 40.8339L95.217 40.7829L95.166 40.8849C95.064 41.0889 94.962 41.2929 94.911 41.4969C94.809 41.7009 94.707 41.9049 94.605 42.1089C94.503 42.3129 94.401 42.5169 94.299 42.7209C94.248 42.8229 94.197 42.9249 94.146 43.0269C93.942 42.7209 93.789 42.3639 93.636 42.0579C93.432 41.7009 93.228 41.2929 93.024 40.8849L92.973 40.7829L92.667 40.8339C92.565 40.8339 92.463 40.8339 92.361 40.8339L91.851 40.7829L92.004 41.0889C92.055 41.1399 92.106 41.2419 92.208 41.3949L93.432 43.4859C93.483 43.5879 93.585 43.6899 93.585 43.7919C93.585 44.1489 93.585 44.4549 93.585 44.8119C93.585 45.1179 93.585 45.4239 93.534 45.6279V45.8319H93.738C93.942 45.8319 94.146 45.8319 94.35 45.8319H94.554V45.6279C94.554 45.5259 94.554 45.4239 94.554 45.2709C94.554 45.1179 94.554 44.9649 94.554 44.7609C94.554 44.5569 94.554 44.4039 94.554 44.1999C94.554 44.0469 94.554 43.8429 94.554 43.6899C94.605 43.5369 94.707 43.4349 94.809 43.2819C94.911 43.1289 95.013 42.9249 95.166 42.7209C95.268 42.5169 95.421 42.2619 95.625 42.0069C95.778 41.7519 95.982 41.4459 96.186 41.1399L96.39 40.8339H95.778Z" fill="#1D1D1B"/>
</svg>
