<svg width="121" height="70" viewBox="0 0 121 70" fill="none" xmlns="http://www.w3.org/2000/svg">
<g clip-path="url(#clip0_1683_16942)">
<path d="M2.41059 33.2889C1.35565 33.2889 0.5 34.0549 0.5 34.9982C0.5 35.9425 1.35565 36.7084 2.41059 36.7084C3.46554 36.7084 4.32119 35.9425 4.32119 34.9982C4.32119 34.0549 3.46554 33.2889 2.41059 33.2889ZM8.96359 39.0416C7.7876 39.0416 6.83386 39.8952 6.83386 40.947C6.83386 41.9998 7.7876 42.8524 8.96359 42.8524C10.1396 42.8524 11.0933 41.9998 11.0933 40.947C11.0933 39.8952 10.1396 39.0416 8.96359 39.0416ZM8.96359 33.0093C7.73542 33.0093 6.73995 33.8994 6.73995 34.9982C6.73995 36.0969 7.73542 36.9881 8.96359 36.9881C10.1918 36.9881 11.1872 36.0969 11.1872 34.9982C11.1872 33.8994 10.1918 33.0093 8.96359 33.0093ZM8.96359 27.144C7.7876 27.144 6.83386 27.9975 6.83386 29.0493C6.83386 30.1022 7.7876 30.9558 8.96359 30.9558C10.1396 30.9558 11.0933 30.1022 11.0933 29.0493C11.0933 27.9975 10.1396 27.144 8.96359 27.144ZM28.6236 32.1683C26.8768 32.1683 25.4609 33.435 25.4609 34.9982C25.4609 36.5613 26.8768 37.8291 28.6236 37.8291C30.3704 37.8291 31.7874 36.5613 31.7874 34.9982C31.7874 33.435 30.3704 32.1683 28.6236 32.1683ZM21.984 38.4813C20.4616 38.4813 19.2282 39.5852 19.2282 40.947C19.2282 42.3087 20.4616 43.4137 21.984 43.4137C23.5054 43.4137 24.7398 42.3087 24.7398 40.947C24.7398 39.5852 23.5054 38.4813 21.984 38.4813ZM21.984 32.4479C20.4094 32.4479 19.1343 33.5905 19.1343 34.9982C19.1343 36.4068 20.4094 37.5484 21.984 37.5484C23.5576 37.5484 24.8337 36.4068 24.8337 34.9982C24.8337 33.5905 23.5576 32.4479 21.984 32.4479ZM21.984 26.5836C20.4616 26.5836 19.2282 27.6876 19.2282 29.0493C19.2282 30.4121 20.4616 31.5161 21.984 31.5161C23.5054 31.5161 24.7398 30.4121 24.7398 29.0493C24.7398 27.6876 23.5054 26.5836 21.984 26.5836ZM15.5155 44.7932C14.2185 44.7932 13.1667 45.7344 13.1667 46.8948C13.1667 48.0561 14.2185 48.9974 15.5155 48.9974C16.8126 48.9974 17.8644 48.0561 17.8644 46.8948C17.8644 45.7344 16.8126 44.7932 15.5155 44.7932ZM15.5155 38.7609C14.1663 38.7609 13.0728 39.7397 13.0728 40.947C13.0728 42.1543 14.1663 43.133 15.5155 43.133C16.8647 43.133 17.9583 42.1543 17.9583 40.947C17.9583 39.7397 16.8647 38.7609 15.5155 38.7609ZM15.5155 32.7286C14.1142 32.7286 12.9789 33.7449 12.9789 34.9982C12.9789 36.2524 14.1142 37.2687 15.5155 37.2687C16.9169 37.2687 18.0522 36.2524 18.0522 34.9982C18.0522 33.7449 16.9169 32.7286 15.5155 32.7286ZM15.5155 26.8633C14.1663 26.8633 13.0728 27.842 13.0728 29.0493C13.0728 30.2566 14.1663 31.2354 15.5155 31.2354C16.8647 31.2354 17.9583 30.2566 17.9583 29.0493C17.9583 27.842 16.8647 26.8633 15.5155 26.8633ZM17.8644 23.1015C17.8644 24.2619 16.8126 25.2031 15.5155 25.2031C14.2185 25.2031 13.1667 24.2619 13.1667 23.1015C13.1667 21.9412 14.2185 21 15.5155 21C16.8126 21 17.8644 21.9412 17.8644 23.1015Z" fill="#00B3BD"/>
<path d="M55.8166 31.3125C55.5902 31.3125 55.4045 31.4784 55.4045 31.6819V46.5253C55.4045 46.7287 55.5902 46.8946 55.8166 46.8946H57.8118C58.0392 46.8946 58.225 46.7287 58.225 46.5253V31.6819C58.225 31.4784 58.0392 31.3125 57.8118 31.3125H55.8166Z" fill="#002B3D"/>
<path d="M56.8142 25.0757C55.7613 25.0757 54.9045 25.8427 54.9045 26.785C54.9045 27.7274 55.7613 28.4944 56.8142 28.4944C57.8672 28.4944 58.725 27.7274 58.725 26.785C58.725 25.8427 57.8672 25.0757 56.8142 25.0757Z" fill="#002B3D"/>
<path d="M98.4117 31.3125C98.1853 31.3125 97.9996 31.4784 97.9996 31.6819V46.5253C97.9996 46.7287 98.1853 46.8946 98.4117 46.8946H100.407C100.634 46.8946 100.82 46.7287 100.82 46.5253V31.6819C100.82 31.4784 100.634 31.3125 100.407 31.3125H98.4117Z" fill="#002B3D"/>
<path d="M99.4092 25.0769C98.3636 25.0769 97.4859 25.8439 97.4859 26.7863C97.4859 27.7286 98.3636 28.4956 99.4092 28.4956C100.455 28.4956 101.306 27.7286 101.306 26.7863C101.306 25.8439 100.455 25.0769 99.4092 25.0769Z" fill="#002B3D"/>
<path d="M118.762 45.5936V45.1093H119.145C119.258 45.1093 119.347 45.1302 119.41 45.173C119.475 45.2147 119.506 45.2711 119.506 45.341V45.3483C119.506 45.4297 119.471 45.4913 119.399 45.533C119.327 45.5737 119.236 45.5936 119.126 45.5936H118.762ZM119.575 45.5904C119.647 45.5299 119.684 45.4464 119.684 45.341V45.3337C119.684 45.2847 119.672 45.2398 119.651 45.1991C119.631 45.1584 119.605 45.1229 119.573 45.0958C119.528 45.0551 119.47 45.0238 119.397 45.0008C119.324 44.9768 119.242 44.9653 119.154 44.9653H118.593V46.251H118.762V45.7344H119.087H119.094L119.55 46.251H119.769L119.29 45.7094C119.408 45.6917 119.503 45.651 119.575 45.5904Z" fill="#002B3D"/>
<path d="M119.089 46.7666C118.391 46.7666 117.823 46.2584 117.823 45.6343C117.823 45.0092 118.391 44.501 119.089 44.501C119.787 44.501 120.355 45.0092 120.355 45.6343C120.355 46.2584 119.787 46.7666 119.089 46.7666ZM119.089 44.3716C118.312 44.3716 117.678 44.9382 117.678 45.6343C117.678 46.3304 118.312 46.896 119.089 46.896C119.867 46.896 120.5 46.3304 120.5 45.6343C120.5 44.9382 119.867 44.3716 119.089 44.3716Z" fill="#002B3D"/>
<path d="M72.2764 33.8367C72.5029 33.8367 72.6886 33.6708 72.6886 33.4673V31.6819C72.6886 31.4784 72.5029 31.3125 72.2764 31.3125H68.0233V25.5933C68.0233 25.3898 67.8375 25.2239 67.6101 25.2239H65.6149C65.3875 25.2239 65.2017 25.3898 65.2017 25.5933V31.3125H63.0616C62.8351 31.3125 62.6494 31.4784 62.6494 31.6819V33.4673C62.6494 33.6708 62.8351 33.8367 63.0616 33.8367H65.2017V42.4954C65.2017 45.126 67.177 46.8936 70.1165 46.8936H72.2764C72.5029 46.8936 72.6886 46.7277 72.6886 46.5242V44.7389C72.6886 44.5354 72.5029 44.3695 72.2764 44.3695H70.3659C68.9864 44.3695 68.0233 43.4836 68.0233 42.2147V33.8367H72.2764Z" fill="#002B3D"/>
<path d="M114.447 33.8367C114.674 33.8367 114.859 33.6708 114.859 33.4673V31.6819C114.859 31.4784 114.674 31.3125 114.447 31.3125H110.194V25.5933C110.194 25.3898 110.008 25.2239 109.781 25.2239H107.786C107.558 25.2239 107.373 25.3898 107.373 25.5933V31.3125H105.232C105.006 31.3125 104.82 31.4784 104.82 31.6819V33.4673C104.82 33.6708 105.006 33.8367 105.232 33.8367H107.373V42.4954C107.373 45.126 109.348 46.8936 112.287 46.8936H114.447C114.674 46.8936 114.859 46.7277 114.859 46.5242V44.7389C114.859 44.5354 114.674 44.3695 114.447 44.3695H112.537C111.157 44.3695 110.194 43.4836 110.194 42.2147V33.8367H114.447Z" fill="#002B3D"/>
<path d="M43.2063 33.8369V46.5254C43.2063 46.7289 43.392 46.8948 43.6185 46.8948H45.6146C45.8411 46.8948 46.0268 46.7289 46.0268 46.5254V33.8369H50.7193C50.9468 33.8369 51.1325 33.6709 51.1325 33.4675V31.6821C51.1325 31.4786 50.9468 31.3127 50.7193 31.3127H46.0268V27.8797C46.0268 26.5941 47.0348 25.6247 48.3704 25.6247H50.7193C50.9468 25.6247 51.1325 25.4588 51.1325 25.2554V23.47C51.1325 23.2675 50.9468 23.1006 50.7193 23.1006H48.5457C45.6021 23.1006 43.2063 25.2449 43.2063 27.8797V31.3127H41.0662C40.8387 31.3127 40.6529 31.4786 40.6529 31.6821V33.4675C40.6529 33.6709 40.8387 33.8369 41.0662 33.8369H43.2063Z" fill="#002B3D"/>
<path d="M85.4949 44.9539C81.2355 44.9539 79.7183 41.9352 79.7183 39.1084C79.7183 35.6368 82.04 33.3036 85.4949 33.3036C88.9509 33.3036 91.2726 35.6368 91.2726 39.1084C91.2726 41.9352 89.7544 44.9539 85.4949 44.9539ZM91.6806 33.1199C90.1164 31.609 87.9199 30.7773 85.4949 30.7773C83.3161 30.7773 81.0351 31.6434 79.7193 32.9039V23.471C79.7193 23.2675 79.5336 23.1016 79.3061 23.1016H77.3078C77.0804 23.1016 76.8946 23.2675 76.8946 23.471V39.1084C76.8946 44.8924 81.2146 47.4812 85.4949 47.4812C89.7763 47.4812 94.0952 44.8924 94.0952 39.1084C94.0952 36.7168 93.2604 34.6455 91.6806 33.1199Z" fill="#002B3D"/>
</g>
<defs>
<clipPath id="clip0_1683_16942">
<rect width="120" height="70" fill="white" transform="translate(0.5)"/>
</clipPath>
</defs>
</svg>
