<svg width="120" height="70" viewBox="0 0 120 70" fill="none" xmlns="http://www.w3.org/2000/svg">
<path d="M119 55.848C100.796 55.848 83.4997 55.8746 65.2961 55.8746C64.7639 55.8746 64.0985 56.0077 64.0453 55.2093C64.0187 54.4109 64.7106 54.6504 65.1365 54.6504C83.3933 54.6504 100.743 54.677 119 54.677C119.5 54.677 119.5 55.848 119 55.848Z" fill="#848687"/>
<path d="M50.0465 58.2163C48.4497 57.8171 46.8529 57.3913 45.2295 57.0719C44.5109 56.9389 43.9787 56.5397 43.3399 56.2735C42.9141 56.1138 42.6746 55.6348 43.2601 55.2622C44.8569 56.3001 46.7199 56.6195 48.5296 56.859C50.5256 57.0985 52.5216 57.9236 54.5708 56.9921C54.8902 56.8324 55.3426 56.9655 55.662 57.2848C55.2894 58.03 54.3845 57.7107 53.9055 58.2163C52.6014 58.2163 51.324 58.2163 50.0465 58.2163Z" fill="#D9D7D7"/>
<path d="M102.102 35.8349C101.73 36.2075 101.89 36.6865 101.89 37.0857C101.89 41.2108 101.89 45.3359 101.943 49.461C101.969 50.4989 101.65 50.8183 100.612 50.7917C97.658 50.7118 98.1903 51.0578 98.1637 48.3698C98.137 43.473 98.1903 38.5495 98.1104 33.6526C98.0838 32.5881 98.4298 32.2953 99.4411 32.3219C100.878 32.4018 102.289 32.3752 103.726 32.3219C104.551 32.2953 105.003 32.6413 105.403 33.3333C108.037 37.8043 110.938 42.1689 113.253 46.8263C113.413 47.1456 113.573 47.3319 113.919 47.2255C114.371 47.0924 114.105 46.7997 114.078 46.5335C113.733 42.1689 114.025 37.8043 113.892 33.4397C113.866 32.7211 114.238 32.3219 114.957 32.3486C118.443 32.3752 117.991 31.9227 117.991 35.0897C117.991 39.8535 117.964 44.6174 118.017 49.3812C118.044 50.4723 117.751 50.9247 116.607 50.7917C115.968 50.7118 115.329 50.7651 114.691 50.7917C110.911 50.7917 110.911 50.7917 109.022 47.6247C107.079 44.3778 105.19 41.1044 103.273 37.8575C102.927 37.1656 102.874 36.314 102.102 35.8349Z" fill="#F15C2A"/>
<path d="M2.96739 41.5831C2.96739 38.9217 3.02062 36.287 2.94078 33.6257C2.91416 32.5611 3.28675 32.295 4.29806 32.3216C7.5449 32.3748 10.7917 32.295 14.0652 32.3748C15.316 32.4014 16.6201 32.6143 17.8177 32.9603C19.9734 33.6257 21.3573 35.2225 21.517 37.4048C21.7299 40.4653 21.8097 43.5259 21.171 46.613C20.6653 49.0614 19.2814 50.1792 16.5935 50.5252C12.3353 51.0841 8.02394 50.6583 3.73918 50.7381C2.86093 50.7647 2.994 50.1792 2.994 49.6469C2.96739 46.9856 2.96739 44.2976 2.96739 41.5831Z" fill="#F15D2B"/>
<path d="M20.346 19.8665C20.346 22.3682 20.3194 24.8698 20.3726 27.3715C20.3992 28.1965 20.1597 28.4893 19.3081 28.4893C15.7152 28.436 16.4604 28.7554 16.4072 25.7747C16.3806 24.5505 16.3806 23.3262 16.4338 22.102C16.4604 21.3569 16.2741 21.0375 15.4491 21.0641C12.9474 21.0907 10.4192 21.1173 7.9175 21.0641C7.19894 21.0641 6.98603 21.277 7.01264 21.9956C7.06587 23.7254 6.98603 25.4287 7.06587 27.1586C7.1191 28.1965 6.69328 28.5159 5.70858 28.5159C3.04724 28.5425 3.04724 28.5691 3.04724 25.961C3.04724 22.3149 2.99401 18.6955 3.07385 15.0761C3.10047 13.8785 2.72788 13.4793 1.61011 13.6656C0.439122 13.8519 -0.093147 13.4793 0.0133067 12.1752C-0.0133067 11.297 0.252828 11.0308 1.05123 11.0574C2.5682 11.1107 4.11178 11.0841 5.62874 11.0574C6.64005 11.0308 7.01264 11.5099 6.98603 12.468C6.9328 14.0382 6.98603 15.6083 6.90619 17.1785C6.85296 18.0302 7.14571 18.3229 7.97073 18.2963C10.3925 18.2697 12.8144 18.2431 15.2096 18.2963C16.1677 18.3229 16.3806 17.8971 16.354 17.0455C16.3007 15.5285 16.3806 14.0115 16.3007 12.4946C16.2475 11.3768 16.6733 10.951 17.7379 11.0841C17.7911 11.0841 17.8443 11.0841 17.8975 11.0841C20.479 11.1107 20.3194 10.7381 20.2927 13.3994C20.3194 15.5285 20.346 17.7108 20.346 19.8665Z" fill="#0B0D0E"/>
<path d="M28.1704 11.1108C31.0446 11.0309 33.8923 10.8446 36.7399 11.5898C38.3101 11.989 39.4279 12.814 39.8271 14.331C40.8118 18.0036 40.7319 21.7295 39.8271 25.4022C39.2682 27.6909 37.2722 28.17 35.2762 28.4095C32.535 28.7555 29.7672 28.7289 26.9994 28.3829C25.0034 28.1434 23.1671 27.1054 22.6348 24.4175C21.9961 21.0908 22.209 17.8972 22.7945 14.6503C23.1138 12.9205 24.1784 11.643 26.0413 11.4035C26.68 11.2438 27.2921 11.2438 28.1704 11.1108Z" fill="#090B0D"/>
<path d="M24.0718 41.716C24.0718 39.1079 24.0985 36.4998 24.0452 33.9183C24.0186 32.7739 24.471 32.3481 25.5888 32.3747C29.634 32.4013 33.6793 32.4279 37.7245 32.3747C39.135 32.3481 38.8423 33.2263 38.8955 34.0247C38.9487 34.9296 38.8157 35.5151 37.6447 35.4619C34.9833 35.382 32.322 35.4619 29.6607 35.4086C28.5695 35.382 28.0905 35.5949 28.1171 36.8458C28.1969 40.1724 28.1437 40.1724 31.4704 40.1724C33.3865 40.1724 35.3293 40.2257 37.2455 40.1458C38.31 40.0926 38.3366 40.6515 38.31 41.4233C38.2834 42.1684 38.3633 42.887 37.1923 42.8604C34.6374 42.7806 32.0559 42.887 29.501 42.8072C28.3832 42.7806 28.1171 43.1265 28.1171 44.2177C28.1703 47.9169 28.1437 47.9169 31.9228 47.9169C33.9454 47.9169 35.968 47.9702 37.9907 47.8903C38.9754 47.8637 39.0552 48.3694 38.9754 49.0613C38.8955 49.7267 39.4544 50.7912 38.0705 50.7912C33.7857 50.7912 29.501 50.7912 25.1896 50.7912C24.3114 50.7912 24.0186 50.4186 24.0452 49.5138C24.0985 46.9056 24.0718 44.2975 24.0718 41.716Z" fill="#F15E2D"/>
<path d="M74.3447 11.5899C76.1278 12.1488 77.2988 13.9053 76.9262 15.6085C76.8729 15.848 76.6334 16.1142 76.2608 16.1142C75.3826 16.1142 74.4777 16.0876 73.5995 16.1142C73.0938 16.1142 73.1204 15.7682 73.0672 15.4222C72.9075 14.2512 72.1624 13.7722 71.0446 13.7456C69.9002 13.719 68.7825 13.6923 67.6381 13.7456C65.7219 13.8254 64.9767 14.4375 64.9235 15.9013C64.8703 17.4715 65.4824 18.0303 67.5848 18.2432C69.6341 18.4295 71.7099 18.3497 73.7592 18.7489C76.5536 19.2812 77.3254 20.053 77.2988 22.8474C77.2721 23.9651 77.4052 25.0563 76.9262 26.2273C76.3141 27.7442 75.1164 28.1434 73.839 28.3564C70.7252 28.862 67.5582 28.6225 64.4178 28.4362C62.6081 28.3297 61.3573 26.9192 60.9581 24.9232C60.3992 23.1667 60.7186 22.6877 62.5283 22.7409C63.167 22.7409 63.8856 22.4748 64.4977 22.9538C65.3227 26.041 65.3227 26.041 68.676 26.0676C69.5542 26.0676 70.4591 26.1208 71.3373 26.0144C72.8809 25.8547 73.5995 24.9498 73.6793 23.4595C73.7592 21.9691 72.7745 21.4369 71.3107 21.1973C70.0599 20.9844 68.7558 21.011 67.4784 21.0909C66.0146 21.1973 64.684 20.6385 63.3001 20.3989C62.3952 20.2393 61.7033 19.5473 61.3573 18.5892C60.6653 16.7263 60.7186 12.9206 62.7944 11.9891C63.9122 11.4834 65.03 11.0576 66.2808 11.0576C68.3566 11.0576 70.4059 11.0842 72.4817 11.0842C73.2535 11.0576 73.7592 11.3238 74.3447 11.5899Z" fill="#090B0D"/>
<path d="M79.6673 19.7068C79.6673 17.2583 79.6939 14.7833 79.6407 12.3348C79.6141 11.43 79.827 11.0308 80.8383 11.0574C84.6972 11.1106 88.5296 11.1372 92.3885 11.0574C93.6127 11.0308 93.5861 11.6429 93.6127 12.5211C93.6394 13.426 93.5861 14.0115 92.3885 13.9849C89.8869 13.905 87.3586 13.9849 84.8303 13.9316C83.9787 13.9316 83.6061 14.1446 83.6061 15.1026C83.6061 18.4027 83.5529 18.4027 86.9062 18.4027C88.5828 18.4027 90.2594 18.4559 91.9361 18.3761C93.0539 18.3229 93.0805 18.935 93.1071 19.76C93.1337 20.6382 92.7877 21.0108 91.9095 21.0108C89.5409 20.9842 87.1723 21.0108 84.8037 20.9842C83.9254 20.9842 83.4198 21.0907 83.6061 22.1818C83.819 23.273 83.127 24.7367 83.8456 25.402C84.6174 26.1472 86.1077 25.615 87.2787 25.6416C89.0086 25.6948 90.7385 25.6948 92.4684 25.6416C93.5861 25.615 93.7192 26.1206 93.7458 27.0787C93.7458 28.0102 93.6926 28.5424 92.5216 28.5158C88.636 28.4626 84.7239 28.4626 80.8383 28.5158C79.827 28.5424 79.6141 28.1698 79.6407 27.2384C79.6939 24.7101 79.6673 22.2084 79.6673 19.7068Z" fill="#0C0E0F"/>
<path d="M59.308 18.536C59.308 20.3989 59.2814 22.2619 59.308 24.1248C59.3346 26.6797 57.6313 28.037 55.3958 28.3564C52.4151 28.7822 49.3812 28.7023 46.4005 28.3564C44.1117 28.0902 42.648 26.5733 42.5947 24.3377C42.4883 20.2659 42.5149 16.194 42.4883 12.0955C42.4883 11.4302 42.648 11.031 43.473 11.031C46.7997 11.1108 46.2674 10.6584 46.2674 13.6657C46.294 16.673 46.2674 19.6538 46.2674 22.6611C46.2674 24.8434 46.6932 25.2692 48.8223 25.6152C50.3925 25.8813 51.9627 25.7482 53.5329 25.5886C55.103 25.4289 55.5821 24.524 55.6087 23.1933C55.6353 19.6538 55.6619 16.1142 55.5821 12.5746C55.5555 11.377 55.8482 10.9512 57.0991 11.0044C59.308 11.1108 59.3346 11.031 59.308 13.1867C59.308 14.9432 59.308 16.7263 59.308 18.4828C59.3346 18.536 59.308 18.536 59.308 18.536Z" fill="#090B0C"/>
<path d="M47.9708 31.5764C49.3281 31.3635 50.6853 30.9643 52.0958 31.0974C51.191 32.295 50.9781 34.0781 49.195 34.5571C49.0087 34.6103 49.0619 34.9031 49.1684 35.0628C49.2216 35.1692 49.3014 35.2757 49.3547 35.3821C49.4877 35.6483 49.7539 35.8346 49.8071 36.1273C50.2861 37.5112 51.191 38.4161 52.5217 39.0548C54.704 40.0927 56.6734 41.5032 58.6428 42.8871C59.867 43.7121 60.9049 44.7234 61.6767 45.9743C61.7565 46.0807 61.6767 46.3203 61.8896 46.2936C61.9428 46.2936 61.9694 46.0275 62.0493 45.8944C62.1557 45.788 62.2622 45.788 62.3953 45.8944C63.034 49.3276 60.8517 52.3083 57.4451 52.8672C57.0193 52.947 56.8597 53.1333 56.8064 53.5059C55.9814 54.4374 54.8636 54.4906 53.7459 54.4906C52.6015 54.5172 51.4837 54.5172 50.3394 54.4906C49.541 54.4906 48.7426 54.6236 47.9974 54.1978C47.4917 53.4527 47.9441 52.7341 48.0506 51.9889C48.1571 51.2703 48.0772 50.5518 48.1571 49.8332C48.4764 48.5824 49.3014 47.8106 50.5257 47.438C50.6853 47.4114 50.8184 47.4646 50.9515 47.5179C51.67 48.8219 51.7765 50.4719 53.2136 51.3236C53.6927 51.5897 54.2515 52.3083 54.7838 51.3502C55.0766 50.8179 55.7153 50.605 56.0346 50.0994C56.6734 49.3542 56.4338 48.6622 55.9814 47.9437C55.3693 46.8791 54.2515 46.613 53.2136 46.1872C52.9209 45.7614 52.4152 45.5485 52.016 45.2025C52.2289 44.0315 53.3201 44.4839 54.2249 44.0049C52.7878 43.0734 51.67 41.929 50.2329 41.1572C48.9022 39.6935 47.8643 38.0169 46.5336 36.5531C46.374 36.2338 46.3473 35.8878 46.3473 35.5418C46.3207 34.2378 45.7352 33.4127 44.4312 33.1466C44.1384 33.0934 43.8457 33.0135 43.686 32.7208C43.6062 31.8692 44.2715 31.8958 44.8038 31.7893C45.6288 31.7361 46.507 31.9756 47.2788 31.4433C47.5449 31.47 47.7579 31.47 47.9708 31.5764Z" fill="#F69632"/>
<path d="M73.7326 43.7388C73.7326 45.7614 73.7059 47.7574 73.7592 49.78C73.7858 50.5518 73.5197 50.7647 72.7479 50.8179C69.6341 50.951 69.6341 50.9776 69.6341 47.9437C69.6341 44.617 69.6607 41.2637 69.6075 37.937C69.5809 36.9789 69.8736 36.6596 70.8317 36.6596C73.7059 36.6064 73.7059 36.5797 73.7059 39.454C73.7326 40.8911 73.7326 42.3016 73.7326 43.7388Z" fill="#F15D2C"/>
<path d="M22.1024 55.8749C16.2475 55.8749 10.3659 55.8749 4.51094 55.8749C4.11174 55.8749 3.71253 55.8749 3.33995 55.8216C2.96736 55.7684 2.94075 55.4224 2.96736 55.1297C2.96736 54.8369 3.12704 54.6772 3.41979 54.6506C3.76576 54.624 4.11174 54.624 4.45771 54.624C16.2741 54.624 28.0904 54.624 39.9334 54.624C40.2262 54.624 40.5189 54.624 40.8117 54.624C41.1044 54.6506 41.4238 54.7039 41.4504 55.0765C41.477 55.4757 41.2641 55.7418 40.8915 55.8216C40.5189 55.8749 40.1197 55.8749 39.7205 55.8749C33.8123 55.8749 27.9574 55.8749 22.1024 55.8749Z" fill="#848686"/>
<path d="M55.6621 57.2847C54.4911 57.1516 53.5064 58.0033 52.362 57.8702C49.6475 57.5242 46.9329 57.2315 44.3248 56.3266C43.7925 56.1403 43.3135 55.9274 43.2603 55.2887C44.6175 54.7564 45.9482 54.1975 47.4119 54.0112C47.4652 54.0645 47.5184 54.0911 47.5716 54.1443C48.1571 55.3419 49.2483 55.475 50.4193 55.5016C50.9515 55.5016 51.4838 55.6347 52.0161 55.7145C52.9209 55.8476 53.6661 55.6879 53.879 54.5967C54.225 54.3572 54.6508 54.304 54.9702 54.5169C55.9549 55.1024 56.4339 54.5435 56.8863 53.7983C57.9775 54.2774 59.3614 53.7983 60.3195 54.9427C59.0686 56.2468 57.1258 56.3266 55.6621 57.2847Z" fill="#202122"/>
<path d="M50.366 41.0509C52.2289 41.6364 53.4798 43.1001 55.1564 44.3509C54.0386 44.9098 52.8144 44.2179 52.1491 45.2558C52.2822 45.4687 52.2821 45.6816 52.1225 45.8945C51.6168 46.1606 51.2442 45.8679 50.8983 45.5751C49.674 44.3243 48.2901 43.2332 47.3321 41.7694C47.1191 41.3702 47.2522 41.1041 47.678 40.9444C48.4232 40.9178 49.0087 41.8493 49.8337 41.2638C49.9934 41.1573 50.1797 41.0775 50.366 41.0509Z" fill="#EF6327"/>
<path d="M71.8963 35.2758C70.4326 35.2758 68.8358 33.8653 68.889 32.6145C68.9688 31.337 70.5124 30.0063 71.9495 30.0063C73.3334 30.0063 75.0633 31.4435 75.1697 32.6943C75.2496 33.7322 73.2536 35.2758 71.8963 35.2758Z" fill="#F26433"/>
<path d="M108.942 19.3341C109.155 20.026 108.649 19.9462 108.224 20.026C106.973 20.2655 106.84 20.5317 107.159 21.7027C107.665 22.2083 108.463 21.7293 108.969 22.2616C109.102 22.9269 108.596 22.8737 108.25 22.8204C107.239 22.6608 107.132 23.2196 107.186 24.018C107.239 25.0294 107.186 26.0673 107.212 27.1052C107.239 27.6641 107.106 28.1431 106.494 28.1431C105.749 28.1697 106.041 27.531 106.015 27.1584C105.961 26.1205 106.015 25.1092 105.988 24.0713C105.988 23.4858 106.174 22.847 105.163 22.7672C104.657 22.714 104.578 22.1285 105.296 21.9954C105.828 21.889 106.094 21.5962 106.015 21.0906C105.855 20.1059 106.494 19.7333 107.212 19.3873C107.771 19.0679 108.357 18.8284 108.942 19.3341Z" fill="#373537"/>
<path d="M43.2069 37.2718C42.4884 36.5798 42.1956 35.7814 42.3819 34.7967C42.4351 34.4508 42.4085 34.158 42.2222 33.8386C41.7166 32.9338 41.5569 31.9491 42.3021 31.1507C43.0472 30.3789 44.0053 29.8732 45.1497 30.4587C45.3626 30.5652 45.6287 30.5386 45.8683 30.5918C46.1078 30.9112 45.9481 31.1241 45.682 31.3104C45.2295 31.5233 44.7239 31.4434 44.2182 31.5233C43.4198 31.6563 42.9408 32.0289 43.1271 32.9072C43.2069 33.333 43.6593 33.333 43.9255 33.5725C44.1916 34.7435 44.99 35.5685 45.7352 36.4468C45.8416 36.5266 45.9215 36.6597 45.9747 36.7661C46.0279 37.0589 45.9481 37.325 45.8416 37.5911C45.682 37.9637 45.4158 38.15 45.0166 38.1234C44.8836 38.0968 44.7505 38.0702 44.6174 38.017C44.2182 37.5911 43.6061 37.6444 43.2069 37.2718Z" fill="#36383A"/>
<path d="M56.3806 30.592C57.4984 30.7251 58.9621 29.8469 59.5476 31.63C59.5476 31.9227 59.4412 32.1888 59.2815 32.455C58.8291 32.9606 59.1484 33.8389 58.4831 34.2381C57.2323 34.5308 55.9814 34.7171 54.9967 33.5994C54.5975 32.8009 54.5975 32.0558 55.2363 31.3904C55.5556 31.0178 56.1145 31.0178 56.3806 30.592Z" fill="#F49435"/>
<path d="M64.5243 33.4396C64.8969 34.5307 65.5889 34.8767 66.7599 34.6106C67.3986 34.4775 68.5696 34.2912 68.7026 35.0896C68.8357 35.8082 67.5849 35.9146 67.026 35.9945C66.0945 36.1275 65.2961 36.6332 64.3646 36.713C63.3001 36.7929 62.5549 36.5534 62.1557 35.5154C61.7831 34.5041 62.7146 34.3977 63.2203 33.9718C63.3799 33.7057 64.1783 34.4775 63.9654 33.5194C63.9388 33.3065 64.3114 33.2533 64.5243 33.4396Z" fill="#848688"/>
<path d="M63.3798 33.9983C63.3798 34.8233 62.0226 34.5838 62.1822 35.5153C61.3572 35.329 60.5056 35.0895 59.654 35.329C59.2814 35.2491 59.3346 34.9564 59.308 34.6903C59.4677 33.9185 59.5741 33.1733 59.2814 32.4015C59.2814 32.3483 59.2548 32.2684 59.2548 32.2152C59.308 32.0023 59.308 31.7362 59.5741 31.6297C59.8403 31.6297 60.1064 31.6031 60.3459 31.6031C60.6653 31.4434 60.9846 31.337 61.3572 31.4168C61.4903 31.47 61.6234 31.5233 61.7298 31.6031C62.0758 31.9225 62.3951 32.2684 62.7411 32.5878C62.8476 32.6676 62.9274 32.7741 63.0072 32.8805C63.1935 33.2531 63.5129 33.5459 63.3798 33.9983Z" fill="#868687"/>
<path d="M46.853 52.3081C45.9215 50.9242 44.9368 49.5936 44.0852 48.1564C43.6328 47.3846 43.2336 46.4532 44.4046 45.8145C44.9368 46.2403 45.2828 46.8524 45.8151 47.2516C46.507 48.1298 47.6248 48.6621 47.7579 49.9129C47.8111 50.4984 47.8377 51.0839 47.7046 51.6694C47.5982 52.0686 47.4917 52.6009 46.853 52.3081Z" fill="#F69735"/>
<path d="M49.807 36.1539C49.4345 36.0741 49.1683 35.941 49.1683 35.5152C49.6208 35.0894 50.1796 35.5152 50.6587 35.3289C49.9135 34.8499 49.9135 34.8499 49.1683 35.5152C48.3699 34.8233 48.1038 34.2378 49.4877 34.0515C49.9933 33.9983 50.2063 33.812 50.4192 33.3329C50.7651 32.4547 51.1377 31.5498 52.1224 31.124L52.149 31.0974C52.9208 30.8845 52.9208 31.3369 52.7611 31.8426C52.5482 32.4813 52.5216 33.1466 52.4418 33.7853C52.3087 34.3708 52.6015 34.77 53.0007 35.1426C53.3466 35.462 53.7458 35.808 53.187 36.287C52.7878 36.4467 52.4418 36.3935 52.0958 36.1806C51.324 36.1806 50.5522 36.1539 49.807 36.1539Z" fill="#F07C33"/>
<path d="M47.0658 44.9365C48.1304 45.3091 48.982 45.9744 49.7538 46.7462C49.8336 48.0503 48.9554 48.4761 47.9175 48.7689C47.1457 48.6624 46.7465 48.1568 46.4803 47.4914C46.507 46.5866 45.8682 45.5486 47.0658 44.9365Z" fill="#C03B33"/>
<path d="M59.4677 34.6373C59.521 34.8768 59.5742 35.1163 59.6274 35.3293C58.8556 36.0212 57.8443 35.8615 56.9395 35.9414C56.2475 35.7285 55.5822 35.4623 55.1297 34.8502C54.8104 34.3978 54.5975 33.9187 55.1297 33.4663C56.2209 34.3179 57.4983 33.972 58.6959 34.0252C58.8556 33.8655 59.0419 33.8655 59.2282 33.9454C59.4411 34.1316 59.4944 34.3712 59.4677 34.6373Z" fill="#EA6D37"/>
<path d="M52.1224 34.025C52.1757 33.1202 51.8829 32.1621 52.5749 31.3903C52.4152 31.2838 52.2821 31.1774 52.1491 31.0709C53.0805 30.1927 54.0652 30.5919 55.0499 30.8846C55.1297 31.0177 55.1031 31.1774 55.0233 31.2838C54.012 32.0024 54.6241 33.4395 53.7459 34.2113C53.1604 34.4508 52.6015 34.4775 52.1224 34.025Z" fill="#F69C3D"/>
<path d="M53.8258 34.0247C53.9322 32.907 53.6395 31.6295 55.05 31.0706C55.4226 30.8843 55.6621 30.911 55.6887 31.39C54.9169 31.9223 54.9967 32.6941 55.0766 33.4658C54.7838 34.9296 56.1944 35.1957 56.8863 35.9675C56.1677 36.2602 55.4758 36.3135 54.8903 35.6748C54.0653 35.4618 53.4532 35.0893 53.8258 34.0247Z" fill="#2E1C14"/>
<path d="M62.2089 45.7611C62.1557 46.3998 62.1291 47.0652 62.0758 47.7039C61.9428 47.7571 61.8097 47.8103 61.6766 47.8636C61.9162 45.3619 59.5742 44.6167 58.6427 42.9135C59.8669 42.7006 60.6121 43.632 61.5436 44.1111C62.0758 44.5369 62.6879 44.9361 62.2089 45.7611Z" fill="#F27A2F"/>
<path d="M46.853 52.3081C47.9442 51.6162 47.1458 50.525 47.3853 49.6468C47.5982 49.4339 47.6514 49.0613 48.024 48.9814C48.4765 48.9814 48.3434 49.4339 48.5563 49.6468C48.6361 51.1105 48.6894 52.5743 47.9974 53.9315C47.891 54.2775 47.678 54.2509 47.4119 54.1178L47.4385 54.0114C48.0772 53.1331 46.853 52.9202 46.853 52.3081Z" fill="#F9AC5F"/>
<path d="M47.0659 44.9362C46.507 45.7878 46.9062 46.7193 46.7731 47.6242C46.2941 47.8371 45.9481 47.5709 45.5755 47.3314C44.857 47.0919 44.4045 46.6128 44.4045 45.8144C45.1763 45.229 46.028 44.7765 47.0659 44.9362Z" fill="#D6522A"/>
<path d="M61.5967 30.5119C61.6766 30.2192 61.5435 29.8466 61.8895 29.6337C63.3266 29.1546 63.5129 30.6982 64.3911 31.124C64.5508 31.6297 64.3379 32.1353 64.3911 32.6676C63.8323 32.5345 63.3798 32.8805 62.8476 32.9337L62.7411 32.8539C62.5548 32.2684 62.0758 31.9757 61.5967 31.6829C61.2508 31.2837 61.304 30.9111 61.5967 30.5119Z" fill="#7C7D7F"/>
<path d="M44.7771 37.8306C44.8569 37.8572 44.9367 37.8572 45.0166 37.8572C46.161 38.4161 46.9061 39.4806 47.8642 40.3057C48.1304 40.5452 48.29 40.8645 47.9174 41.1573C47.4916 41.1307 47.3852 41.4234 47.332 41.7694C46.1343 40.4653 44.9367 39.1879 43.7125 37.8838C44.0585 37.5645 44.4045 37.6443 44.7771 37.8306Z" fill="#EB8052"/>
<path d="M64.2581 32.827C64.2581 32.2681 64.2581 31.7092 64.2581 31.1504C64.2049 30.9641 64.0718 30.8044 63.992 30.6447C63.8057 30.3253 63.4331 29.9794 63.7525 29.6068C63.992 29.3406 64.4178 29.3939 64.7106 29.5269C65.8017 29.9528 67.0526 29.6866 68.1171 30.1923C67.505 30.6447 66.813 31.0971 66.0679 31.0971C64.7904 31.1237 64.4444 31.7625 64.5243 32.8802C64.4178 32.9601 64.338 32.9335 64.2581 32.827Z" fill="#808284"/>
<path d="M68.1172 30.1925C66.7067 30.2723 65.3494 29.7134 63.9655 29.6602C63.6728 30.2723 65.0034 30.5118 64.2316 31.1506C63.6728 31.1772 63.3534 30.8578 63.1139 30.432C62.8477 29.9796 62.5284 29.5538 61.8896 29.6336C64.0187 29.1546 66.0946 29.2876 68.1172 30.1925Z" fill="#9D9EA0"/>
<path d="M53.8256 34.0249C53.9587 34.7169 54.3845 35.2491 54.9168 35.6749C54.7571 35.808 54.5974 35.9677 54.4644 36.1008C54.0652 36.287 53.666 36.4201 53.2934 36.1008C53.2135 35.2225 51.5635 35.2757 52.0958 34.0515C52.6813 34.0249 53.2668 34.0249 53.8256 34.0249Z" fill="#ED6530"/>
<path d="M56.8596 53.7984C56.7532 55.4484 56.4604 55.6347 54.9967 54.8895C54.6241 54.7032 54.2781 54.7032 53.8789 54.6766C53.7192 54.5169 53.6926 54.3306 53.8257 54.1443C54.8636 54.1443 55.7951 53.7451 56.7532 53.5322C56.833 53.6121 56.8596 53.6919 56.8596 53.7984Z" fill="#4C3733"/>
<path d="M64.2582 32.827C64.338 32.8802 64.4179 32.9068 64.5243 32.8802C64.5243 33.0665 64.5243 33.2528 64.5243 33.4391C63.6727 33.9448 65.1364 34.344 64.4711 34.8496C63.9388 34.8762 63.8324 34.1577 63.3533 33.998C63.1404 33.652 62.688 33.4125 62.8211 32.9068C63.5662 32.7472 63.1404 31.8423 63.6993 31.5229C64.338 31.8157 63.6993 32.5609 64.2582 32.827Z" fill="#373636"/>
<path d="M48.5295 49.647C48.3432 49.4607 48.1569 49.2744 47.9707 49.0615C47.8376 48.8752 47.7844 48.6889 48.0239 48.5026C48.8223 48.1034 49.4078 47.5179 49.7804 46.6929C50.153 46.6663 50.5522 46.6663 50.9247 46.6396C51.1643 47.0389 50.7118 47.2518 50.632 47.5445C49.807 48.1566 48.9553 48.6889 48.5295 49.647Z" fill="#EA956F"/>
<path d="M45.5489 31.1238C45.6554 30.9375 45.7618 30.7512 45.8949 30.5649C46.7199 30.6714 47.4385 30.9641 47.9973 31.5763C47.7844 31.6295 47.5715 31.7093 47.3852 31.7625C46.8263 32.0287 46.2675 32.0553 45.682 31.8158C45.4425 31.6029 45.4158 31.39 45.5489 31.1238Z" fill="#615E5D"/>
<path d="M62.2088 45.7616C62.2886 45.0963 61.5435 44.7503 61.5435 44.1116C62.1822 43.9253 62.7145 43.7922 63.0072 44.6439C63.2467 45.3358 63.1137 45.735 62.3951 45.8947C62.3419 45.8415 62.2886 45.7882 62.2088 45.7616Z" fill="#5E4F46"/>
<path d="M50.6054 47.5978C50.0199 47.0655 50.9248 47.0389 50.8982 46.693C50.8982 46.3204 50.8982 45.9478 50.8982 45.5752C51.2974 45.655 51.67 45.7349 52.0692 45.7881C52.5482 46.4268 51.8829 46.7994 51.6966 47.2785C51.4837 47.518 51.2441 47.6244 50.9514 47.5978C50.8449 47.5978 50.7119 47.5978 50.6054 47.5978Z" fill="#F49554"/>
<path d="M94.1983 41.104C91.8297 41.1306 89.4611 41.1306 87.0925 41.104C86.2409 41.104 85.7619 41.2104 85.7352 42.3016C85.682 43.4726 86.2409 43.579 87.1457 43.5524C88.1837 43.4992 89.2216 43.5258 90.2595 43.5258C90.6055 43.5258 90.8982 43.4992 91.1112 43.8984C91.8031 45.3089 90.7386 47.7041 89.1684 47.8106C87.199 47.9702 85.203 48.0501 83.2602 47.8106C81.4771 47.571 80.7585 46.9057 80.7851 45.0694C80.8118 42.6209 80.8118 40.1725 80.8384 37.6975C80.865 36.4466 81.6102 35.7547 82.7545 35.5152C84.857 35.0627 86.9595 35.0627 89.0619 35.3555C90.2329 35.5152 91.0047 35.9942 91.1112 37.2184C91.1644 37.9902 91.7499 37.8837 92.2023 37.8305C93.2136 37.6975 94.3314 38.283 95.2628 37.4845C95.3161 37.4313 95.2895 37.2983 95.2895 37.1918C95.5822 34.9297 94.1185 33.0667 91.8297 32.774C90.2595 32.1885 89.4345 32.2683 88.2103 32.2683C86.7465 32.2683 85.2828 32.2683 83.8191 32.2683C82.7811 32.3215 81.9827 32.2683 80.6787 32.7474L80.4658 32.8272C79.002 33.1199 77.1923 34.6369 77.006 35.9942C76.5536 39.1612 76.4472 42.3548 76.7399 45.4952C76.9794 48.0501 77.4319 49.7001 80.7053 50.3654C84.6441 51.1639 88.6361 51.1372 92.5749 50.1525C93.666 49.8864 94.358 49.1945 94.8104 48.1033C95.6354 46.1339 95.1564 44.1379 95.3161 42.1419C95.3693 41.3701 95.0499 41.0774 94.1983 41.104Z" fill="#F15C2A"/>
<path d="M53.2934 36.1006C53.6926 36.1006 54.0918 36.1006 54.4644 36.1006C53.666 36.6861 52.8942 37.2183 52.0692 36.1804C52.4684 36.1538 52.8942 36.1272 53.2934 36.1006Z" fill="#FABDA1"/>
<path d="M55.7153 31.3903C55.5556 31.1507 55.3161 31.0709 55.0765 31.0709C55.0765 31.0177 55.0765 30.9644 55.0499 30.9112C55.3959 30.379 55.9016 30.5919 56.3806 30.5919C56.8597 31.4169 55.8217 31.0177 55.7153 31.3903Z" fill="#814F37"/>
<path d="M61.5968 30.5117C61.5968 30.9109 61.5968 31.2835 61.5968 31.6827C61.171 31.6561 60.7452 31.6295 60.3193 31.6029C60.5056 30.9641 61.1976 30.8843 61.5968 30.5117Z" fill="#A9AAAC"/>
<path d="M44.7771 37.8305C44.4311 37.8571 44.0852 37.8571 43.7392 37.8837C43.34 37.8837 43.2069 37.6442 43.2069 37.2716C43.7392 37.3781 44.4844 36.9789 44.7771 37.8305Z" fill="#906D5E"/>
<path d="M7.09247 41.5564C7.09247 39.8266 7.11908 38.1233 7.09247 36.3934C7.09247 35.7547 7.19892 35.3555 7.97071 35.3821C10.2329 35.4353 12.495 35.3821 14.7571 35.5152C16.4338 35.595 17.2322 36.4733 17.3919 38.0967C17.6314 40.3588 17.658 42.5944 17.3919 44.8565C17.179 46.6928 16.0878 47.784 14.2249 47.8372C12.2023 47.8904 10.1796 47.8372 8.15701 47.8904C7.33199 47.917 7.03924 47.6775 7.06586 46.8259C7.11908 45.096 7.09247 43.3129 7.09247 41.5564Z" fill="white"/>
<path d="M26.3872 19.7864C26.3872 18.5621 26.4138 17.3379 26.3872 16.1137C26.3606 15.0758 26.8663 14.5169 27.8243 14.2508C29.9002 13.6387 32.0027 13.8516 34.1051 13.9846C36.2608 14.1177 36.2874 15.7943 36.4205 17.1516C36.6068 19.2541 36.5269 21.3566 36.3673 23.459C36.2874 24.63 35.6221 25.4018 34.2116 25.5881C32.2422 25.8808 30.2994 25.801 28.33 25.5349C27.0259 25.3486 26.334 24.63 26.3606 23.2993C26.3606 22.1283 26.3606 20.9573 26.3872 19.7864C26.3606 19.7864 26.3606 19.7864 26.3872 19.7864Z" fill="#FEFEFE"/>
<path d="M56.2742 50.2857C56.0613 50.8446 55.5024 51.0309 55.1032 51.4035C53.187 52.122 51.2442 50.2059 51.5902 47.9437C51.6168 47.7574 51.7233 47.5712 51.8031 47.4115C52.0693 46.6663 52.4951 46.1606 53.3467 46.1606C54.6508 46.1606 55.6089 46.7461 56.2476 47.8639C56.5669 48.6623 56.7 49.4607 56.2742 50.2857Z" fill="#101110"/>
<path d="M45.6022 37.2453C45.7086 37.059 45.8151 36.8727 45.9481 36.713C46.2143 36.4469 46.507 36.4735 46.7998 36.6598C48.4764 37.7243 49.3281 39.4808 50.366 41.051C50.2595 41.1575 50.1265 41.2905 50.02 41.397C49.3547 41.5833 49.0087 41.1308 48.6627 40.7316C47.6248 39.5873 46.4006 38.6292 45.6022 37.2453Z" fill="#EE662A"/>
<path d="M53.8523 54.1445C53.8789 54.3308 53.8789 54.5171 53.9055 54.6768C54.2249 55.7946 53.5862 56.1405 52.6547 56.1139C51.8829 56.0873 51.1111 55.9542 50.3659 55.8478C49.9401 55.2889 49.8603 54.73 50.3659 54.1445C51.5103 54.1445 52.6813 54.1445 53.8523 54.1445Z" fill="#5C4F4D"/>
<path d="M52.0958 47.2785C51.4837 49.7535 52.5216 51.164 55.1031 51.4035C55.1297 52.335 54.6507 52.4947 53.8789 52.1753C52.3353 51.5366 51.0579 50.0463 50.9514 47.5712C51.1377 47.4647 51.324 47.3849 51.5103 47.2785C51.6966 47.1188 51.8829 47.1188 52.0958 47.2785Z" fill="#E1B577"/>
<path d="M46.7996 36.6594C46.5069 36.686 46.2407 36.686 45.948 36.7126L45.8149 36.686C45.3359 35.515 45.256 34.1045 43.8455 33.519C43.4995 33.5456 43.1536 33.6521 42.9939 33.1997C42.9673 32.3214 43.4995 32.7206 43.8987 32.8271C46.2141 32.9069 46.7464 33.5723 46.7996 36.6594Z" fill="#EA773A"/>
<path d="M50.3393 54.1445C50.3393 54.7034 50.3393 55.2623 50.3393 55.8478C48.2635 55.8212 47.5183 55.3954 47.3853 54.1179C47.5715 54.0647 47.7845 53.9849 47.9708 53.9316C48.7692 54.0115 49.5676 54.0913 50.3393 54.1445Z" fill="#303336"/>
<path d="M43.8989 32.8537C43.6062 32.9868 43.1537 32.7739 42.994 33.2263C42.4085 32.0819 42.7811 31.2303 43.9521 31.1238C44.4844 31.0706 45.0167 31.1238 45.5489 31.1505C45.6022 31.3101 45.6554 31.4698 45.7086 31.6295C45.5755 32.0021 45.203 32.0553 44.9102 32.215C44.4844 32.2948 43.9255 32.1618 43.8989 32.8537Z" fill="#E8E2DD"/>
<path d="M52.0957 47.2785C51.9094 47.2785 51.7231 47.2785 51.5102 47.2785C51.2973 46.6398 52.149 46.3736 52.0691 45.7881C52.0957 45.6018 52.1223 45.4422 52.149 45.2559C52.8409 45.1228 53.3466 45.3091 53.3466 46.1341C52.9207 46.5067 52.4949 46.9059 52.0957 47.2785Z" fill="#FAC576"/>
<path d="M44.9102 32.2154C44.9368 31.7097 45.336 31.6831 45.7086 31.6299C46.2674 31.6831 46.7997 31.7363 47.3586 31.763C46.6933 32.7743 45.7352 32.1089 44.9102 32.2154Z" fill="#EFAB54"/>
<path d="M56.2742 50.2856C56.2742 49.4606 56.2476 48.6356 56.2476 47.8105C56.8863 48.6356 57.3121 49.4606 56.2742 50.2856Z" fill="#957153"/>
<path d="M103.513 24.4709C103.194 22.7144 102.342 21.8628 100.719 21.7297C99.3879 21.6232 98.0306 21.6765 97.1257 22.8209C96.2209 24.0185 96.2209 26.733 97.7112 27.8508C98.5629 28.729 100.958 28.7823 101.89 27.9306C103.034 27.3185 103.752 25.7749 103.513 24.4709ZM101.863 26.6798C100.985 27.9306 99.7338 27.1588 98.6959 27.1588C97.9774 27.1588 97.7378 26.254 97.7645 25.4822C97.7911 24.5241 97.4983 23.2201 98.5895 22.9539C99.6008 22.6878 100.958 22.1821 101.89 23.4063C102.289 24.4975 102.315 25.5887 101.863 26.6798Z" fill="#3E3C3D"/>
<path d="M45.6021 37.2451C47.2255 38.4693 48.3433 40.2258 50.0199 41.3968C49.1683 42.6743 48.5828 41.6097 47.9175 41.1573C47.2787 39.7734 45.815 39.1081 45.0166 37.8572C45.4158 37.8572 45.6021 37.6177 45.6021 37.2451Z" fill="#584844"/>
<path d="M73.0938 31.7093C73.7858 32.4012 73.8656 33.0932 73.0406 33.7851C72.3486 34.3706 71.497 34.3174 70.8849 33.865C70.1397 33.3061 69.9002 32.4811 70.7784 31.7093C71.5502 31.0706 72.322 31.044 73.0938 31.7093Z" fill="#FEF1EA"/>
<path d="M73.0937 31.7099C72.3219 31.3639 71.5501 31.4171 70.7783 31.7099C71.5501 30.7518 72.3219 30.6985 73.0937 31.7099Z" fill="#FABCA5"/>
<path d="M43.8457 33.519C45.5489 33.8384 45.9747 34.5037 45.815 36.686C44.9102 36.3401 43.6594 34.3441 43.8457 33.519Z" fill="#29221E"/>
<path d="M59.2283 34.1044C59.042 34.0778 58.8557 34.0512 58.696 34.0246C58.7759 33.3858 58.217 32.5608 59.2283 32.2148L59.3081 32.3213C59.5743 32.9334 59.6541 33.5189 59.2283 34.1044Z" fill="#99664A"/>
<path d="M59.2283 34.1046C59.2549 33.4925 59.2815 32.907 59.3081 32.2949C60.3194 33.0135 59.8936 33.8119 59.4678 34.6369C59.388 34.4772 59.3081 34.2909 59.2283 34.1046Z" fill="#22262D"/>
<path d="M61.5968 31.6561C62.4218 31.6029 63.0073 31.7892 62.7412 32.8271C62.1025 32.6674 61.7299 32.2682 61.5968 31.6561Z" fill="#A9AAAC"/>
<path d="M47.9973 48.5289C47.9707 48.7152 47.9707 48.9015 47.944 49.0878C47.7577 49.2741 47.5448 49.4604 47.3585 49.6467C47.0658 48.6354 45.8416 48.3426 45.5488 47.3313C46.0013 47.2515 46.3738 47.3845 46.7464 47.6241C47.1722 47.9168 47.4384 48.4225 47.9973 48.5289Z" fill="#EE6B2B"/>
<path d="M49.1683 35.5151C49.2216 35.1159 48.982 34.5304 49.5942 34.3973C50.3926 34.211 50.845 34.7699 51.324 35.3554C50.6321 36.1538 49.8869 35.6215 49.1683 35.5151Z" fill="#F05425"/>
</svg>
