<svg width="24" height="24" viewBox="0 0 24 24" fill="none" xmlns="http://www.w3.org/2000/svg">
<path d="M8.61004 5.60571L18.3819 2.81376C19.8192 2.40309 21.25 3.48234 21.25 4.97719V15.0228C21.25 16.5177 19.8192 17.5969 18.3819 17.1862L8.61004 14.3943C8.27501 14.2986 7.92827 14.25 7.57983 14.25H5C3.75736 14.25 2.75 13.2426 2.75 12V8C2.75 6.75736 3.75736 5.75 5 5.75H7.57983C7.92827 5.75 8.27501 5.70144 8.61004 5.60571Z" stroke="#08CF65" stroke-width="1.5" stroke-linecap="round"/>
<path d="M6 14V18C6 19.1046 6.89543 20 8 20V20C9.10457 20 10 19.1046 10 18V15.2" stroke="#08CF65" stroke-width="1.5" stroke-linejoin="round"/>
<path d="M8 6L8 14" stroke="#08CF65" stroke-width="1.5" stroke-linejoin="round"/>
</svg>
