<svg xmlns="http://www.w3.org/2000/svg" height="30" fill="none" preserveAspectRatio="none" viewBox="0 0 1440 30"><path d="M0 10.5c3.593 0 5.288.382 3.001 1.492-1.476.718-1.633 1.032-.361.732 1.227-.29 2.765-.186 3.419.23.652.416.126.756-1.172.756-1.33 0-.62.638 1.631 1.464 2.194.806 4.534 2.14 5.199 2.966.848 1.054 2.447 1.412 5.344 1.198 2.276-.168 4.135-.355 4.135-.416 0-.06 2.11-.263 4.689-.449 4.537-.327 4.568-.303.945.776-3.657 1.089-3.636 1.115.87 1.139 4.491.023 4.516.054.944 1.195-2.016.645-2.623.964-1.344.71 1.278-.254 6.004.03 10.502.632 10.005 1.338 50.899 1.09 52.088-.315.476-.564-.609-.698-3.113-.385-2.113.264-4.39.132-5.059-.294-.792-.505 2.82-.775 10.347-.775 7.227 0 11.123-.28 10.394-.745-2.033-1.296 27.193-.933 30.525.38 2.863 1.128 7.264.82 5.386-.378-.552-.35.816-.867 3.038-1.145 3.865-.483 8.106.805 6.346 1.927-.415.265 3.279.33 8.21.142 5.639-.213 11.564.088 15.96.812 3.843.633 7.449.859 8.011.501.559-.357 3.566-.62 6.68-.586 3.116.035 6.261-.172 6.991-.46.729-.287-3.323-.48-9.004-.432-5.68.05-14.379-.145-19.331-.433-7.546-.439-8.636-.697-6.746-1.594 1.253-.594 3.951-.896 6.068-.678 2.098.216 5.084-.012 6.637-.507 1.897-.604 2.398-.62 1.529-.047-.943.62 5.461.869 23.602.916 19.359.052 24.396-.132 22.633-.827-1.248-.491-4.591-.96-7.431-1.043-2.839-.082-5.8-.177-6.581-.21-.78-.033-1.417-.346-1.417-.695 0-.35 7.015-.513 15.591-.365 8.576.149 16.867.053 18.426-.212 4.821-.819 12.318-.575 11.781.384-.276.494.575.842 1.89.775 5.611-.29 20.881.09 19.855.494-1.51.595-34.622.503-39.526-.11-2.793-.35-3.653-.203-3.035.521.621.727 3.904.95 11.768.799 6.431-.124 12.019.153 13.616.675 2.052.672 3.241.677 4.896.025 1.204-.474 4.358-.829 7.008-.788l4.819.074-4.725.596c-6.092.77-5.093.827 20.789 1.19 25.323.357 26.52.474 25.531 2.496-.716 1.463.104 1.526 19.821 1.526 11.312 0 20.971.256 21.461.57.491.312 7.132.511 14.757.441 7.628-.07 23.221-.194 34.654-.277 11.434-.082 22.489-.51 24.568-.95 4.895-1.035 12.284-1.354 12.284-.53 0 .934 7.639 1.267 13.97.611 3.006-.312 6.336-.355 7.398-.096 3.101.755 12.649.864 12.649.145 0-.362 1.701-.658 3.779-.658 2.079 0 3.78-.335 3.78-.745s2.177-.745 4.836-.745c2.659 0 4.398.28 3.863.62-.535.342.053.627 1.306.633 1.253.007 4.978.25 8.275.543 5.409.479 5.897.38 4.976-1.005-.909-1.37-2.566-1.545-15.445-1.628-12.891-.084-13.526-.15-5.966-.63 4.652-.297 10.101-.37 12.106-.163 2.755.284 3.256.12 2.045-.672-1.34-.876-1.055-.873 1.738.021 2.905.929 3.595.929 5.267 0 1.584-.88 1.748-.852.932.16-1.529 1.894 4.25 2.144 37.317 1.615 22.632-.362 29.73-.266 28.708.385-.748.477-.55.866.44.866.991 0 2.289-.503 2.888-1.117.597-.614 2.177-1.111 3.509-1.105 1.716.008 1.595.24-.413.8-2.52.703-2.52.755 0 .468 1.559-.178 2.727-.847 2.596-1.487-.159-.78.779-1.015 2.835-.712 2.765.408 2.787.31.238-.976-2.761-1.393-2.704-1.396 2.221-.159 3.328.837 5.295.989 5.754.445.705-.833 11.437-.87 35.019-.122 12.584.4 16.426 1.731 4.995 1.731-5.152 0-6.562.262-5.774 1.071.609.624-.293 1.2-2.16 1.384-1.761.173 1.049.145 6.246-.063 5.197-.208 10.475-.384 11.728-.392 1.253-.008 1.841-.293 1.306-.635-.535-.34 2.266-.587 6.225-.546 6.089.063 6.473.154 2.493.59-3.203.351-3.957.698-2.362 1.087 1.288.314 3.193.363 4.233.11 1.039-.253 1.903-.021 1.918.515.025.776.359.769 1.654-.036 1.207-.75 1.978-.785 2.997-.136.756.482 2.767.665 4.469.407 1.705-.257 7.288-.63 12.407-.827 5.12-.198 10.009-.53 10.863-.738.856-.209 1.049.14.431.776-.715.733-.074 1.156 1.753 1.156 1.584 0 3.308-.418 3.833-.93.762-.745.983-.745 1.102 0 .081.512 1.476.93 3.095.93 1.854 0 2.421-.345 1.527-.93-1.101-.723-.754-.72 1.552.017 2.974.949 21.502 1.135 25.157.253 1.04-.251 14.75-.494 30.468-.54 15.718-.046 29.669-.35 31.003-.673 1.51-.369 1.956-.294 1.185.199-1.709 1.089 31.789 1.192 36.903.113 2.141-.451 3.396-.504 2.785-.116-.652.417 3.719.707 10.64.708h11.745l-7.559-.927c-8.468-1.037-8.453-1.052 1.476-1.464 4.416-.183 6.703-.014 5.987.443-.7.447 1.515.667 5.611.558 3.723-.098 6.769-.408 6.769-.687 0-.28 19.985-.462 44.409-.406 24.426.056 44.411.373 44.411.704.002.331-.79.41-1.757.174-.968-.236-2.376-.035-3.13.445-1.015.647.987.747 7.692.385 4.985-.27 11.547-.49 14.582-.49 3.91 0 5.102-.27 4.097-.93-1.034-.679-.586-.665 1.657.051 2.223.71 4.079.771 6.688.221 2.189-.461 4.294-.492 5.343-.079 2.228.878 16.422-.987 14.452-1.9-.78-.365.11-.2 1.98.368 2.91.88 3.33.88 2.84-.002-.46-.81 2.17-1.01 12.15-.927 7 .06 13.22-.202 13.81-.58.6-.38-.88-.694-3.28-.7-3.51-.01-3.81-.153-1.53-.733 2.2-.56 1.57-.747-2.83-.835-4.82-.096-5-.163-1.2-.447 2.46-.184 5.39.03 6.52.474 2.57 1.014 5.69 1.062 4.13.063-.68-.427 1.04-.745 4.03-.745 4.82 0 4.94.073 1.71 1.003-2.41.696-2.81 1.166-1.3 1.533 1.19.292 2.17.137 2.17-.345 0-.509 1.58-.712 3.78-.486 2.08.214 4.25.085 4.83-.285.59-.371-.48-.709-2.36-.75-2.42-.052-2.04-.247 1.31-.67 3.41-.43 1.07-.616-8.35-.67-13.83-.079-15.64-.502-4.81-1.126 3.6-.208 9.99-.67 14.2-1.025 4.21-.356 9.52-.592 11.81-.526 2.51.073 4.16-.307 4.16-.96 0-.749 1.44-.97 4.72-.722 3.07.23 4.73.018 4.73-.606 0-.53-1.92-1.117-4.25-1.307-2.34-.189-.43-.364 4.25-.387 4.67-.024 22.11-.273 38.74-.552 16.63-.28 29.81-.325 29.29-.101-1.3.563-20.34 1.34-40.32 1.648-9.18.14-17.19.45-17.79.69-.61.237.74.432 2.99.432s4.1.388 4.1.86c0 .488 1.63.277 3.78-.487 2.07-.741 3.78-1.008 3.78-.591 0 .416 2.33.597 5.19.402 5.04-.345 5.09-.32 1.42.831-3.55 1.115-3.12 1.17 7.09.908 5.97-.153 10.86.022 10.86.389s-1.91.694-4.25.726c-2.34.031-3.19.227-1.89.434 4.3.684 2.45 1.643-3.63 1.88-7.48.29-9.66 2.094-2.53 2.094 2.76 0 6.17.457 7.59 1.016 1.74.686 5.73.917 12.31.713 5.35-.167 9.27-.009 8.71.35-.57.365 2.66.433 7.32.155 4.59-.275 9.42-.237 10.73.083 1.32.32 2.84.3 3.39-.047.78-.493 16.05-1.19 32.76-1.497.84-.016.93-.447.2-.96-1.05-.732-.81-.737 1.14-.025 1.96.716 2.99.639 4.94-.372 1.68-.87 2.49-.965 2.53-.297.04.66 1.37.816 4.07.479 2.7-.338 3.6-.232 2.72.322-.71.454-.36.825.77.825 1.14 0 2.55-.5 3.15-1.113.59-.612 1.93-.905 2.98-.651 1.26.306 1.25.616-.03.926-1.05.256 8.85.35 22.01.21 13.15-.142 23.49-.1 22.97.091-.52.193-10.3.581-21.73.865-20.07.498-31.68 1.798-17.86 2 12.51.184 34.97-.021 49.04-.447 7.8-.236 16.72-.504 19.84-.596 3.12-.093 7.11-.644 8.86-1.227 3.5-1.158 12.61-1.575 14.07-.644.5.322 3.1.586 5.76.586 3.98 0 4.45.19 2.62 1.058-1.83.869-1.53.986 1.69.655 2.15-.222 4.4-.715 5-1.095.63-.403 2.19-.327 3.75.181 3.62 1.183 3.39.337-.3-1.119-2.71-1.063-2.27-1.17 4.83-1.17 4.5 0 7.33-.302 6.69-.713-.68-.433 1.69-.551 6.03-.3 3.93.227 8.42.387 9.98.356 15.92-.32 33.17.118 34.35.873 1.03.649 2.09.527 3.9-.447 1.73-.935 5.62-1.422 12.83-1.609 5.69-.148 8.85-.104 7.03.096-3.79.418-4.47 1.714-.94 1.806 1.3.035 4.28.146 6.61.248 2.34.102 4.26-.113 4.26-.478s10.78-1.83 11.82-1.576V0H0v10.5Zm1061.51-4.988c1.99.482 13.27.106 13.27-.443 0-.156-3.44-.23-7.64-.165-4.2.065-6.73.338-5.63.608Zm90.1.194c1.21.772 5.87.702 7.14-.107.57-.366-.99-.617-3.49-.558-2.49.058-4.13.358-3.65.665Zm87.58.5c0 .654 53.05.062 59.53-.664 3.85-.431-1.21-.597-15.74-.515-11.77.066-21.57.184-21.77.262-.2.078-5.24.218-11.19.314-5.96.094-10.83.366-10.83.603Zm-259.849.803c1.559 0 2.834-.132 2.834-.292 0-.161-1.275-.486-2.834-.722-1.559-.235-2.835-.103-2.835.293 0 .397 1.276.721 2.835.721Zm157.449-.98c1.36.215 2.99.188 3.62-.06.63-.246-.49-.422-2.48-.39-2.2.036-2.65.212-1.14.45Zm7.56 0c1.36.215 2.99.188 3.62-.06.63-.246-.49-.422-2.48-.39-2.2.036-2.65.212-1.14.45ZM942.916 7.754c4.269 0 7.378-.152 6.905-.337-1.572-.62-13.854-.81-22.451-.346l-8.504.46 7.559.122c5.64.093 6.84.307 4.725.845-1.703.434-1.937.726-.584.734 1.238.006 2.776-.324 3.419-.734.642-.41 4.66-.744 8.931-.744Zm10.439-.996c1.301.207 3.427.207 4.725 0 1.3-.207.236-.376-2.362-.376-2.599 0-3.661.17-2.363.376Zm82.835.898c-1.35.862 18.29.904 21.72.047 1.77-.44-1.32-.675-9.01-.683-6.43-.006-12.15.28-12.71.636Zm217.94.038c2.97.74 39.21.566 41.15-.197.68-.268-8.9-.483-21.28-.477-13.89.008-21.5.266-19.87.674Zm-344.218 1.33c2.351.179 5.753.172 7.559-.014 1.807-.186-.117-.332-4.274-.324-4.158.008-5.636.16-3.285.339Zm-82.703 3.57c1.04-.254 1.89-.608 1.89-.79 0-.18-.85-.327-1.89-.327-1.039 0-1.89.355-1.89.788 0 .433.851.582 1.89.328Zm-30.751.863c6.475-.015 11.294-.215 10.711-.445-1.528-.603-12.225-.621-17.756-.031-2.964.315-.335.493 7.045.476Zm589.042.201c9.27.028 16.33-.152 15.7-.401-1.82-.716-24.59-.916-28.77-.252-2.36.375 2.54.62 13.07.653Zm-617.229-.184c1.363.215 2.994.189 3.621-.059.627-.247-.488-.422-2.479-.39-2.202.035-2.65.212-1.142.45Zm594.729.248c1.07.688 4.7.358 4.7-.428 0-.18-1.33-.328-2.95-.328-1.61 0-2.41.34-1.75.756ZM267.592 15.944c1.314 0 3.663-.503 5.222-1.117 3.623-1.427.875-1.41-3.938.024-2.06.613-2.622 1.093-1.284 1.093Zm-7.805-.052c4.606-.047 4.767-.125 1.418-.693-5.161-.874-6.615-.874-6.615 0 0 .41 2.34.721 5.197.693Zm507.456-.921c1.839.189 4.39.176 5.669-.028 1.28-.204-.224-.358-3.343-.343-3.118.015-4.165.182-2.326.37Zm21.697.022c3.379.165 8.905.165 12.284 0 3.379-.164.614-.3-6.142-.3s-9.521.136-6.142.3Zm124.848-.03c1.363.216 2.994.189 3.621-.058.627-.248-.488-.423-2.479-.391-2.202.035-2.65.212-1.142.45Zm37.205 1.73c-15.086.28-20.998.027-17.953-.764 2.107-.548 1.149-.692-3.742-.562-3.617.097-8.005.738-9.75 1.425-1.746.688-4.739 1.399-6.652 1.581-1.914.183.234.34 4.772.351 4.604.011 7.211-.233 5.9-.552-1.295-.314-1.756-.952-1.028-1.416.886-.566 2.574-.286 5.11.848 2.084.93 3.262 1.28 2.617.78-.873-.681 2.194-.884 12.126-.801 7.313.06 13.939-.146 14.727-.46.788-.313-1.969-.507-6.127-.43Zm286.787-.98c1.81.187 4.79.187 6.61 0 1.82-.188.33-.34-3.31-.34s-5.12.152-3.3.34Zm14.29-.005c1.36.215 2.99.188 3.62-.059.63-.247-.49-.423-2.48-.39-2.2.035-2.65.211-1.14.449ZM207.689 18.034l-5.112-1.045c-5.974-1.22-7.191-1.298-5.727-.364.588.375.091.81-1.103.966-1.195.157 1.003.32 4.885.364l7.057.079Zm299.785-1.581c1.363.215 2.994.188 3.621-.06.628-.247-.487-.422-2.479-.39-2.202.035-2.65.212-1.142.45Zm7.441-.016c1.3.207 3.426.207 4.724 0 1.3-.206.236-.375-2.362-.375-2.599 0-3.661.169-2.362.375Zm394.863.922c2.277.04 4.666-.261 5.308-.67.643-.41.906-.712.584-.67l-5.308.67c-4.398.554-4.439.601-.584.67Zm55.277.074c1.1 0 2.002-.335 2.002-.744 0-.41-.374-.745-.834-.745-.459 0-1.358.335-2.001.745-.643.409-.266.744.833.744Zm15.964.424c-.743-.762.754-1.153 5.257-1.374 3.704-.182 2.3-.291-3.416-.266-12.791.058-14.69.323-11.87 1.66 1.209.575 3.157 1.04 4.329 1.034 1.174-.007.881-.323-.648-.704-1.529-.382-2.098-.962-1.262-1.29.833-.33 2.604-.013 3.932.704 2.916 1.57 5.116 1.712 3.678.236Zm13.913-1.42c1.3.207 3.426.207 4.724 0 1.304-.206.237-.375-2.362-.375s-3.661.169-2.362.375Zm-105.47 1.74c1.1 0 2.002-.334 2.002-.744s-.375-.744-.834-.744c-.459 0-1.359.335-2.001.744-.643.41-.267.745.833.745Zm-678.691-.235c1.362.215 2.993.188 3.621-.06.627-.246-.488-.422-2.48-.39-2.201.036-2.649.212-1.141.45Zm361.819.007c1.839.19 4.391.176 5.67-.027 1.279-.204-.225-.359-3.343-.344-3.118.015-4.165.182-2.327.371Zm567.86.01c2.34.177 6.17.177 8.5 0 2.34-.178.43-.323-4.25-.323s-6.59.145-4.25.323Zm130.4 0c2.34.177 6.16.177 8.5 0 2.34-.178.43-.323-4.25-.323s-6.59.145-4.25.323ZM152.139 19.942c1.043.253 2.381-.04 2.978-.652 1.251-1.286 1.134-1.308-2.307-.45-1.576.394-1.835.818-.671 1.102Zm752.442-.275c.979 0 2.304-.335 2.946-.745.643-.41-.159-.744-1.778-.744-1.62 0-2.946.335-2.946.744 0 .41.799.745 1.778.745Zm81.846-.976c1.819.187 4.797.187 6.615 0 1.818-.187.331-.34-3.307-.34s-5.126.153-3.308.34Zm-465.82.758c2.351.177 5.752.17 7.559-.015 1.807-.186-.117-.332-4.275-.324-4.157.008-5.635.16-3.284.339Zm306.602 1.29c3.638.11 8.238-.24 10.222-.775 3.098-.838 1.541-.954-11.031-.822-8.05.084-15.039.404-15.53.71-.492.308 1.497.588 4.416.623 2.92.035 8.285.154 11.923.264Zm-181.777-.564c1.363.215 2.994.189 3.621-.059.627-.247-.488-.422-2.48-.39-2.201.035-2.649.212-1.141.45Zm133.15.752c1.839.19 4.39.177 5.669-.027 1.28-.204-.224-.358-3.343-.343-3.118.014-4.165.181-2.326.37Zm23.706-.007c1.363.215 2.994.188 3.621-.059.627-.247-.488-.423-2.48-.39-2.201.035-2.649.211-1.141.449Zm-728.4 1.725c1.56 0 3.274-.28 3.808-.62.535-.342-.302-.621-1.86-.621-1.56 0-3.274.279-3.809.62-.535.342.302.621 1.861.621Zm-9.012.136c.84.536 4.51.188 4.51-.428 0-.112-1.237-.205-2.75-.205-1.514 0-2.306.285-1.76.633Zm252.19.609c1.1 0 1.476-.335.834-.745-.643-.41-1.542-.745-2.002-.745-.459 0-.833.335-.833.745s.901.745 2.001.745Zm390.611-.951c3.379.165 8.905.165 12.284 0 3.379-.165.615-.3-6.142-.3-6.756 0-9.521.135-6.142.3Z" clip-rule="evenodd"/><path d="M1074.78 5.069c0 .549-11.28.925-13.27.443-1.1-.27 1.43-.543 5.63-.608 4.2-.064 7.64.01 7.64.165Zm-92.605 1.648c0 .16-1.275.292-2.834.292-1.559 0-2.835-.324-2.835-.721 0-.396 1.276-.528 2.835-.293 1.559.236 2.834.56 2.834.722Zm-32.354.7c.473.185-2.636.337-6.905.337-4.271 0-8.289.335-8.931.744-.643.41-2.181.74-3.419.734-1.353-.008-1.119-.3.584-.734 2.115-.538.915-.752-4.725-.845l-7.559-.123 8.504-.459c8.597-.463 20.879-.275 22.451.346Zm8.259-.66c-1.298.208-3.424.208-4.725 0-1.298-.206-.236-.375 2.363-.375 2.598 0 3.662.17 2.362.376Zm99.83.946c-3.43.857-23.07.815-21.72-.047.56-.356 6.28-.642 12.71-.636 7.69.008 10.78.242 9.01.683ZM917.471 9.01c-1.806.186-5.208.193-7.559.015s-.873-.33 3.285-.339c4.157-.008 6.081.138 4.274.324Zm159.199.977c0 .41 1.27.745 2.83.745s2.84-.335 2.84-.745c0-.409-1.28-.744-2.84-.744-1.56 0-2.83.335-2.83.744Zm-7.92 1.998c1.37.215 3 .189 3.63-.059.62-.247-.49-.423-2.48-.39-2.21.035-2.65.212-1.15.45Zm7.56 0c1.37.215 3 .189 3.62-.059.63-.247-.48-.423-2.47-.39-2.21.035-2.65.212-1.15.45Zm-18.54 2.447c0 .396 1.27.528 2.83.292 1.56-.236 2.84-.56 2.84-.721 0-.16-1.28-.293-2.84-.293-1.56 0-2.83.325-2.83.722Zm-140.361.473c-.627.247-2.258.274-3.621.058-1.508-.237-1.06-.414 1.142-.45 1.991-.031 3.106.144 2.479.392Zm15.631 1.024c-3.045.792 2.867 1.043 17.953.764 4.158-.077 6.915.117 6.127.43-.788.314-7.414.52-14.727.46-9.932-.083-12.999.12-12.126.8.645.501-.533.15-2.617-.78-2.536-1.133-4.224-1.413-5.11-.848-.728.465-.267 1.103 1.028 1.417 1.311.32-1.296.563-5.9.552-4.538-.01-6.686-.168-4.772-.35 1.913-.183 4.906-.894 6.652-1.582 1.745-.687 6.133-1.328 9.75-1.425 4.891-.13 5.849.014 3.742.562Zm-17.954.76c-.642.409-3.031.71-5.308.67-3.855-.069-3.814-.116.584-.67l5.308-.67c.322-.041.059.26-.584.67Zm51.971 0c0 .409-.902.744-2.002.744-1.099 0-1.476-.335-.833-.744.643-.41 1.542-.745 2.001-.745.46 0 .834.335.834.745Zm19.219-.206c-4.503.221-6 .612-5.257 1.374 1.438 1.476-.762 1.335-3.678-.236-1.328-.717-3.099-1.034-3.932-.705-.836.329-.267.91 1.262 1.29 1.529.382 1.822.698.648.705-1.172.006-3.12-.459-4.329-1.033-2.82-1.338-.921-1.604 11.87-1.66 5.716-.026 7.12.083 3.416.265Zm13.38-.046c-1.298.207-3.424.207-4.724 0-1.299-.206-.237-.375 2.362-.375s3.666.169 2.362.375Zm50.314.745c-2.19 1.043-2.19 1.291-.02 1.58 2.18.287 2.18.44 0 .984-1.72.428-.25.646 4.4.654 3.84.006 7.44-.282 8-.64.56-.36 7.2-.58 14.76-.489 7.55.09 16.28-.079 19.4-.376l.23-.022c1.83-.175 3.1-.296 3.1-.395-.01-.226-6.51-.342-27.7-.722l-1.12-.02c-7.79-.14-14.45-.6-14.8-1.023-.95-1.119-3.29-.943-6.25.47Zm45.6-.528c1.55.416 4.46.761 6.45.768 4.84.015 3.33-.411-3.62-1.024-4.14-.365-4.9-.296-2.83.256Zm-204.106.78c0 .409-.902.744-2.002.744-1.1 0-1.476-.335-.833-.745.642-.41 1.542-.744 2.001-.744.459 0 .834.335.834.744Zm-669.001.744c0 .41.851.744 1.89.744 1.04 0 1.89-.335 1.89-.744 0-.41-.85-.745-1.89-.745-1.039 0-1.89.335-1.89.745Zm821.127 0c.65.41 1.55.744 2.01.744.46 0 .83-.335.83-.744 0-.41-.9-.745-2-.745s-1.48.335-.84.745Zm-136.063.744c-.642.41-1.967.745-2.946.745-.979 0-1.778-.335-1.778-.745s1.326-.744 2.946-.744c1.619 0 2.421.335 1.778.744Zm85.515-.231c-1.818.187-4.796.187-6.615 0-1.818-.187-.33-.34 3.308-.34s5.125.153 3.307.34Zm42.048.976c0 .41.8.744 1.78.744s2.3-.335 2.95-.744c.64-.41-.16-.745-1.78-.745s-2.95.335-2.95.745Zm266.11-.236c1.37.215 3 .188 3.62-.06.63-.246-.48-.422-2.47-.39-2.21.036-2.65.212-1.15.45Zm123.2.236c0 .41 1.75.744 3.89.744s3.36-.335 2.72-.744c-.64-.41-2.39-.745-3.89-.745s-2.72.335-2.72.745Zm-1282.355.681c.588.375 0 .83-1.306 1.015-1.305.183-1.689.62-.854.972.837.352 2.312.146 3.279-.456 2.328-1.45 2.264-2.212-.185-2.212-1.1 0-1.521.306-.934.681Zm83.775-.132c5.633.155 9.49.581 8.865.98-.609.387 1.708.716 5.148.731 3.439.015 19.119.221 34.844.46 19.093.29 29.765.164 32.128-.376 2.66-.61-3.631-.816-25.396-.833-18.792-.014-28.521-.283-27.763-.767.754-.48-5.723-.696-18.315-.607-10.772.076-15.024.261-9.511.412Zm871.46.253c-1.93.484-1.24.668 2.54.676 5.64.012 6.66-.353 2.66-.957-1.39-.21-3.73-.084-5.2.28Zm28.52-.09c-9.06.568-4.69 1.316 4.73.808 4.15-.225 6.28-.591 4.72-.815-1.56-.224-5.81-.22-9.45.007Zm63.31-.053-5.67.528 5.47.44c3.01.243 7.92.165 10.9-.173 3.31-.373 5.01-.341 4.35.082-.64.407 3.48.655 9.88.596 6.04-.056 8.85-.255 6.25-.444-2.59-.188-5.57-.588-6.61-.89-2.49-.722-17.4-.806-24.57-.139Zm223.47-.146c1.82-.187.34-.34-3.3-.34-3.64 0-5.13.153-3.31.34 1.82.187 4.8.187 6.61 0Zm-1301.97.74c1.362.215 2.993.188 3.621-.059.627-.247-.488-.423-2.48-.39-2.201.035-2.649.211-1.141.449Zm137.861.003c-1.807.186-5.208.193-7.559.015s-.873-.33 3.284-.34c4.158-.007 6.082.139 4.275.325Zm819.229.367c-2.17.33-1.02.505 3.3.505 3.64 0 8.31-.277 10.39-.618 2.87-.469 2.07-.591-3.3-.506-3.89.062-8.57.34-10.39.619Zm261.73-.386c1.3.207 3.43.207 4.73 0 1.3-.206.23-.375-2.37-.375-2.59 0-3.66.169-2.36.375Zm-743.611.768c1.839.189 4.39.176 5.67-.028 1.279-.204-.225-.358-3.343-.343-3.119.015-4.166.182-2.327.37Zm33.155-.008c1.363.216 2.994.189 3.621-.058.628-.248-.487-.423-2.479-.391-2.202.035-2.65.212-1.142.45Zm-525.964.981c-.643.41-.267.745.833.745s2.002-.335 2.002-.745-.375-.745-.834-.745c-.46 0-1.359.335-2.001.745Zm224.89 0c.642.41.266.745-.834.745s-2.001-.335-2.001-.745.374-.745.833-.745c.46 0 1.359.335 2.002.745Zm932.63-.105c0 .933 4.26 2.085 7.09 1.919 1.3-.076 3.85-.19 5.67-.254 2.79-.098 2.87-.212.47-.737-4.75-1.043-13.23-1.637-13.23-.928Zm17.01.85c0 .409.85.744 1.89.744s1.89-.335 1.89-.744c0-.41-.85-.745-1.89-.745s-1.89.335-1.89.745Zm39.21-.232c1.82-.187.33-.34-3.3-.34-3.64 0-5.13.153-3.31.34 1.82.188 4.8.188 6.61 0Zm-114.8.837c0 .333 4.04.674 8.97.759 6.54.111 8.21-.05 6.15-.595-3.4-.895-15.12-1.023-15.12-.164Zm56.55-.42c-1.5 1.928-.74 2.5 3.5 2.64 4.68.152 4.71.12 1.37-1.335-3.21-1.394-4.53-1.749-4.87-1.304Zm-1136 1.068c1.362.215 2.993.188 3.621-.06.627-.246-.488-.422-2.48-.39-2.202.036-2.649.212-1.141.45Zm8.385.004c1.818.188 4.796.188 6.614 0 1.818-.187.331-.34-3.307-.34s-5.125.153-3.307.34Zm794.215.224c-.662.42.096.546 1.778.292 3.273-.495 3.872-1.029 1.155-1.029-.979 0-2.298.331-2.933.736Zm240.94.052c0 .433.85.581 1.89.328 1.04-.253 1.89-.608 1.89-.789 0-.18-.85-.328-1.89-.328s-1.89.355-1.89.789Zm221.51.09c-1.78.278 4.35.53 13.62.558 9.26.028 16.29-.168 15.6-.438-1.67-.66-25.16-.757-29.22-.12Zm36.45-.134-5.67.568 6.03.088c3.32.049 6.56-.247 7.2-.656 1.29-.825.66-.825-7.56 0Zm-649.628.493c1.301.206 3.427.206 4.725 0 1.3-.207.236-.376-2.362-.376-2.599 0-3.661.17-2.363.376Zm86.766.006c-.913.36-18.647 1.078-32.389 1.31-7.301.124-18.375.315-24.612.424l-11.339.2 9.449.58c13.951.855 55.541.792 64.255-.098 4.157-.425 8.542-.808 9.742-.851 1.2-.044 1.735-.537 1.19-1.096-.648-.666-3.549-.959-8.381-.846-4.065.094-7.628.264-7.915.377Zm283.172.19c-5.23.49-4.96.558 3.33.859 7.3.264 18.29-.352 14.62-.82-3.63-.463-13.21-.484-17.95-.039Zm47.83-.18c1.37.214 3 .188 3.63-.06.62-.247-.49-.422-2.48-.39-2.21.035-2.65.212-1.15.45Zm-470.683.748c1.818-.187.331-.34-3.307-.34s-5.125.153-3.307.34c1.818.188 4.796.188 6.614 0Zm319.853.232c-2.3.587-2.06.724 1.31.733 2.27.006 4.66-.324 5.31-.733 1.48-.948-2.9-.948-6.62 0Zm14.88.073c-1.74.436-.27.652 4.49.66 3.9.006 7.09-.24 7.09-.547 0-.8-8.49-.882-11.58-.113Zm149.54-.432c0 .602 5.41.88 7.46.383 1.53-.373.61-.583-2.54-.583-2.71 0-4.92.09-4.92.2Zm-853.699.875c1.839.189 4.39.176 5.67-.028 1.279-.204-.225-.358-3.344-.343-3.118.015-4.165.182-2.326.37Zm18.39.367c-3.638.362-12.433.789-19.545.948-7.111.16-13.363.462-13.894.671-2.508.988 15.735 1.362 42.588.872 42.322-.772 58.526-.846 69.279-.316 5.197.256 9.731.178 10.075-.174.344-.353 2.037-.355 3.779-.006 1.735.348 7.407.39 12.604.094l9.449-.54-10.394-.11c-12.039-.127-19.241-.757-17.961-1.573.491-.314-7.312-.625-17.341-.692-13.131-.087-18.668.148-19.785.841-1.262.785-1.555.782-1.58-.011-.017-.582-.967-.746-2.356-.408-3.121.76-9.011.898-9.011.212 0-.761-27.824-.612-35.907.192Zm115.752-.358c2.34-.178.425-.323-4.252-.323s-6.592.145-4.252.323c2.339.178 6.164.178 8.504 0Zm480.962-.012c1.818-.187.331-.34-3.307-.34s-5.125.153-3.307.34c1.818.187 4.796.187 6.614 0Zm66.265-.005c1.36.215 2.99.189 3.62-.059.63-.247-.49-.422-2.48-.39-2.2.035-2.65.212-1.14.45Zm-931.808.75c1.82-.188.331-.34-3.307-.34s-5.127.152-3.307.34c1.82.187 4.795.187 6.615 0Zm340.643.265c2.069.552 1.305.621-2.835.256-6.949-.612-8.457-1.038-3.623-1.023 1.992.006 4.898.35 6.458.767Zm270.245.095c0 .798 35.682.703 40.632-.108 2.288-.375-4.984-.597-18.426-.563-12.212.031-22.206.333-22.206.671Zm75.24-.365c1.363.215 2.994.188 3.621-.059.628-.247-.487-.423-2.479-.39-2.202.035-2.65.211-1.142.449Zm-597.778.98c-.642.41.584.745 2.723.745 2.14 0 3.892-.335 3.892-.745s-1.225-.744-2.724-.744c-1.498 0-3.248.335-3.891.744Zm24.666-.062c-.468.298-4.448.43-8.844.293-4.398-.137-7.478-.046-6.847.203 2.016.794 26.509 1.246 25.286.467-1.489-.95-8.51-1.655-9.595-.963Zm101.953.081c-4.54.44-3.442.567 5.512.638 6.15.049 10.827-.033 10.394-.18-2.059-.7-10.817-.952-15.906-.458Zm-144.064.497c1.839.19 4.39.177 5.67-.027 1.279-.204-.225-.358-3.344-.343-3.118.015-4.165.181-2.326.37Zm-80.235.738c1.363.215 2.994.188 3.621-.06.628-.247-.487-.422-2.48-.39-2.2.036-2.649.212-1.14.45Zm135.949-.016c1.3.207 3.426.207 4.725 0 1.3-.206.236-.375-2.363-.375-2.598 0-3.66.169-2.362.375Z" clip-rule="evenodd"/></svg>