<svg width="64" height="64" viewBox="0 0 64 64" fill="none" xmlns="http://www.w3.org/2000/svg">
<g clip-path="url(#clip0_31_1363)">
<path d="M2.64109 22.7655C3.15645 22.2501 3.76828 21.8413 4.44164 21.5624C5.11499 21.2835 5.83669 21.1399 6.56553 21.1399C7.29436 21.1399 8.01606 21.2835 8.68942 21.5624C9.36278 21.8413 9.97461 22.2501 10.49 22.7655L32.7285 45.004L24.8796 52.8529L2.64109 30.6144C1.60026 29.5736 1.01553 28.1619 1.01553 26.6899C1.01553 25.218 1.60026 23.8063 2.64109 22.7655V22.7655Z" stroke="#04454D" stroke-width="2" stroke-miterlimit="10"/>
<path d="M30.988 24.0797L20.5229 34.5449L24.8857 38.9078L35.3509 28.4426L30.988 24.0797Z" fill="#08CF65"/>
<path d="M23.34 35.22L18.98 30.86L29.44 20.4L33.8 24.76" stroke="#04454D" stroke-width="2" stroke-miterlimit="10"/>
<path d="M4.02504 26.6213L6.49992 24.1464C7.90644 22.7399 9.81409 21.9497 11.8032 21.9497C13.7923 21.9497 15.7 22.7399 17.1065 24.1464L37.0894 44.1293L24.0079 57.2108L4.02504 37.2279C2.61852 35.8214 1.82834 33.9137 1.82834 31.9246C1.82834 29.9355 2.61852 28.0278 4.02504 26.6213Z" fill="#08CF65"/>
<path d="M41.45 45L24.88 61.58L18.7 55.39C18.1835 54.8754 17.8348 54.2165 17.7 53.5L17 50.24L30.12 37.16L33.38 37.81C34.092 37.9576 34.7474 38.3044 35.27 38.81L41.45 45Z" fill="#08CF65"/>
<path d="M36.6525 56.773C41.2294 52.196 43.379 46.9249 41.4537 44.9997C39.5285 43.0744 34.2574 45.224 29.6804 49.8009C25.1035 54.3779 22.9539 59.6489 24.8792 61.5742C26.8044 63.4995 32.0755 61.3499 36.6525 56.773Z" fill="#08CF65"/>
<path d="M34.9124 55.0333C39.0051 50.9406 41.1515 46.4515 39.7066 45.0065C38.2616 43.5616 33.7725 45.708 29.6798 49.8007C25.5871 53.8934 23.4407 58.3825 24.8856 59.8275C26.3306 61.2724 30.8197 59.126 34.9124 55.0333Z" fill="#04454D"/>
<path d="M17 50.24L15.29 48.5C15.29 48.3 15.95 46.09 20.52 41.5L22.27 43.25C18.26 47.28 17 50.2 17 50.24Z" fill="white"/>
<path d="M52.7933 24.945L44.9444 32.7939L22.713 10.5625C21.6722 9.52163 21.0875 8.10996 21.0875 6.63801C21.0875 5.16606 21.6722 3.7544 22.713 2.71357V2.71357C23.7538 1.67274 25.1655 1.08801 26.6375 1.08801C28.1094 1.08801 29.5211 1.67274 30.5619 2.71357L52.7933 24.945Z" stroke="#04454D" stroke-width="2" stroke-miterlimit="10"/>
<path d="M52.9056 28.3271L48.3094 32.9233C47.1842 34.0485 45.6581 34.6807 44.0668 34.6807C42.4755 34.6807 40.9494 34.0485 39.8241 32.9233L24.0769 17.176C23.3804 16.4796 22.828 15.6528 22.4511 14.7429C22.0742 13.8329 21.8802 12.8577 21.8802 11.8727C21.8802 10.8878 22.0742 9.91256 22.4511 9.00261C22.828 8.09267 23.3804 7.26588 24.0769 6.56944L26.5517 4.09457C27.9583 2.68804 29.8659 1.89786 31.855 1.89787C33.8442 1.89787 35.7518 2.68804 37.1583 4.09456L52.9056 19.8418C54.0308 20.9671 54.663 22.4932 54.663 24.0845C54.663 25.6758 54.0308 27.2019 52.9056 28.3271Z" fill="#08CF65"/>
<path d="M44.94 41.52L61.51 25L55.33 18.82C54.8129 18.3069 54.1551 17.9589 53.44 17.82L50.17 17.16L37.09 30.18L37.75 33.45C37.8889 34.1651 38.2369 34.8228 38.75 35.34L44.94 41.52Z" fill="#08CF65"/>
<path d="M56.7195 36.721C61.2965 32.144 63.4461 26.8729 61.5208 24.9477C59.5955 23.0224 54.3244 25.172 49.7475 29.7489C45.1705 34.3258 43.0209 39.5969 44.9462 41.5222C46.8715 43.4475 52.1426 41.2979 56.7195 36.721Z" fill="#08CF65"/>
<path d="M54.9653 34.9812C59.058 30.8885 61.2044 26.3994 59.7595 24.9545C58.3146 23.5095 53.8254 25.6559 49.7327 29.7486C45.64 33.8413 43.4936 38.3305 44.9385 39.7754C46.3835 41.2204 50.8726 39.0739 54.9653 34.9812Z" fill="#04454D"/>
<path d="M50.17 17.1L48.43 15.36C48.24 15.36 46.02 16.02 41.43 20.59L43.18 22.34C47.21 18.32 50.13 17.11 50.17 17.1Z" fill="white"/>
<path d="M63.24 49.55L58.96 46.77" stroke="#04454D" stroke-width="2" stroke-miterlimit="10"/>
<path d="M61.89 60.35L53.74 52.52" stroke="#04454D" stroke-width="2" stroke-miterlimit="10"/>
<path d="M51.14 62.88L48 58.86" stroke="#04454D" stroke-width="2" stroke-miterlimit="10"/>
</g>
<defs>
<clipPath id="clip0_31_1363">
<rect width="64" height="64" fill="white"/>
</clipPath>
</defs>
</svg>
