<svg width="65" height="64" viewBox="0 0 65 64" fill="none" xmlns="http://www.w3.org/2000/svg">
<g clip-path="url(#clip0_31_1210)">
<path d="M57.67 3.28H30.75C29.1587 3.28 27.6325 3.91214 26.5073 5.03736C25.3821 6.16258 24.75 7.6887 24.75 9.28V25.46C24.75 27.0513 25.3821 28.5774 26.5073 29.7026C27.6325 30.8279 29.1587 31.46 30.75 31.46H48.91L58.3 40.86V31.46C59.0047 31.4613 59.7028 31.3236 60.3542 31.0549C61.0057 30.7861 61.5977 30.3915 62.0965 29.8936C62.5953 29.3958 62.991 28.8045 63.261 28.1535C63.531 27.5025 63.67 26.8047 63.67 26.1V9.28C63.67 7.6887 63.0378 6.16258 61.9126 5.03736C60.7874 3.91214 59.2613 3.28 57.67 3.28V3.28Z" stroke="#04454D" stroke-width="2" stroke-miterlimit="10"/>
<path d="M36.16 19.38C37.2701 19.38 38.17 18.4801 38.17 17.37C38.17 16.2599 37.2701 15.36 36.16 15.36C35.0499 15.36 34.15 16.2599 34.15 17.37C34.15 18.4801 35.0499 19.38 36.16 19.38Z" fill="#04454D"/>
<path d="M44.21 19.38C45.3201 19.38 46.22 18.4801 46.22 17.37C46.22 16.2599 45.3201 15.36 44.21 15.36C43.0999 15.36 42.2 16.2599 42.2 17.37C42.2 18.4801 43.0999 19.38 44.21 19.38Z" fill="#04454D"/>
<path d="M52.26 19.38C53.3701 19.38 54.27 18.4801 54.27 17.37C54.27 16.2599 53.3701 15.36 52.26 15.36C51.1499 15.36 50.25 16.2599 50.25 17.37C50.25 18.4801 51.1499 19.38 52.26 19.38Z" fill="#04454D"/>
<path d="M43.76 32.43V31.57C43.76 29.9787 43.1278 28.4526 42.0026 27.3274C40.8774 26.2021 39.3513 25.57 37.76 25.57H32.21V32.43H43.76Z" fill="#181F38"/>
<path d="M33.52 23.14H6.59998C3.28627 23.14 0.599976 25.8263 0.599976 29.14V45.32C0.599976 48.6337 3.28627 51.32 6.59998 51.32H33.52C36.8337 51.32 39.52 48.6337 39.52 45.32V29.14C39.52 25.8263 36.8337 23.14 33.52 23.14Z" fill="#08CF65"/>
<path d="M5.96997 47.23V60.72L19.46 47.23H5.96997Z" fill="#08CF65"/>
<path d="M15.29 36C15.6789 35.9649 16.0705 36.0249 16.4311 36.1747C16.7916 36.3245 17.1104 36.5597 17.36 36.86L21.04 40.54C21.1093 40.5981 21.1613 40.6742 21.19 40.76C21.1957 40.7864 21.1957 40.8136 21.19 40.84C21.1948 40.8631 21.1948 40.8869 21.19 40.91C21.1639 40.9971 21.1115 41.0739 21.04 41.13L18.52 43.65C18.467 43.7203 18.3937 43.7727 18.31 43.8H18.15C18.0642 43.7713 17.9881 43.7194 17.93 43.65L10.81 36.52C10.6 36.31 10.67 36 11.02 36H15.29Z" fill="white"/>
<path d="M25.66 31.55C25.2711 31.5149 24.8795 31.5749 24.5189 31.7247C24.1583 31.8745 23.8395 32.1097 23.59 32.41L19.91 36.09C19.8 36.2 19.77 36.25 19.76 36.31C19.7543 36.3364 19.7543 36.3636 19.76 36.39C19.7551 36.4131 19.7551 36.4369 19.76 36.46C19.76 36.53 19.76 36.57 19.91 36.68L22.42 39.2C22.478 39.2693 22.5542 39.3213 22.64 39.35H22.8C22.8857 39.3213 22.9619 39.2693 23.02 39.2L30.14 32.07C30.1928 32.0314 30.231 31.9761 30.2484 31.9131C30.2658 31.8501 30.2614 31.7831 30.236 31.7228C30.2105 31.6626 30.1654 31.6128 30.108 31.5814C30.0507 31.55 29.9844 31.539 29.92 31.55H25.66Z" fill="white"/>
</g>
<defs>
<clipPath id="clip0_31_1210">
<rect width="64" height="64" fill="white" transform="translate(0.599976)"/>
</clipPath>
</defs>
</svg>
