<svg width="64" height="64" viewBox="0 0 64 64" fill="none" xmlns="http://www.w3.org/2000/svg">
<g clip-path="url(#clip0_2967_5632)">
<path d="M60.37 19.24C60.6545 19.2378 60.9347 19.3105 61.1822 19.451C61.4298 19.5914 61.6359 19.7946 61.78 20.04L61.91 20.26C62.0342 20.4859 62.0665 20.751 62 21L54.7 51.13C54.6452 51.3519 54.5161 51.5483 54.3342 51.6866C54.1522 51.8249 53.9284 51.8967 53.7 51.89H9.26996C9.02722 51.8816 8.79489 51.7894 8.61255 51.6289C8.43021 51.4684 8.30914 51.2497 8.26996 51.01L15.97 19.24H60.37M60.37 17.24H14.37L6.20996 50.84C6.22567 51.6411 6.55499 52.4041 7.12715 52.9651C7.69932 53.526 8.46869 53.8402 9.26996 53.84H53.74C54.413 53.8412 55.0669 53.616 55.5965 53.2007C56.1261 52.7853 56.5007 52.2039 56.66 51.55L64 21.47C64.184 20.712 64.0657 19.9122 63.67 19.24L63.5 19C63.1797 18.4553 62.722 18.0043 62.1727 17.6919C61.6235 17.3796 61.0018 17.2168 60.37 17.22V17.24Z" fill="#04454D"/>
<path fill-rule="evenodd" clip-rule="evenodd" d="M61.875 26H45.75L43 53.4999H55L61.875 26Z" fill="#04454D"/>
<path d="M45.1798 14.1801H17.0598L16.6098 12.3801C16.4471 11.7316 16.0724 11.156 15.5452 10.7447C15.018 10.3334 14.3685 10.1101 13.6998 10.1101H2.99984C2.58846 10.1092 2.1813 10.1929 1.80364 10.356C1.42598 10.5191 1.08591 10.7582 0.804553 11.0583C0.523196 11.3584 0.306568 11.7132 0.168133 12.1006C0.0296974 12.4879 -0.0275872 12.8997 -0.000161116 13.3101L2.30984 48.3101C2.41146 49.8311 3.08819 51.2564 4.20258 52.2965C5.31698 53.3366 6.78548 53.9135 8.30984 53.9101H53.5498C52.59 53.9114 51.6664 53.5435 50.9702 52.8827C50.2741 52.2219 49.8586 51.3187 49.8098 50.3601L48.1798 17.0001C48.1339 16.2361 47.7977 15.5185 47.24 14.9942C46.6823 14.47 45.9453 14.1787 45.1798 14.1801V14.1801Z" fill="#08CF65"/>
<path d="M30.6099 14.1799V30.4399L35.1999 25.8599C35.3872 25.6737 35.6407 25.5691 35.9049 25.5691C36.169 25.5691 36.4225 25.6737 36.6099 25.8599L41.1999 30.4399V14.1799H30.6099Z" fill="#04454D"/>
</g>
<defs>
<clipPath id="clip0_2967_5632">
<rect width="64" height="64" fill="white"/>
</clipPath>
</defs>
</svg>
