<svg width="140" height="60" viewBox="0 0 140 60" fill="none" xmlns="http://www.w3.org/2000/svg">
<path fill-rule="evenodd" clip-rule="evenodd" d="M104.113 16.0901C103.365 16.3157 102.826 16.7571 102.497 17.4139C102.312 17.7849 102.288 17.8962 102.288 18.41C102.288 18.9255 102.311 19.0348 102.501 19.4158C102.771 19.9583 103.161 20.3283 103.731 20.5853C104.137 20.7683 104.243 20.7878 104.823 20.7878C105.377 20.7878 105.517 20.7644 105.848 20.6169C107.275 19.9807 107.756 18.3162 106.879 17.0446C106.318 16.231 105.072 15.801 104.113 16.0901ZM0 20.7557V25.19H0.811006H1.62201V24.7867C1.62201 23.3558 2.06334 21.8248 2.77445 20.789C3.9002 19.1492 5.84364 18.2302 8.31282 18.1702L9.02245 18.1529V28.0177C9.02245 35.4957 9.00271 37.9617 8.94094 38.21C8.77543 38.8747 8.577 39.2632 8.21097 39.6391C7.58115 40.286 6.86625 40.5218 5.32223 40.5917L4.39295 40.6338V41.5235V42.4132H11.4893H18.5856V41.5235V40.6338L17.6563 40.5917C16.6169 40.5447 16.0435 40.4366 15.5369 40.1925C14.8037 39.8392 14.3808 39.3044 14.1079 38.3854L13.9587 37.8825L13.938 28.0326C13.9192 19.0568 13.927 18.1793 14.0254 18.1434C14.2214 18.0719 15.9335 18.2496 16.6018 18.4108C17.3734 18.5969 18.3239 19.0199 18.9067 19.4365C20.4363 20.5299 21.3545 22.4878 21.3561 24.6598L21.3565 25.19H22.1675H22.9785V20.7557V16.3214H11.4893H0V20.7557ZM33.3864 17.0512V17.781L34.0792 17.8159C35.0197 17.8632 35.4622 18.0238 35.9622 18.4992C36.2233 18.7474 36.3918 18.98 36.5029 19.2454L36.6643 19.631L36.6844 29.1424C36.6991 36.0712 36.6836 38.7578 36.6274 39.0372C36.3799 40.2681 35.4259 40.9351 33.9129 40.9351H33.3864V41.6742V42.4132H37.8132H42.2399V41.6821V40.951L41.4458 40.9203C40.838 40.8968 40.5578 40.8552 40.2517 40.743C39.8017 40.5781 39.336 40.2037 39.0954 39.8133C38.716 39.1976 38.7277 39.5279 38.7266 29.3405C38.726 24.1829 38.7379 19.9751 38.7529 19.9898C38.7679 20.0046 40.3204 25.0053 42.2028 31.1025C44.0853 37.1997 45.6413 42.239 45.6607 42.3008C45.6914 42.3993 45.7906 42.4132 46.4596 42.4132H47.2233L47.3309 42.0437C49.985 32.9256 53.7499 20.0396 53.7946 19.9202C53.8302 19.8252 53.8499 23.7227 53.8427 29.4637C53.8308 38.9733 53.8279 39.174 53.6968 39.4754C53.2932 40.4036 52.377 40.9351 51.1806 40.9351H50.7555V41.6742V42.4132H56.1622H61.5689V41.6834V40.9536L60.8762 40.9187C60.0196 40.8756 59.5401 40.7157 59.0749 40.3181C58.6896 39.9886 58.4396 39.5386 58.3312 38.9793C58.2799 38.7146 58.2576 35.7669 58.2583 29.3394C58.2591 21.3776 58.2734 20.0242 58.3597 19.676C58.4863 19.1652 58.6039 18.9498 58.9527 18.59C59.4354 18.0921 60.0776 17.8658 61.0113 17.8645L61.5689 17.8637V17.0925V16.3214H57.1786H52.7882L52.7114 16.5945C52.3462 17.8916 47.4984 34.4781 47.479 34.4965C47.4651 34.5098 47.4262 34.4239 47.3926 34.3057C47.359 34.1875 46.1795 30.0927 44.7715 25.2061L42.2117 16.3214H37.7991H33.3864V17.0512ZM79.8841 17.053V17.7845L80.5431 17.8117C81.5724 17.854 82.0534 18.1232 82.3002 18.7949C82.411 19.0965 82.4185 19.771 82.4185 29.4316C82.4185 39.0646 82.4104 39.8035 82.2949 40.6138C82.227 41.091 82.1281 41.6785 82.0753 41.9194C82.0225 42.1603 81.9792 42.3699 81.9792 42.3853C81.9792 42.4006 82.3822 42.4128 82.8747 42.4122L83.7702 42.4112L84.4123 41.4692C84.7654 40.951 85.0754 40.4969 85.1012 40.46C85.1288 40.4205 85.3371 40.5653 85.6081 40.8126C86.8966 41.9881 88.5925 42.6734 90.4672 42.7761C93.0974 42.9204 95.3469 41.9119 96.7676 39.9517C98.432 37.6551 99.039 33.8266 98.2987 30.2954C97.5839 26.8863 95.6969 24.7128 92.8265 23.9922C92.2301 23.8426 92.0195 23.8223 91.0355 23.8199C90.0907 23.8177 89.8378 23.8388 89.3797 23.9584C88.3384 24.2302 87.4833 24.7202 86.7972 25.4383L86.5126 25.7363L86.5099 21.0288L86.5074 16.3214H83.1957H79.8841V17.053ZM111.649 17.0513V17.7813L112.206 17.8147C113.384 17.8851 113.822 18.2817 113.953 19.3983C113.993 19.7458 114.011 23.7118 113.999 29.8206C113.98 39.1729 113.972 39.6976 113.856 39.9843C113.601 40.6124 112.962 40.9351 111.974 40.9351H111.446V41.6742V42.4132H116.042H120.637V41.6742V40.9351H120.075C118.794 40.9351 118.23 40.5247 118.071 39.4759C118.029 39.2034 118.004 34.7708 118.003 27.6803L118.001 16.3214H114.825H111.649V17.0513ZM69.4086 23.8832C67.1548 24.2208 65.4498 25.166 64.1703 26.7871C63.3112 27.8755 62.6978 29.2399 62.3458 30.8454C62.1276 31.8404 62.0438 33.7592 62.1718 34.8299C62.7005 39.2532 65.2991 42.2358 69.1401 42.8281C69.968 42.9558 71.3098 42.9546 72.117 42.8254C75.6395 42.262 78.1589 39.6972 78.9372 35.8825C79.687 32.2075 78.7439 28.3954 76.5314 26.1591C75.3594 24.9743 73.8778 24.2258 72.1316 23.9363C71.6019 23.8485 69.8667 23.8147 69.4086 23.8832ZM128.534 23.941C125.549 24.4548 123.313 26.8714 122.502 30.4618C122.275 31.4676 122.192 32.2677 122.192 33.4296C122.193 34.5647 122.266 35.2704 122.492 36.3118C122.707 37.3041 122.929 37.9217 123.405 38.8491C124.479 40.9446 126.081 42.1967 128.395 42.7506C128.903 42.8721 129.165 42.8911 130.302 42.8894C131.51 42.8875 131.675 42.8733 132.28 42.718C134.33 42.192 135.814 40.9085 137.195 38.4677C137.542 37.8549 137.551 37.8286 137.426 37.7394C137.265 37.6242 135.97 36.9996 135.949 37.027C135.941 37.0381 135.795 37.3218 135.625 37.6576C134.739 39.4079 133.633 40.5093 132.329 40.9406C131.802 41.1149 130.656 41.1802 130.089 41.0684C129.3 40.9125 128.553 40.4601 128.064 39.8411C127.191 38.7362 126.768 37.1098 126.613 34.2676L126.567 33.416H132.152C137.425 33.416 137.736 33.4098 137.736 33.3036C137.736 33.2417 137.704 32.8585 137.665 32.4521C137.261 28.2221 135.494 25.3291 132.667 24.2708C131.588 23.8668 129.796 23.7238 128.534 23.941ZM138.372 23.9318C137.564 24.2663 137.558 25.5158 138.363 25.9059C138.705 26.0722 139.271 26.0479 139.542 25.8553C139.905 25.5978 140 25.4067 140 24.933C140 24.4415 139.895 24.2446 139.494 23.985C139.234 23.8171 138.709 23.7922 138.372 23.9318ZM139.159 24.0332C139.533 24.132 139.777 24.4166 139.815 24.8007C139.879 25.427 139.531 25.8329 138.93 25.8324C138.501 25.8322 138.207 25.6756 138.052 25.3646C137.806 24.8733 137.984 24.3562 138.482 24.1136C138.82 23.9487 138.833 23.9471 139.159 24.0332ZM100.632 25.086V25.8173L101.258 25.845C102.307 25.8915 102.748 26.1797 102.961 26.9573C103.052 27.2871 103.065 28.1443 103.065 33.3943C103.065 37.4605 103.042 39.5562 102.993 39.7719C102.895 40.2047 102.608 40.5639 102.215 40.7448C101.963 40.8608 101.742 40.8993 101.195 40.9225L100.497 40.952V41.6826V42.4132H105.093H109.689V41.6742V40.9351L109.165 40.9336C108.121 40.9304 107.629 40.7097 107.334 40.111L107.154 39.7462L107.136 32.0504L107.118 24.3546H103.875H100.632V25.086ZM138.547 24.933C138.547 25.2329 138.575 25.4471 138.615 25.4471C138.652 25.4471 138.682 25.3603 138.682 25.2543C138.682 25.1121 138.714 25.0615 138.803 25.0615C138.869 25.0615 138.977 25.1482 139.043 25.2543C139.109 25.3603 139.207 25.4471 139.26 25.4471C139.385 25.4471 139.383 25.4148 139.244 25.213C139.137 25.0581 139.137 25.044 139.244 24.9872C139.376 24.917 139.396 24.6096 139.277 24.496C139.232 24.4535 139.05 24.4188 138.871 24.4188H138.547V24.933ZM139.136 24.6195C139.267 24.7435 139.154 24.8687 138.911 24.8687C138.712 24.8687 138.682 24.8478 138.682 24.708C138.682 24.5749 138.715 24.5474 138.871 24.5474C138.975 24.5474 139.095 24.5798 139.136 24.6195ZM71.4 25.4813C72.9355 25.8617 73.916 27.317 74.3427 29.8493C74.7954 32.535 74.6588 36.212 74.0291 38.2964C73.3672 40.4871 71.9428 41.6018 70.1434 41.3369C68.2548 41.0589 67.1773 39.3352 66.8046 35.9955C66.6896 34.9657 66.672 32.0566 66.7742 31.0061C66.9271 29.4364 67.3119 27.9759 67.8051 27.0936C68.0836 26.5956 68.6964 25.9712 69.1238 25.75C69.8104 25.3946 70.6499 25.2955 71.4 25.4813ZM131.139 25.6318C132.391 26.2174 133.066 27.8378 133.272 30.749C133.31 31.2792 133.341 31.7347 133.342 31.7612C133.343 31.7877 131.833 31.8094 129.987 31.8094H126.631L126.674 30.99C126.81 28.3969 127.622 26.3787 128.791 25.7272C129.269 25.461 129.61 25.3818 130.179 25.4046C130.599 25.4214 130.783 25.4647 131.139 25.6318ZM91.2507 25.6752C92.7234 26.1639 93.6262 27.9486 93.9428 30.9971C94.0537 32.0649 94.0345 34.6456 93.9079 35.6983C93.5685 38.5205 92.7261 40.2291 91.3787 40.8287C90.5531 41.196 89.466 41.1237 88.6746 40.6487C87.5268 39.9597 86.7071 38.2948 86.3259 35.8785C86.1547 34.7933 86.155 31.8872 86.3264 30.864C86.8478 27.7508 87.9875 25.9736 89.6987 25.6056C90.1821 25.5016 90.8131 25.5299 91.2507 25.6752ZM0 30.9418V33.5446H2.73715H5.47429V30.9418V28.339H2.73715H0V30.9418ZM17.5718 30.9418V33.5446H20.2752H22.9785V30.9418V28.339H20.2752H17.5718V30.9418Z" fill="white"/>
</svg>
