<svg width="92" height="60" viewBox="0 0 92 60" fill="none" xmlns="http://www.w3.org/2000/svg">
<g clip-path="url(#clip0_2483_9338)">
<path d="M0.220093 44.302L12.3377 44.2897C17.2953 44.2897 21.3131 40.2842 21.3131 35.3489C21.3131 30.4038 17.2953 26.398 12.3377 26.398L9.19065 26.4152C8.94266 26.4152 8.74154 26.2118 8.74154 25.9615C8.74154 25.7113 8.94266 25.5076 9.19065 25.5076L21.2862 25.5101L21.2911 21.7155H9.18807C6.8481 21.7155 4.94432 23.6164 4.94432 25.9518C4.94432 28.2895 6.84778 30.183 9.18807 30.183L12.3499 30.2247C15.1904 30.2247 17.489 32.5155 17.489 35.3417C17.489 38.1699 15.1908 40.4659 12.3499 40.4659H0.224943L0.220093 44.302Z" fill="white"/>
<path d="M0.224788 39.5751H12.3498C14.6972 39.5751 16.5958 37.6817 16.5958 35.3414C16.5958 33.0037 14.6972 31.1125 12.3498 31.1125L9.18791 31.0783C6.35228 31.0783 4.05144 28.7849 4.05144 25.9515C4.05144 23.1259 6.35228 20.8322 9.18791 20.8322L21.2909 20.8296L21.2861 17.0204H9.1905C4.238 17.0204 0.215088 21.0213 0.215088 25.9615C0.215088 30.9017 4.238 34.9049 9.1905 34.9049L12.3204 34.9098C12.5583 34.9098 12.7595 35.1038 12.7595 35.3489C12.7595 35.5894 12.5583 35.7831 12.3204 35.7831L0.219938 35.7928L0.224788 39.5751Z" fill="white"/>
<path d="M30.7076 40.4902C28.6053 40.4902 26.8832 38.8147 26.8832 36.6755V24.5705C26.8832 22.5125 28.6053 20.8199 30.7076 20.8199L43.6419 20.8221V17.0204H30.7076C26.4985 17.0204 23.0889 20.4176 23.0889 24.6122V36.6758C23.0889 40.8707 26.4985 44.2729 30.7076 44.2729L43.5879 44.278L43.5854 40.4856L30.7076 40.4902Z" fill="white"/>
<path d="M27.8105 24.6123C27.8105 23.0082 29.1009 21.7081 30.7076 21.7081H43.6419V25.515H32.4982C31.6055 25.515 31.5932 26.4006 31.5932 26.4006H40.89V30.1904H27.806L27.8105 24.6123Z" fill="white"/>
<path d="M30.7076 39.5681C29.1058 39.5681 27.8057 38.2754 27.8057 36.6758V31.0928H40.8897V34.8904H31.5929C31.6052 35.7831 32.4979 35.7876 32.4979 35.7876H43.5876L43.585 39.5629L30.7076 39.5681Z" fill="white"/>
<path d="M52.7059 40.4805C50.6111 40.4805 48.899 38.7733 48.899 36.6755V24.6119C48.899 22.5122 50.5988 20.8195 52.6959 20.8195H65.2235V17.0204H52.6668C48.4596 17.0204 45.05 20.4176 45.05 24.6122V36.6758C45.05 40.8707 48.489 44.2729 52.6959 44.2729L65.2235 44.278V26.4006H54.4574V30.1904H61.4188V40.4805H52.7059Z" fill="white"/>
<path d="M49.7918 36.6755C49.7918 38.2828 51.0919 39.59 52.696 39.59H60.521V31.088H54.4669V34.8904H56.7137L56.7208 35.7831H54.484C53.9958 35.7831 53.5961 35.3786 53.5961 34.8904L53.5761 26.398C53.5761 26.398 53.5735 25.515 54.474 25.493H65.2277L65.2229 21.7055L52.6953 21.7081C51.0913 21.7081 49.7911 23.0082 49.7911 24.6122V36.6755" fill="white"/>
<path d="M76.9952 21.6515C77.164 21.1685 77.6228 20.8202 78.165 20.8202C78.7076 20.8202 79.1709 21.1685 79.3352 21.6515L85.4164 39.6169H76.5118L76.5215 35.3906H79.4972L78.1576 31.4094L73.7939 44.2748H69.3051L76.9952 21.6515Z" fill="white"/>
<path d="M86.6424 40.4805H76.5266V44.2748H91.9211L83.9148 20.5868C83.2131 18.2762 80.9003 16.5765 78.1623 16.5765C75.4202 16.5765 73.1145 18.2688 72.4077 20.5774L64.3279 44.2751H68.3582L76.2029 21.2396C76.5214 20.4768 77.2725 19.9395 78.1556 19.9395C79.0337 19.9395 79.789 20.4768 80.1104 21.2347L86.6424 40.4805Z" fill="white"/>
<path d="M89.0195 20.0351C89.736 20.0351 90.4105 19.7555 90.9158 19.2527C91.4209 18.745 91.7032 18.0754 91.7032 17.3592C91.7032 16.6479 91.4209 15.9805 90.9158 15.4729C90.4105 14.9727 89.736 14.693 89.0195 14.693C87.5454 14.693 86.341 15.8877 86.341 17.3596C86.341 18.0757 86.6207 18.7454 87.1306 19.253C87.6337 19.7555 88.3056 20.0351 89.0195 20.0351ZM86.719 17.3589C86.719 16.7481 86.9544 16.1694 87.3931 15.7351C87.83 15.3009 88.4087 15.0655 89.0195 15.0655C89.6377 15.0655 90.2165 15.3012 90.6533 15.7351C91.0875 16.1694 91.3281 16.7481 91.3281 17.3589C91.3281 18.627 90.2928 19.6572 89.0195 19.6572C88.4084 19.6572 87.8296 19.4192 87.3931 18.985C86.954 18.551 86.719 17.9745 86.719 17.3589Z" fill="white"/>
<path d="M88.3327 17.5846V18.8453H87.945V15.8823H89.0463C89.4611 15.8871 89.7039 15.8871 89.9345 16.0611C90.1576 16.2257 90.251 16.4733 90.251 16.7482C90.251 17.4401 89.6871 17.5306 89.5442 17.5601L90.3784 18.8453H89.9099L89.098 17.5846H88.3327ZM88.3327 17.2584H89.12C89.2455 17.2584 89.3631 17.2584 89.4808 17.229C89.7557 17.1627 89.8536 16.9664 89.8536 16.7508C89.8536 16.6722 89.8462 16.4737 89.6768 16.3362C89.5219 16.2063 89.326 16.2111 89.098 16.2111H88.3327V17.2584Z" fill="white"/>
</g>
<defs>
<clipPath id="clip0_2483_9338">
<rect width="92" height="60" fill="white"/>
</clipPath>
</defs>
</svg>
