<svg width="114" height="60" viewBox="0 0 114 60" fill="none" xmlns="http://www.w3.org/2000/svg">
<path d="M2.5363 24.5693C3.87367 19.6798 9.44376 18.5161 14.5721 18.3723C18.7879 18.2541 23.4885 18.8116 23.4885 18.8116L21.2799 26.8867C21.2799 26.8867 16.5793 26.3293 12.3634 26.4474C7.23514 26.5912 1.66502 27.7549 0.327637 32.6444L2.5363 24.5693Z" fill="white"/>
<path d="M73.5014 15.9721C66.75 15.9722 65.0204 22.5062 64.0525 26.0451L56.8407 52.4074H61.0482L67.4422 29.0321H71.8122L68.9031 39.6687H73.1106L76.5995 26.9129H68.0222C68.4617 25.3051 68.9304 23.5923 69.3124 22.1957C70.0179 19.6165 71.1702 17.7435 72.8461 17.8065C74.6982 17.8761 73.7556 19.0923 73.502 20.0196C73.1511 21.3025 74.0985 22.5925 75.7583 22.5925C79.3636 22.5925 80.2527 15.9721 73.5014 15.9721ZM49.6337 20.585V20.5852L44.4141 39.6687H48.8004L50.7333 32.6018H54.5434C58.7476 32.6018 61.5377 30.2815 62.2921 27.0561C62.9965 24.0446 61.2376 20.585 56.5265 20.585C54.2288 20.585 51.9316 20.585 49.6337 20.585ZM53.406 22.8307H55.0924C56.8581 22.8307 58.259 24.2441 57.9208 26.7039C57.6072 28.9841 55.1312 30.3509 52.9723 30.3509H51.3489L53.406 22.8307ZM95.0011 26.5266C91.313 26.5266 88.6525 29.6994 88.014 32.8704C87.4005 35.9174 89.1479 39.9666 93.9587 39.9666C97.3779 39.9666 99.0975 38.461 99.0975 38.461L98.3105 36.5185C98.3105 36.5185 96.8731 37.6884 94.8701 37.6884C92.8671 37.6884 91.6106 36.1074 91.8886 33.5879H100.068C100.653 32.1041 100.973 26.5266 95.0011 26.5266ZM111.305 26.6981C108.562 26.6981 106.944 29.5309 106.944 29.5309L107.66 26.9131H103.453L99.9638 39.6687H104.171C104.171 39.6687 105.184 35.9419 105.7 34.0813C106.496 31.1729 108.12 29.3517 108.9 29.2772C109.802 29.1911 109.716 31.3646 111.475 31.3646C114.144 31.3646 114.719 26.6981 111.305 26.6981H111.305ZM78.1848 26.9131L77.605 29.0326H82.9382L74.554 39.6687H86.3937L86.9733 37.5492H80.9571L89.3412 26.9131H78.1848ZM94.9854 28.6328V28.633C97.273 28.633 96.7525 31.6535 96.7525 31.6535L92.1697 31.6428C92.1697 31.6428 92.9298 28.6328 94.9854 28.6328Z" fill="white"/>
<path d="M34.5399 39.6985C19.4514 38.7576 1.91716 30.9748 2.5361 24.5694L0.454335 32.1807C-0.177136 38.7159 16.0883 46.4749 32.3312 47.7736L34.5399 39.6985Z" fill="white"/>
<path d="M40.0231 29.2042C38.6857 34.0937 33.1156 35.2574 27.9873 35.4012C23.7715 35.5194 19.0709 34.9619 19.0709 34.9619L21.2796 26.8868C21.2796 26.8868 25.9801 27.4442 30.196 27.3261C35.3243 27.1823 40.8944 26.0186 42.2317 21.1291L40.0231 29.2042Z" fill="white"/>
<path d="M8.01953 14.0751C23.1081 15.016 40.6422 22.7988 40.0233 29.2042L42.1051 21.5929C42.7365 15.0577 26.4712 7.2987 10.2282 6L8.01953 14.0751Z" fill="white"/>
</svg>
