<svg width="69" height="60" viewBox="0 0 69 60" fill="none" xmlns="http://www.w3.org/2000/svg">
<path fill-rule="evenodd" clip-rule="evenodd" d="M23.9275 15.4465H9.68286C9.68286 15.4465 10.3117 15.9964 10.3896 16.4237C10.5074 17.0728 10.2124 17.7184 10.2124 17.7184L2.77274 41.5273C2.77274 41.5273 2.44001 42.3896 2.02283 42.7745C1.68576 43.0858 1 43.3562 1 43.3562H11.448C11.448 43.3562 10.7593 43.0021 10.5661 42.5889C10.3951 42.2228 10.494 41.5574 10.494 41.5574L13.0768 32.6795C13.0768 32.6795 25.3842 34.4911 29.1153 25.2787C32.2486 17.5448 26.1008 15.4465 23.9275 15.4465ZM22.6198 24.8071C20.1055 32.1837 13.6401 30.8898 13.6401 30.8898L17.7169 17.6035H20.0899C20.0903 17.6035 25.2157 17.1906 22.6198 24.8071Z" fill="white"/>
<path fill-rule="evenodd" clip-rule="evenodd" d="M58.0008 26.4068C54.2871 27.0071 48.7264 29.0614 48.7264 29.0614L48.0772 31.899C48.0772 31.899 50.0163 30.9886 51.3259 30.6087C52.4763 30.2756 54.3375 30.0056 54.3375 30.0056L51.2048 41.2915C51.2048 41.2915 42.4081 43.2383 47.2519 28.2358C48.3237 24.915 51.9935 19.533 55.6945 18.3123C59.8514 16.9411 64.1436 20.0825 64.1436 20.0825L65.3824 16.3655C65.3824 16.3655 60.7387 15.147 57.7249 15.2735C51.7659 15.5236 47.8525 17.1002 43.7054 21.3862C38.4491 26.82 38.925 34.8845 38.925 34.8845L36.9181 36.4518L34.9504 37.9885C34.9504 37.9885 33.6909 36.061 33.2487 34.6783C32.8916 33.5634 32.7206 31.7229 32.7206 31.7229C32.7206 31.7229 36.0827 30.044 37.8007 28.6489C41.2218 25.8701 39.9866 22.625 37.7079 22.2952C35.0747 21.9139 33.7844 22.0883 31.8456 23.6287C28.8764 25.9882 28.7615 30.9498 28.7615 30.9498C28.7615 30.9498 19.0149 33.3151 20.2421 40.3673C20.6049 42.4536 23.759 43.7 26.3367 43.6525C30.3545 43.4749 33.0943 41.6739 33.0943 41.6739C33.0943 41.6739 35.5709 45.0965 41.7586 46.6079C49.7296 48.5547 57.7101 44.5365 57.7101 44.5365L58.178 43.2977C58.178 43.2977 52.2726 46.4311 45.568 45.1538C39.3411 43.9682 36.0834 39.87 36.0834 39.87C36.0834 39.87 37.182 39.0255 37.8616 38.4572C38.469 37.949 39.3893 37.1194 39.3893 37.1194C39.3893 37.1194 40.5865 40.8508 43.8279 42.3698C50.9685 45.7167 58.709 41.8232 58.709 41.8232L62.4915 29.2977C62.4915 29.2977 64.0729 29.147 65.0867 29.1524C66.1965 29.1578 67.9254 29.3568 67.9254 29.3568L68.8101 26.0466C68.8097 26.0466 62.141 25.7374 58.0008 26.4068ZM28.1124 41.0556C26.5785 41.152 24.8945 40.5239 24.5075 39.1031C23.4451 35.2031 28.9971 33.2564 28.9971 33.2564C28.9971 33.2564 29.4049 35.4536 29.9312 36.7703C30.4516 38.073 31.6521 39.9284 31.6521 39.9284C31.6521 39.9284 29.9525 40.941 28.1124 41.0556ZM36.3186 24.0408C37.3657 24.1945 37.0917 26.525 35.6539 27.567C34.5325 28.7595 32.6021 29.2974 32.6021 29.2974C32.6021 29.2974 32.365 23.4609 36.3186 24.0408Z" fill="white"/>
</svg>
